<svg width="25" height="25" viewBox="0 0 25 25" fill="none" xmlns="http://www.w3.org/2000/svg">
<path d="M12.5 14.5834C15.3792 14.5834 17.7084 12.2522 17.7084 9.37508C17.7084 6.498 15.3792 4.16675 12.5 4.16675C9.62087 4.16675 7.29171 6.498 7.29171 9.37508C7.29171 12.2522 9.62087 14.5834 12.5 14.5834ZM12.5 6.25008C14.223 6.25008 15.625 7.65216 15.625 9.37508C15.625 11.098 14.223 12.5001 12.5 12.5001C10.7771 12.5001 9.37504 11.098 9.37504 9.37508C9.37504 7.65216 10.7771 6.25008 12.5 6.25008ZM20.8334 15.6251C21.524 15.6251 22.1864 15.3507 22.6748 14.8623C23.1632 14.374 23.4375 13.7116 23.4375 13.0209C23.4375 12.3302 23.1632 11.6679 22.6748 11.1795C22.1864 10.6911 21.524 10.4167 20.8334 10.4167C20.1427 10.4167 19.4803 10.6911 18.992 11.1795C18.5036 11.6679 18.2292 12.3302 18.2292 13.0209C18.2292 13.7116 18.5036 14.374 18.992 14.8623C19.4803 15.3507 20.1427 15.6251 20.8334 15.6251ZM20.8334 11.4584C21.6948 11.4584 22.3959 12.1595 22.3959 13.0209C22.3959 13.8824 21.6948 14.5834 20.8334 14.5834C19.9719 14.5834 19.2709 13.8824 19.2709 13.0209C19.2709 12.1595 19.9719 11.4584 20.8334 11.4584ZM20.8334 16.2397C19.4469 16.2397 18.4042 16.6626 17.7948 17.249C16.6334 16.2928 14.7969 15.6251 12.5 15.6251C10.1396 15.6251 8.33858 16.3001 7.19587 17.2542C6.57504 16.6657 5.52087 16.2386 4.16671 16.2386C1.88754 16.2386 0.520874 17.3751 0.520874 18.5126C0.520874 19.0803 1.88754 19.6501 4.16671 19.6501C4.79587 19.6501 5.36046 19.597 5.85733 19.5115L5.81567 19.7928C5.81567 20.8345 8.32087 21.8761 12.5 21.8761C16.4188 21.8761 19.1844 20.8345 19.1844 19.7928L19.1625 19.5272C19.6448 19.6032 20.2 19.6501 20.8334 19.6501C22.9698 19.6501 24.4792 19.0803 24.4792 18.5126C24.4792 17.3751 23.049 16.2397 20.8334 16.2397ZM4.16671 18.6074C2.80317 18.6074 2.01254 18.3917 1.649 18.2386C1.89796 17.8167 2.69379 17.2803 4.16671 17.2803C5.31983 17.2803 6.08025 17.6459 6.46671 18.0157L6.22192 18.374C5.75108 18.498 5.06775 18.6074 4.16671 18.6074ZM12.5 19.7917C10.2469 19.7917 8.85317 19.4667 8.14171 19.2074C8.68442 18.5011 10.1396 17.7084 12.5 17.7084C14.7594 17.7084 16.2396 18.5011 16.8209 19.1928C16.0344 19.474 14.5688 19.7917 12.5 19.7917ZM20.8334 18.6074C19.8813 18.6074 19.223 18.5001 18.7782 18.3855C18.7007 18.2498 18.6144 18.1193 18.5198 17.9949C18.8907 17.6355 19.6355 17.2813 20.8334 17.2813C22.2125 17.2813 23.0636 17.8032 23.3375 18.2303C22.9313 18.4001 22.0823 18.6074 20.8334 18.6074ZM4.16671 15.6251C4.85738 15.6251 5.51976 15.3507 6.00813 14.8623C6.49651 14.374 6.77087 13.7116 6.77087 13.0209C6.77087 12.3302 6.49651 11.6679 6.00813 11.1795C5.51976 10.6911 4.85738 10.4167 4.16671 10.4167C3.47604 10.4167 2.81366 10.6911 2.32528 11.1795C1.83691 11.6679 1.56254 12.3302 1.56254 13.0209C1.56254 13.7116 1.83691 14.374 2.32528 14.8623C2.81366 15.3507 3.47604 15.6251 4.16671 15.6251ZM4.16671 11.4584C5.02817 11.4584 5.72921 12.1595 5.72921 13.0209C5.72921 13.8824 5.02817 14.5834 4.16671 14.5834C3.30525 14.5834 2.60421 13.8824 2.60421 13.0209C2.60421 12.1595 3.30525 11.4584 4.16671 11.4584Z" fill="black"/>
</svg>
