<svg width="25" height="25" viewBox="0 0 25 25" fill="none" xmlns="http://www.w3.org/2000/svg">
<path fill-rule="evenodd" clip-rule="evenodd" d="M12.4999 1.302C10.3589 1.302 8.3055 2.15254 6.79153 3.6665C5.27756 5.18047 4.42703 7.23385 4.42703 9.37492V10.1083C4.42697 10.8342 4.21204 11.5439 3.80932 12.1478L2.61453 13.9426C1.22494 16.026 2.28536 18.8572 4.70099 19.5155C5.48745 19.7301 6.28119 19.9114 7.08015 20.0603L7.08224 20.0655C7.88224 22.203 10.0229 23.6978 12.4999 23.6978C14.977 23.6978 17.1177 22.203 17.9187 20.0655L17.9208 20.0603C18.721 19.9115 19.5147 19.7297 20.2999 19.5155C22.7156 18.8572 23.776 16.026 22.3864 13.9426L21.1906 12.1478C20.7879 11.5439 20.5729 10.8342 20.5729 10.1083V9.37492C20.5729 7.23385 19.7223 5.18047 18.2084 3.6665C16.6944 2.15254 14.641 1.302 12.4999 1.302ZM16.0166 20.351C13.6801 20.6301 11.3187 20.6301 8.98224 20.351C9.72286 21.4145 11.0114 22.1353 12.4999 22.1353C13.9885 22.1353 15.276 21.4145 16.0166 20.351ZM5.98953 9.37492C5.98953 7.64825 6.67545 5.9923 7.89639 4.77136C9.11733 3.55042 10.7733 2.8645 12.4999 2.8645C14.2266 2.8645 15.8826 3.55042 17.1035 4.77136C18.3244 5.9923 19.0104 7.64825 19.0104 9.37492V10.1083C19.0104 11.1426 19.3166 12.1541 19.8906 13.0145L21.0864 14.8093C21.2717 15.0868 21.3884 15.4044 21.4267 15.7359C21.4651 16.0673 21.4241 16.4032 21.307 16.7157C21.19 17.0282 21.0004 17.3084 20.7537 17.5331C20.5071 17.7579 20.2105 17.9207 19.8885 18.0083C15.0508 19.3276 9.94806 19.3276 5.11036 18.0083C4.78866 17.9205 4.49241 17.7575 4.24603 17.5328C3.99964 17.3081 3.81015 17.0281 3.69317 16.7158C3.5762 16.4035 3.53508 16.0679 3.5732 15.7366C3.61132 15.4054 3.72759 15.0879 3.91244 14.8103L5.11036 13.0145C5.68384 12.1538 5.98974 11.1425 5.98953 10.1083V9.37492Z" fill="black"/>
<circle cx="17.5" cy="4.5" r="4.5" fill="black"/>
</svg>
