<svg width="30" height="30" viewBox="0 0 30 30" fill="none" xmlns="http://www.w3.org/2000/svg">
<g clip-path="url(#clip0_85_215)">
<rect width="30" height="30" fill="black"/>
<path d="M15 11.25C12.9325 11.25 11.25 12.9325 11.25 15C11.25 17.0675 12.9325 18.75 15 18.75C17.0675 18.75 18.75 17.0675 18.75 15C18.75 12.9325 17.0675 11.25 15 11.25ZM15 17.5C13.6213 17.5 12.5 16.3787 12.5 15C12.5 13.6213 13.6213 12.5 15 12.5C16.3787 12.5 17.5 13.6213 17.5 15C17.5 16.3787 16.3787 17.5 15 17.5ZM9.375 7.5C7.65125 7.5 6.25 8.90125 6.25 10.625V19.375C6.25 21.0987 7.65125 22.5 9.375 22.5H20.625C22.3487 22.5 23.75 21.0987 23.75 19.375V10.625C23.75 8.90125 22.3487 7.5 20.625 7.5H19.0912L18.0375 5.86125C17.6912 5.32125 17.1025 5 16.46 5H13.5375C12.895 5 12.3075 5.3225 11.96 5.86L10.9062 7.5H9.3725H9.375ZM22.5 10.625V19.375C22.5 20.4088 21.6588 21.25 20.625 21.25H9.375C8.34125 21.25 7.5 20.4088 7.5 19.375V10.625C7.5 9.59125 8.34125 8.75 9.375 8.75H20.625C21.6588 8.75 22.5 9.59125 22.5 10.625ZM13.0138 6.53625C13.1287 6.3575 13.325 6.25 13.5388 6.25H16.4613C16.675 6.25 16.8713 6.3575 16.9862 6.53625L17.605 7.5H12.395L13.0138 6.53625ZM10 29.375C10 29.72 9.72 30 9.375 30H5.625C2.52375 30 0 27.4762 0 24.375V20.625C0 20.28 0.28 20 0.625 20C0.97 20 1.25 20.28 1.25 20.625V24.375C1.25 26.7875 3.2125 28.75 5.625 28.75H9.375C9.72 28.75 10 29.03 10 29.375ZM30 20.625V24.375C30 27.4762 27.4762 30 24.375 30H20.625C20.28 30 20 29.72 20 29.375C20 29.03 20.28 28.75 20.625 28.75H24.375C26.7875 28.75 28.75 26.7875 28.75 24.375V20.625C28.75 20.28 29.03 20 29.375 20C29.72 20 30 20.28 30 20.625ZM30 5.625V9.375C30 9.72 29.72 10 29.375 10C29.03 10 28.75 9.72 28.75 9.375V5.625C28.75 3.2125 26.7875 1.25 24.375 1.25H20.625C20.28 1.25 20 0.97 20 0.625C20 0.28 20.28 0 20.625 0H24.375C27.4762 0 30 2.52375 30 5.625ZM0 9.375V5.625C0 2.52375 2.52375 0 5.625 0H9.375C9.72 0 10 0.28 10 0.625C10 0.97 9.72 1.25 9.375 1.25H5.625C3.2125 1.25 1.25 3.2125 1.25 5.625V9.375C1.25 9.72 0.97 10 0.625 10C0.28 10 0 9.72 0 9.375Z" fill="white"/>
</g>
<defs>
<clipPath id="clip0_85_215">
<rect width="30" height="30" fill="white"/>
</clipPath>
</defs>
</svg>
