<svg width="25" height="25" viewBox="0 0 25 25" fill="none" xmlns="http://www.w3.org/2000/svg">
<path d="M9.93021 11.6147C9.57471 11.9707 9.37503 12.4532 9.375 12.9563V15.6251H12.0604C12.5635 15.6251 13.0469 15.4251 13.4031 15.0688L21.3198 7.14799C21.4961 6.97174 21.6359 6.7625 21.7313 6.53221C21.8267 6.30191 21.8758 6.05508 21.8758 5.8058C21.8758 5.55653 21.8267 5.30969 21.7313 5.0794C21.6359 4.8491 21.4961 4.63986 21.3198 4.46361L20.5375 3.68132C20.3612 3.50488 20.1519 3.36491 19.9215 3.26941C19.6911 3.17391 19.4442 3.12476 19.1948 3.12476C18.9454 3.12476 18.6984 3.17391 18.468 3.26941C18.2377 3.36491 18.0283 3.50488 17.8521 3.68132L9.93021 11.6147Z" stroke="black" stroke-width="1.5" stroke-linecap="round" stroke-linejoin="round"/>
<path d="M21.875 12.5C21.875 16.9198 21.875 19.1292 20.5021 20.5021C19.1292 21.875 16.9187 21.875 12.5 21.875C8.08021 21.875 5.87083 21.875 4.49792 20.5021C3.125 19.1292 3.125 16.9187 3.125 12.5C3.125 8.08021 3.125 5.87083 4.49792 4.49792C5.87083 3.125 8.08125 3.125 12.5 3.125" stroke="black" stroke-width="1.5" stroke-linecap="round" stroke-linejoin="round"/>
</svg>
