<svg width="328" height="198" viewBox="0 0 328 198" fill="none" xmlns="http://www.w3.org/2000/svg">
<path d="M135.642 99.3876C134.279 93.3209 135.254 87.7873 138.501 82.6693C139.749 80.703 141.409 79.1553 143.494 78.11C144.176 77.7682 144.961 77.4956 145.431 78.3866C145.905 79.2844 145.254 79.7805 144.559 80.1253C138.324 83.2179 135.872 93.7883 138.178 99.6658C139.796 103.791 143.149 106.142 147.343 106.025C151.751 105.903 154.661 102.241 153.873 97.8638C153.087 93.4974 151.032 90.0634 146.972 88.0276C146.313 87.697 145.655 87.3267 145.082 86.8673C144.426 86.3416 144.345 85.3854 145.132 85.2208C146.88 84.855 146.49 83.6566 146.405 82.5965C146.176 79.7097 146.135 79.5328 149.005 79.3684C154.229 79.0692 158.825 80.3846 161.753 85.2584C162.655 86.7606 164.067 86.9681 165.01 85.5161C167.532 81.6332 171.465 81.0512 175.472 80.9541C177.227 80.9115 178.887 80.1365 180.603 80.4299C186.738 81.4781 190.238 86.3196 191.401 92.8449C191.982 96.1053 191.714 99.3546 190.604 102.488C188.18 109.333 180.36 111.336 174.999 106.396C173.71 105.208 172.475 104.739 170.772 104.772C165.88 104.867 160.985 104.819 156.091 104.791C155.132 104.786 154.378 105.015 153.639 105.7C149.849 109.217 143.635 109.218 139.772 105.752C137.866 104.041 136.478 101.977 135.642 99.3876ZM174.946 90.0895C175.588 89.4734 176.621 89.2211 176.816 88.1909C177.071 86.8445 177.275 85.488 177.486 84.1334C177.632 83.1914 177.018 82.8324 176.273 82.8819C172.718 83.1179 169.116 83.0453 166.716 86.5967C164.805 89.4241 161.827 89.2464 160.08 86.3551C157.649 82.3303 153.923 81.2174 149.575 81.3601C149.182 81.373 148.771 81.3879 148.51 81.7756C148.035 82.4816 148.644 86.301 149.407 86.7743C152.914 88.951 154.851 92.2085 155.853 96.1145C156.031 96.8088 156.402 97.2016 157.041 97.4309C158.863 98.0848 160.326 99.2538 161.508 100.76C162.507 102.032 163.595 102.16 164.665 101.012C166.17 99.4004 168.02 98.4972 170.094 97.9576C170.874 97.7546 171.336 97.3825 171.443 96.4589C171.73 93.9724 172.908 91.9167 174.946 90.0895ZM176.422 104.74C181.887 108.753 187.366 106.779 188.84 100.207C189.512 97.2108 189.538 94.136 188.688 91.1962C187.596 87.4232 185.533 84.3344 181.557 83.0301C180.91 82.8177 179.999 82.4601 179.749 83.2676C179.284 84.7721 178.573 86.514 179.297 87.9323C180.188 89.6763 179.321 90.0979 178.121 90.7676C172.921 93.6683 172.031 100.323 176.422 104.74ZM167.702 100.991C167.251 101.378 166.564 101.529 166.437 102.252C167.967 102.676 170.49 102.656 171.876 102.201C171.776 101.377 171.723 100.538 171.135 99.8329C169.962 99.9243 168.94 100.405 167.702 100.991ZM159.173 101.084C158.35 100.426 157.587 99.6586 156.386 99.4437C156.239 100.455 156.112 101.336 155.974 102.288C157.34 102.694 158.588 102.607 159.817 102.393C159.939 101.797 159.576 101.556 159.173 101.084Z" fill="black"/>
<path d="M175.033 77.7254C177.849 72.8083 176.651 68.1561 171.931 65.2438C166.34 61.7945 159.042 62.5067 154.977 66.9299C153.007 69.0729 152.129 71.6986 151.808 74.5497C151.672 75.7678 151.979 76.3971 153.411 76.5106C155.859 76.7046 158.237 77.3416 160.283 78.8302C160.739 79.1622 161.155 79.5669 161.529 79.9918C161.857 80.3645 161.949 80.8422 161.529 81.2166C161.191 81.5176 160.75 81.4763 160.433 81.1825C157.493 78.4523 153.88 77.9808 150.107 78.0271C149.472 78.0349 148.747 77.8086 149.105 77.0957C149.867 75.5752 149.475 73.9457 149.81 72.386C151.141 66.1862 155.254 62.1086 161.523 61.0004C167.881 59.8764 174.248 62.4785 177.33 67.4657C178.96 70.1028 179.187 72.9269 178.433 75.8843C178.206 76.7751 177.638 77.5281 178.184 78.6359C178.608 79.4947 177.566 79.6822 176.887 79.6806C174.942 79.6761 173.038 79.9483 171.144 80.3604C169.686 80.6774 168.298 81.1437 167.036 81.9658C166.52 82.3014 165.889 82.8004 165.439 81.9884C165.027 81.2443 165.697 80.8403 166.225 80.5158C168.608 79.0517 171.264 78.4692 173.99 78.1138C174.315 78.0713 174.628 77.9231 175.033 77.7254Z" fill="black"/>
<path d="M209.8 132.554C210.547 132.033 211.186 131.553 212.066 131.71C211.192 133.789 211.329 134.294 213.251 135.802C214.591 136.855 216.134 137.656 217.205 139.04C218.11 140.209 218.413 141.544 217.876 142.912C217.385 144.164 216.334 144.774 214.755 144.889C215.971 142.841 214.621 141.909 213.377 140.999C211.488 139.615 209.493 138.354 208.672 136.028C204.739 136.417 203.863 135.907 202.157 132.178C201.255 130.205 200.477 128.173 199.546 126.214C197.962 122.883 197.242 122.489 193.803 122.779C194.48 121.269 196.623 120.404 198.473 120.895C200.373 121.4 201.57 122.733 202.491 124.378C203.527 126.226 204.347 128.172 205.058 130.167C205.287 130.812 205.544 131.452 205.843 132.067C207.229 134.916 207.766 134.99 209.8 132.554Z" fill="black"/>
<path d="M104.191 135.633C104.193 137.349 104.183 138.894 104.2 140.438C104.216 141.901 103.96 143.426 105.506 144.83C103.196 145.121 101.339 145.052 99.0833 144.913C100.581 143.526 100.389 142.024 100.388 140.562C100.387 137.302 100.408 134.041 100.382 130.781C100.369 129.211 100.712 127.574 99.2953 126.02C101.413 126.02 103.138 126.02 104.981 126.02C103.555 129.12 104.43 132.331 104.191 135.633Z" fill="black"/>
<path d="M189.136 124.966C189.538 124.881 189.823 124.853 190.097 124.78C193.082 123.982 193.091 123.98 193.096 127.019C193.103 131.543 193.091 136.067 193.098 140.591C193.1 141.998 192.901 143.45 194.204 144.847C192.12 145.096 190.37 145.053 188.196 144.92C189.726 143.474 189.522 141.918 189.52 140.402C189.516 136.737 189.521 133.073 189.512 129.408C189.509 128.161 189.681 126.884 188.635 125.867C188.185 125.431 188.642 125.186 189.136 124.966Z" fill="black"/>
<path d="M112.789 134.487C112.644 132.853 112.422 131.388 111.859 129.999C111.257 128.514 110.681 127.933 108.287 126.317C109.876 125.694 112.997 126.868 114.785 128.76C117.281 131.401 117.913 136.155 116.258 139.836C114.923 142.807 111.367 144.955 107.359 144.785C112.61 142.847 113.035 138.895 112.789 134.487Z" fill="black"/>
<path d="M183.064 57.468C183.512 58.2505 183.718 58.9855 183.41 59.7135C182.793 61.1679 183.614 61.917 184.789 61.974C188.25 62.1422 189.007 64.3771 188.897 67.2789C188.828 69.1078 189.113 70.5819 191.179 71.0897C191.654 71.2066 192.223 71.5026 191.936 72.181C191.709 72.7184 191.176 72.5693 190.732 72.5039C188.857 72.228 187.553 70.8528 187.266 68.786C187.173 68.1107 187.202 67.4166 187.196 66.7309C187.173 64.2418 186.998 64.0249 184.593 63.5899C184.426 63.5596 184.188 63.611 184.096 63.5148C182.608 61.9692 180.418 61.9693 178.699 61.0215C176.223 59.656 175.089 57.3008 175.168 54.43C175.187 53.7205 175.008 52.7109 175.979 52.6032C177.16 52.4722 176.494 53.7328 176.915 54.2683C177.459 53.8535 177.949 53.3672 178.532 53.0555C180.305 52.1077 182.306 53.3317 182.156 55.3444C182.087 56.2634 182.252 56.88 183.064 57.468ZM179.143 54.512C178.869 54.7927 178.553 55.0431 178.329 55.3591C177.001 57.2331 177.83 59.3922 180.079 60.0078C180.775 60.1983 181.299 59.973 181.727 59.4516C181.958 59.1697 182.047 58.8066 181.785 58.5153C181.318 57.9952 180.866 58.4208 180.407 58.5943C180.025 58.7389 179.613 58.8111 179.347 58.3899C179.102 58.0017 179.258 57.6381 179.489 57.2845C179.798 56.8106 180.135 56.3441 180.365 55.831C180.813 54.8277 180.507 54.2938 179.143 54.512Z" fill="black"/>
<path d="M186.817 144.785C183.195 145.476 181.749 144.314 181.714 140.794C181.698 139.081 181.735 137.367 181.748 135.654C181.758 134.334 181.786 133.008 180.386 131.927C182.57 131.215 183.833 129.73 184.915 127.601C185.499 128.943 185.089 130.004 185.37 130.935C185.785 132.31 187.084 131.282 187.851 131.733C187.971 132.369 187.415 132.35 187.118 132.498C185.848 133.13 185.317 134.193 185.3 135.55C185.277 137.378 185.288 139.206 185.3 141.033C185.31 142.592 185.692 143.888 187.547 143.967C187.599 144.513 187.247 144.605 186.817 144.785Z" fill="black"/>
<path d="M199.548 139.56C199.835 143.765 201.521 144.747 205.919 143.422C205.129 144.992 202.451 145.584 199.791 144.775C196.869 143.887 195.076 141.056 195.416 137.867C195.792 134.345 197.994 131.966 201.277 131.706C200.554 132.977 199.712 134.076 199.452 135.503C199.195 136.917 199.726 137.272 200.963 137.182C202.156 137.095 203.366 136.735 204.805 137.338C203.008 138.372 200.597 137.219 199.548 139.56Z" fill="black"/>
<path d="M228.759 140.72C229.093 143.311 228.162 144.519 225.654 144.748C226.638 142.763 225.306 141.82 223.99 140.875C222.512 139.814 220.937 138.857 219.982 137.222C218.476 134.644 219.75 132.085 222.682 131.774C221.989 133.964 222.241 134.576 224.437 136.152C226.13 137.368 228.113 138.308 228.759 140.72Z" fill="black"/>
<path d="M125.662 134.983C126.253 132.648 127.002 131.948 129.053 131.82C127.819 133.799 129.07 134.899 130.43 135.941C131.513 136.771 132.701 137.481 133.692 138.407C134.916 139.551 135.588 141.025 134.987 142.733C134.542 143.997 133.592 144.73 131.954 144.801C132.966 143.008 131.936 142.023 130.795 141.116C129.772 140.302 128.678 139.578 127.669 138.748C126.537 137.818 125.73 136.666 125.662 134.983Z" fill="black"/>
<path d="M150.082 142.606C150.014 143.601 150.943 143.913 151.181 144.862C149.25 145.132 147.401 145.049 145.659 144.922C146.802 140.828 146.956 136.955 145.57 132.822C146.424 132.187 147.825 132.135 149.09 131.795C150.136 131.515 150.026 132.536 150.033 133.181C150.066 136.274 150.064 139.368 150.082 142.606Z" fill="black"/>
<path d="M119.478 141.384C119.478 139.794 119.445 138.362 119.485 136.933C119.525 135.492 119.557 134.077 118.023 132.91C119.749 132.43 121.192 132.029 122.555 131.65C123.257 132.268 123.044 132.94 123.051 133.535C123.08 136.11 123.096 138.687 123.061 141.261C123.044 142.485 123.064 143.66 124.425 144.804C122.232 144.804 120.434 144.804 118.485 144.804C119.066 143.778 119.721 142.778 119.478 141.384Z" fill="black"/>
<path d="M169.599 142.653C167.603 139.232 167.987 135.446 170.525 133.15C171.487 132.28 172.566 131.586 174.218 131.819C171.792 134.656 171.851 137.822 172.595 140.986C173.37 144.284 175.562 145.075 178.502 143.34C178.731 143.206 178.973 143.096 179.319 142.918C177.996 145.928 172.57 145.752 169.599 142.653Z" fill="black"/>
<path d="M162.501 135.694C162.523 134.277 162.601 133.012 161.689 131.97C163.615 131.099 165.265 131.898 165.788 133.878C166.46 136.42 165.923 139.01 166.052 141.574C166.103 142.606 165.999 143.721 167.567 144.005C166.387 145.26 165.063 145.269 163.843 144.906C162.63 144.546 162.484 143.366 162.495 142.213C162.517 140.094 162.501 137.975 162.501 135.694Z" fill="black"/>
<path d="M142.131 143.634C142.863 143.975 143.602 143.61 144.207 144.043C142.522 145.623 139.915 145.388 138.221 143.495C137.061 142.199 136.452 140.581 135.73 139.031C135.128 137.739 134.513 136.453 133.904 135.163C133.228 133.731 132.124 132.692 130.763 131.843C132.36 131.127 134.499 131.722 135.956 133.207C137.395 134.675 138.032 136.587 138.833 138.412C139.653 140.281 140.257 142.292 142.131 143.634Z" fill="black"/>
<path d="M144.602 131.65C145.209 132.302 144.555 132.28 144.271 132.404C142.773 133.061 142.188 134.24 142.228 135.83C142.288 138.156 142.12 140.484 142.247 142.865C139.408 139.751 138.94 135.647 137.692 131.641C139.672 131.317 140.698 129.591 141.827 127.76C142.829 129.169 141.009 132.357 144.602 131.65Z" fill="black"/>
<path d="M158.877 141.431C158.866 142.956 159.475 143.853 160.965 144.037C159.794 145.239 157.802 145.391 156.449 144.485C155.088 143.574 154.577 141.821 155.208 140.233C155.917 138.452 158.416 137.173 160.637 137.547C159.706 138.667 158.648 139.696 158.877 141.431Z" fill="black"/>
<path d="M120.258 129.418C119.088 128.638 118.562 127.71 119.192 126.455C119.643 125.559 120.429 125.11 121.435 125.287C122.514 125.477 123.106 126.207 123.217 127.286C123.368 128.754 122.214 129.626 120.258 129.418Z" fill="black"/>
<path d="M153.452 131.631C155.82 132.034 155.938 132.192 155.095 134.24C154.782 135.003 154.718 135.918 153.91 136.553C153.153 135.383 152.994 133.448 150.748 134.314C151.172 132.757 151.931 131.88 153.452 131.631Z" fill="black"/>
<path d="M179.781 133.69C179.713 134.847 179.948 135.87 179.53 137.314C178.3 135.245 177.865 132.991 175.816 131.855C177.114 131.567 178.131 132.168 179.25 132.158C180.032 132.151 179.706 133.025 179.781 133.69Z" fill="black"/>
<path d="M208.675 144.412C208.585 142.912 208.585 141.522 208.585 139.71C209.971 141.53 210.447 143.73 212.551 144.59C211.182 145.183 209.982 144.594 208.675 144.412Z" fill="black"/>
<path d="M220.732 144.706C219.74 144.782 219.17 144.592 219.231 143.524C219.295 142.421 219.245 141.312 219.433 140.155C220.753 141.666 221.326 143.677 223.503 144.575C222.352 145.248 221.61 144.725 220.732 144.706Z" fill="black"/>
<path d="M217.622 132.659C217.639 134.028 217.639 135.244 217.639 136.46C216.239 135.048 215.815 133.017 214.044 131.883C215.294 131.969 216.61 131.163 217.622 132.659Z" fill="black"/>
<path d="M225.836 131.708C228.55 131.972 228.823 132.514 228.162 136.589C227.092 134.96 226.486 132.97 224.657 132.04C225.047 131.411 225.396 131.683 225.836 131.708Z" fill="black"/>
<path d="M128.514 143.773C128.912 144.131 129.475 144.208 129.384 144.982C128.227 144.862 127.074 144.742 125.725 144.602C125.545 143.145 125.513 141.684 125.777 139.988C126.936 141.222 127.203 142.815 128.514 143.773Z" fill="black"/>
<path d="M163.448 69.2002C162.466 68.6598 162.298 67.9478 162.823 67.1616C163.33 66.4044 164.056 66.0053 164.999 66.3848C165.682 66.6595 165.929 67.2268 165.755 67.8939C165.466 68.9998 164.664 69.3861 163.448 69.2002Z" fill="black"/>
<path d="M169.718 69.1888C168.501 68.113 168.808 67.2167 169.924 66.5375C170.514 66.1782 171.241 66.2028 171.827 66.6876C172.338 67.1095 172.37 67.6767 172.076 68.2228C171.596 69.1173 170.854 69.5167 169.718 69.1888Z" fill="black"/>
<path d="M156.63 136.177C156.262 134.797 156.435 133.462 156.579 132.013C157.61 132.077 158.548 132.137 159.766 132.213C158.667 133.664 157.702 134.936 156.63 136.177Z" fill="black"/>
<path d="M159.43 91.6525C159.426 90.9133 159.402 90.3414 159.425 89.7714C159.449 89.1727 159.276 88.3579 160.208 88.3608C160.991 88.3632 160.951 89.0966 160.971 89.653C161.065 92.2192 161.153 94.7859 161.209 97.3531C161.222 97.9713 161.209 98.7763 160.346 98.7418C159.549 98.7098 159.488 97.9453 159.478 97.3025C159.451 95.4753 159.445 93.6479 159.43 91.6525Z" fill="black"/>
<path d="M165.383 98.4324C164.498 96.3862 165.056 94.3272 164.911 92.3078C164.842 91.346 164.906 90.3733 164.935 89.4063C164.948 88.9749 165.135 88.6116 165.619 88.585C166.099 88.5587 166.392 88.8929 166.394 89.3182C166.413 92.1621 166.41 95.0065 166.37 97.8501C166.363 98.2813 165.993 98.5276 165.383 98.4324Z" fill="black"/>
</svg>
