<svg width="26" height="26" viewBox="0 0 26 26" fill="none" xmlns="http://www.w3.org/2000/svg">
<path d="M7.48087 8.41592L3.26706 12.5349M3.26706 12.5349L7.38604 16.7487M3.26706 12.5349L17.8494 12.7008M11.6473 8.46333L11.6591 7.42173C11.6685 6.59299 12.0068 5.80193 12.5995 5.22258C13.1922 4.64324 13.9907 4.32306 14.8195 4.3325L18.9859 4.37991C19.8146 4.38934 20.6057 4.7276 21.185 5.32028C21.7644 5.91297 22.0845 6.71152 22.0751 7.54027L21.9566 17.9563C21.9471 18.785 21.6089 19.5761 21.0162 20.1554C20.4235 20.7348 19.625 21.0549 18.7962 21.0455L14.6298 20.9981C13.8011 20.9887 13.01 20.6504 12.4307 20.0577C11.8513 19.465 11.5312 18.6665 11.5406 17.8377L11.5524 16.7961" stroke="black" stroke-width="2" stroke-linecap="round" stroke-linejoin="round"/>
</svg>
