<svg width="108" height="187" viewBox="0 0 108 187" fill="none" xmlns="http://www.w3.org/2000/svg">
<g clip-path="url(#clip0_289_1360)">
<path d="M15.1096 186.576C15.1096 186.811 15.2981 187 15.5328 187H107.577C107.812 187 108 186.811 108 186.576C108 186.341 107.812 186.153 107.577 186.153H15.5328C15.2981 186.153 15.1096 186.341 15.1096 186.576Z" fill="#484565"/>
<path d="M63.514 0.117391C63.514 0.117391 55.7228 -1.77247 51.0075 9.64499C47.0781 19.1619 44.2902 24.2442 47.4799 27.6965C48.6214 28.9315 50.2501 29.5971 51.9285 29.654L69.8864 30.2448C69.8864 30.2448 76.4793 12.9407 72.4717 6.68385C68.464 0.42347 63.514 0.117391 63.514 0.117391Z" fill="#2F2E41"/>
<path d="M67.2338 28.8069L58.5962 31.6506V19.2046H66.4337L67.2338 28.8069Z" fill="#F6A6A9"/>
<path d="M60.6052 179.622H52.5117L47.8213 136.351H60.3278L60.6052 179.622Z" fill="#F6A6A9"/>
<path d="M44.6317 186.577C43.7818 186.577 43.0244 186.555 42.4518 186.502C40.3005 186.306 38.2522 184.719 37.2209 183.79C36.7587 183.373 36.6093 182.708 36.8511 182.135C37.0254 181.722 37.3703 181.416 37.797 181.295L43.476 179.672L52.6719 173.461L52.775 173.646C52.8141 173.714 53.7173 175.344 54.0196 176.444C54.1334 176.864 54.1049 177.213 53.9307 177.48C53.8098 177.668 53.6427 177.775 53.504 177.836C53.6711 178.01 54.1938 178.362 55.7976 178.618C58.1446 178.992 58.6353 176.558 58.6566 176.455L58.6709 176.373L58.742 176.326C59.8586 175.608 60.5449 175.28 60.7831 175.348C60.9325 175.39 61.1779 175.465 61.8428 182.092C61.9104 182.299 62.3762 183.825 62.0598 185.281C61.7148 186.868 54.7912 186.32 53.4044 186.196C53.3653 186.199 48.1806 186.569 44.6281 186.569V186.577H44.6317Z" fill="#2F2E41"/>
<path d="M78.8833 179.622H70.7933L66.0994 136.351H78.6059L78.8833 179.622Z" fill="#F6A6A9"/>
<path d="M62.9132 186.577C62.0633 186.577 61.3059 186.555 60.7333 186.502C58.5819 186.306 56.5337 184.719 55.5024 183.79C55.0401 183.373 54.8908 182.708 55.1326 182.135C55.3068 181.722 55.6518 181.416 56.0785 181.295L61.7575 179.672L70.9534 173.461L71.0565 173.646C71.0956 173.714 71.9988 175.344 72.3011 176.444C72.4149 176.864 72.3864 177.213 72.2122 177.48C72.0913 177.668 71.9241 177.775 71.7855 177.836C71.9526 178.01 72.4753 178.362 74.0791 178.618C76.4261 178.992 76.9168 176.558 76.9381 176.455L76.9524 176.373L77.0235 176.326C78.1401 175.608 78.8264 175.28 79.0646 175.348C79.214 175.39 79.4594 175.465 80.1243 182.092C80.1919 182.299 80.6577 183.825 80.3413 185.281C79.9963 186.868 73.0727 186.32 71.6859 186.196C71.6468 186.199 66.4621 186.569 62.9096 186.569V186.577H62.9132Z" fill="#2F2E41"/>
<path d="M81.2124 73.3414H41.897L56.0286 26.7925H71.7036L81.2124 73.3414Z" fill="#DDDEDF"/>
<path d="M40.8268 99.4615C40.3574 102.312 38.4585 104.359 36.5844 104.028C34.7104 103.697 33.5689 101.12 34.0383 98.2692C34.209 97.1268 34.6606 96.0484 35.3541 95.1195L37.4948 83.0649L43.3231 84.2857L40.5921 96.0377C40.9512 97.1481 41.033 98.3226 40.8303 99.4615H40.8268Z" fill="#F6A6A9"/>
<path d="M58.5037 26.7998C58.5037 26.7998 48.7388 26.5436 47.7111 29.1132C46.6834 31.6864 34.6072 92.8951 34.6072 92.8951H42.5727L58.5037 26.7998Z" fill="#DDDEDF"/>
<path d="M60.5769 22.1446C65.3316 22.1446 69.186 18.2868 69.186 13.5281C69.186 8.76935 65.3316 4.91162 60.5769 4.91162C55.8222 4.91162 51.9678 8.76935 51.9678 13.5281C51.9678 18.2868 55.8222 22.1446 60.5769 22.1446Z" fill="#F6A6A9"/>
<path d="M61.9283 2.96108C61.9283 2.96108 50.8761 19.4146 52.7359 29.6789L46.3066 25.6465C46.3066 25.6465 50.8335 4.86873 57.5792 3.25648L61.9283 2.95752V2.96108Z" fill="#2F2E41"/>
<path d="M73.0409 73.3416H47.2419L33.1245 131.329C32.8649 133.778 34.4153 136.063 36.7943 136.7C44.5393 138.775 63.1231 141.718 91.2548 133.525C93.9609 132.739 95.4972 129.881 94.6473 127.19L73.0409 73.3451V73.3416Z" fill="#2F2E41"/>
<path d="M38.2451 35.0496L38.0673 34.8716L37.8895 35.0496C29.2377 26.3975 15.2163 26.4082 6.57161 35.0674C-2.07309 43.7301 -2.24733 57.9379 6.40447 66.59L38.0886 98.2691L69.7515 66.5508C78.3962 57.8881 78.2148 43.6803 69.5666 35.0282C60.9148 26.3762 46.8934 26.3868 38.2487 35.046L38.2451 35.0496Z" fill="#4B59AA"/>
<path d="M61.6436 31.1488L68.7912 27.4794C72.0591 26.2693 75.7041 26.6751 78.6271 28.5792C87.5172 34.3662 105.041 47.1254 97.5096 53.4321C87.5847 61.746 74.1679 47.0009 74.1679 47.0009L61.6436 31.1488Z" fill="#DDDEDF"/>
<path d="M61.4873 37.4199C59.0016 35.9536 57.7819 33.4409 58.7669 31.8073C59.7519 30.1772 62.5647 30.0455 65.0539 31.5119C66.0567 32.0849 66.8995 32.8964 67.5112 33.8787L77.9659 40.2351L74.7228 45.232L64.7588 38.4342C63.5924 38.3666 62.4687 38.0178 61.4837 37.4164H61.4873V37.4199Z" fill="#F6A6A9"/>
<path d="M68.592 43.1821L71.5649 36.0747L86.0912 40.8866L79.5944 51.7096L68.592 43.1821Z" fill="#DDDEDF"/>
</g>
<defs>
<clipPath id="clip0_289_1360">
<rect width="108" height="187" fill="white"/>
</clipPath>
</defs>
</svg>
