<svg width="349" height="244" viewBox="0 0 349 244" fill="none" xmlns="http://www.w3.org/2000/svg">
<g clip-path="url(#clip0_305_184)">
<path d="M165.204 241.335H0V242.035H165.204V241.335Z" fill="#3F3D56"/>
<path d="M41.9951 238.896H46.6921L48.9269 221.243H41.9944L41.9951 238.896Z" fill="#FFB8B8"/>
<path d="M55.7514 243.145L40.9886 243.146L40.9884 237.589L50.0473 237.588C51.5601 237.588 53.0109 238.173 54.0806 239.216C55.1503 240.258 55.7513 241.671 55.7514 243.145Z" fill="#2F2E41"/>
<path d="M17.0035 238.016L21.6598 238.621L26.2698 221.411L19.3981 220.518L17.0035 238.016Z" fill="#FFB8B8"/>
<path d="M30.0627 244L15.4294 242.099L16.1833 236.59L25.1628 237.757C26.6622 237.952 28.0209 238.719 28.9398 239.89C29.8587 241.06 30.2626 242.539 30.0627 244Z" fill="#2F2E41"/>
<path d="M23.6767 165.988L50.1135 167.108L48.9641 232.437L42.0675 231.69L36.7035 187.267L24.0598 234.677L17.1633 233.557L23.6767 165.988Z" fill="#2F2E41"/>
<path d="M41.3014 127.164L32.1059 125.333L26.3588 166.361C26.3588 166.361 43.2171 177.187 48.5811 165.988L41.3014 127.164Z" fill="#4B59AA"/>
<path d="M37.2904 122.345C42.4876 122.345 46.7008 118.24 46.7008 113.176C46.7008 108.113 42.4876 104.008 37.2904 104.008C32.0932 104.008 27.8801 108.113 27.8801 113.176C27.8801 118.24 32.0932 122.345 37.2904 122.345Z" fill="#FFB8B8"/>
<path d="M32.1059 124.924L18.696 129.03C18.696 129.03 25.2094 160.762 14.4814 177.187C14.4814 177.187 27.8914 191 33.6385 160.015C33.6385 160.015 38.2362 135.003 32.1059 124.924Z" fill="#2F2E41"/>
<path d="M41.3014 127.164L51.2631 133.137C51.2631 133.137 56.6271 176.814 51.2631 180.92C45.8991 185.027 41.3014 127.164 41.3014 127.164Z" fill="#2F2E41"/>
<path d="M55.4047 187.254C54.9965 186.876 54.6782 186.415 54.4724 185.905C54.2667 185.394 54.1784 184.845 54.2137 184.297C54.2491 183.75 54.4073 183.216 54.6771 182.735C54.947 182.253 55.322 181.835 55.7757 181.509L51.7256 168.766L58.5581 170.7L61.3566 182.505C61.8668 183.283 62.0661 184.218 61.9167 185.13C61.7673 186.042 61.2795 186.87 60.5459 187.455C59.8122 188.041 58.8837 188.344 57.9361 188.307C56.9886 188.269 56.0879 187.895 55.4047 187.254Z" fill="#FFB8B8"/>
<path d="M20.9893 183.569C20.5347 183.245 20.1586 182.828 19.8874 182.347C19.6161 181.866 19.4565 181.332 19.4196 180.785C19.3827 180.237 19.4695 179.688 19.6739 179.177C19.8782 178.666 20.1952 178.204 20.6024 177.825L14.9114 165.692L21.9417 166.757L26.2682 178.116C26.8765 178.825 27.1969 179.726 27.1686 180.65C27.1403 181.573 26.7652 182.455 26.1146 183.127C25.4639 183.799 24.5827 184.215 23.6381 184.297C22.6935 184.378 21.751 184.119 20.9893 183.569Z" fill="#FFB8B8"/>
<path d="M22.1441 129.404L18.6958 129.031L9.88354 157.029L18.6958 176.441L25.5924 172.334L17.9295 156.282L24.0598 139.11L22.1441 129.404Z" fill="#2F2E41"/>
<path d="M49.3472 132.764L51.263 133.137L60.4584 176.814L54.3281 178.681L47.0484 152.922L49.3472 132.764Z" fill="#2F2E41"/>
<path d="M30.824 116.941C30.9509 116.04 31.3157 115.187 31.8829 114.465C32.45 113.742 33.2 113.176 34.0593 112.821C35.8707 112.098 37.914 112.403 39.8666 112.542C41.8192 112.68 43.993 112.56 45.4021 111.236C46.6893 110.026 46.9788 108.018 46.3572 106.384C45.7356 104.75 44.328 103.482 42.7291 102.701C41.0996 101.973 39.3538 101.524 37.5679 101.372C34.9583 101.065 32.2786 101.026 29.7351 101.672C27.1917 102.319 27.8475 103.705 26.357 105.814C24.8666 107.924 24.4201 110.798 25.5564 113.107C26.3168 114.653 27.6794 115.822 29.0062 116.947" fill="#2F2E41"/>
<path d="M241.318 218.126L241.318 217.427C242.746 217.426 244.195 217.398 245.627 217.342L245.656 218.041C244.215 218.097 242.755 218.126 241.318 218.126ZM236.981 218.045C235.545 217.991 234.088 217.907 232.651 217.797L232.708 217.099C234.135 217.209 235.583 217.292 237.009 217.346L236.981 218.045ZM249.986 217.787L249.929 217.09C251.354 216.979 252.796 216.838 254.216 216.67L254.302 217.365C252.873 217.534 251.421 217.675 249.986 217.787ZM228.334 217.379C226.902 217.212 225.457 217.015 224.038 216.793L224.152 216.102C225.561 216.323 226.997 216.519 228.419 216.684L228.334 217.379ZM258.597 216.775L258.482 216.084C259.891 215.862 261.317 215.608 262.721 215.33L262.865 216.015C261.451 216.296 260.015 216.551 258.597 216.775ZM219.77 216.039C218.356 215.76 216.932 215.449 215.536 215.117L215.707 214.437C217.093 214.768 218.508 215.076 219.912 215.353L219.77 216.039ZM267.097 215.088L266.926 214.409C268.316 214.075 269.717 213.71 271.088 213.323L271.288 213.995C269.907 214.385 268.497 214.753 267.097 215.088ZM211.344 214.028C209.959 213.638 208.565 213.217 207.201 212.774L207.428 212.11C208.783 212.55 210.168 212.969 211.543 213.355L211.344 214.028ZM275.429 212.737L275.202 212.073C276.558 211.632 277.923 211.157 279.26 210.662L279.516 211.316C278.169 211.815 276.794 212.293 275.429 212.737ZM203.102 211.354C201.755 210.856 200.397 210.325 199.068 209.773L199.349 209.129C200.67 209.677 202.018 210.205 203.357 210.699L203.102 211.354ZM283.528 209.74L283.246 209.096C284.559 208.55 285.877 207.971 287.164 207.374L287.473 208.006C286.177 208.606 284.85 209.19 283.528 209.74ZM195.103 208.034C193.799 207.431 192.491 206.794 191.216 206.141L191.55 205.521C192.816 206.17 194.116 206.803 195.411 207.402L195.103 208.034ZM291.344 206.118L291.01 205.499C292.275 204.851 293.542 204.169 294.776 203.473L295.136 204.079C293.894 204.779 292.618 205.465 291.344 206.118ZM187.411 204.096C186.16 203.391 184.909 202.654 183.695 201.904L184.08 201.313C185.286 202.057 186.527 202.79 187.771 203.491L187.411 204.096ZM298.841 201.892L298.457 201.301C299.661 200.558 300.868 199.779 302.046 198.986L302.454 199.561C301.269 200.36 300.053 201.144 298.841 201.892ZM180.074 199.569C178.886 198.77 177.701 197.937 176.553 197.095L176.984 196.536C178.126 197.372 179.303 198.199 180.482 198.994L180.074 199.569ZM305.969 197.09L305.537 196.531C306.676 195.697 307.816 194.826 308.926 193.942L309.381 194.484C308.263 195.374 307.115 196.251 305.969 197.09ZM173.136 194.485C172.021 193.597 170.909 192.675 169.831 191.744L170.308 191.221C171.379 192.145 172.483 193.061 173.591 193.943L173.136 194.485ZM312.683 191.746L312.207 191.222C313.277 190.298 314.342 189.341 315.373 188.376L315.871 188.881C314.833 189.852 313.76 190.816 312.683 191.746ZM166.642 188.878C165.606 187.908 164.574 186.903 163.574 185.89L164.092 185.405C165.085 186.411 166.11 187.41 167.14 188.373L166.642 188.878ZM318.939 185.893L318.422 185.407C319.412 184.404 320.395 183.366 321.346 182.322L321.883 182.787C320.926 183.838 319.936 184.883 318.939 185.893ZM160.632 182.786C159.674 181.734 158.728 180.652 157.819 179.569L158.375 179.126C159.278 180.202 160.218 181.277 161.169 182.321L160.632 182.786ZM324.698 179.568L324.142 179.126C325.049 178.044 325.945 176.932 326.804 175.821L327.378 176.242C326.513 177.361 325.611 178.48 324.698 179.568ZM155.142 176.247C154.277 175.127 153.423 173.976 152.605 172.824L153.195 172.425C154.008 173.57 154.856 174.714 155.716 175.826L155.142 176.247ZM329.92 172.812L329.329 172.414C330.145 171.265 330.947 170.086 331.712 168.91L332.318 169.285C331.548 170.468 330.741 171.655 329.92 172.812ZM150.21 169.305C149.441 168.122 148.685 166.908 147.964 165.696L148.585 165.345C149.301 166.549 150.052 167.755 150.817 168.93L150.21 169.305ZM334.57 165.666L333.949 165.315C334.668 164.104 335.37 162.865 336.035 161.634L336.67 161.96C336.001 163.2 335.294 164.447 334.57 165.666ZM145.869 162.002C145.2 160.764 144.547 159.495 143.929 158.231L144.578 157.93C145.192 159.186 145.84 160.446 146.504 161.676L145.869 162.002ZM338.616 158.173L337.967 157.872C338.582 156.612 339.179 155.322 339.742 154.037L340.402 154.312C339.836 155.605 339.235 156.904 338.616 158.173ZM142.148 154.388C141.582 153.099 141.037 151.784 140.527 150.48L141.199 150.231C141.705 151.526 142.246 152.833 142.808 154.113L142.148 154.388ZM342.028 150.381L341.356 150.133C341.865 148.824 342.353 147.489 342.806 146.167L343.487 146.389C343.032 147.72 342.54 149.063 342.028 150.381ZM139.067 146.499C138.61 145.169 138.174 143.811 137.773 142.465L138.463 142.27C138.862 143.607 139.294 144.956 139.748 146.277L139.067 146.499ZM344.777 142.352L344.086 142.158C344.483 140.822 344.857 139.458 345.199 138.102L345.896 138.268C345.552 139.634 345.175 141.008 344.777 142.352ZM136.649 138.382C136.304 137.019 135.983 135.632 135.695 134.259L136.399 134.119C136.685 135.483 137.004 136.861 137.346 138.215L136.649 138.382ZM346.845 134.145L346.141 134.005C346.425 132.642 346.685 131.252 346.913 129.875L347.622 129.986C347.392 131.373 347.131 132.772 346.845 134.145ZM134.914 130.101C134.683 128.72 134.479 127.312 134.305 125.917L135.018 125.833C135.19 127.219 135.394 128.617 135.623 129.989L134.914 130.101ZM348.226 125.8L347.512 125.716C347.683 124.331 347.827 122.926 347.94 121.539L348.656 121.594C348.542 122.99 348.397 124.405 348.226 125.8ZM133.869 121.712C133.754 120.314 133.665 118.894 133.607 117.492L134.324 117.464C134.382 118.857 134.47 120.267 134.585 121.655L133.869 121.712ZM348.914 117.376L348.197 117.348C348.253 115.954 348.282 114.541 348.282 113.15L348.281 112.918H349L349 113.149C349 114.55 348.971 115.972 348.914 117.376ZM134.234 113.266H133.516L133.516 113.149C133.516 111.784 133.543 110.401 133.597 109.041L134.315 109.068C134.262 110.419 134.235 111.792 134.235 113.15L134.234 113.266ZM348.187 108.722C348.127 107.332 348.038 105.922 347.921 104.531L348.637 104.474C348.755 105.874 348.845 107.293 348.904 108.692L348.187 108.722ZM134.567 104.877L133.85 104.822C133.963 103.421 134.107 102.006 134.277 100.616L134.99 100.698C134.821 102.079 134.679 103.485 134.567 104.877ZM347.484 100.354C347.311 98.9736 347.106 97.5753 346.875 96.1978L347.584 96.0849C347.816 97.4716 348.023 98.8793 348.197 100.269L347.484 100.354ZM135.585 96.5404L134.876 96.4297C135.103 95.044 135.363 93.6445 135.648 92.2704L136.352 92.4088C136.069 93.7738 135.811 95.1638 135.585 96.5404ZM346.093 92.0688C345.805 90.7013 345.485 89.3238 345.141 87.9742L345.839 87.8057C346.184 89.1644 346.507 90.5514 346.797 91.928L346.093 92.0688ZM137.289 88.3111L136.592 88.145C136.933 86.7829 137.309 85.4085 137.707 84.0597L138.397 84.2533C138.001 85.593 137.629 86.9582 137.289 88.3111ZM344.02 83.9203C343.62 82.5837 343.187 81.2358 342.731 79.9142L343.412 79.6914C343.871 81.0218 344.307 82.3788 344.71 83.7245L344.02 83.9203ZM139.673 80.2431L138.991 80.0223C139.446 78.6898 139.935 77.346 140.446 76.0283L141.118 76.2757C140.611 77.5846 140.124 78.9194 139.673 80.2431ZM341.275 75.9622C340.765 74.6604 340.222 73.3548 339.662 72.0816L340.322 71.8058C340.886 73.0876 341.433 74.4019 341.947 75.7124L341.275 75.9622ZM142.728 72.37L142.067 72.0959C142.631 70.803 143.231 69.5031 143.849 68.2328L144.498 68.5325C143.884 69.7944 143.289 71.0856 142.728 72.37ZM337.888 68.2663C337.273 67.0118 336.623 65.7522 335.957 64.5226L336.592 64.1957C337.263 65.4338 337.917 66.7017 338.536 67.9649L337.888 68.2663ZM146.427 64.7689L145.79 64.444C146.46 63.2006 147.165 61.953 147.886 60.7356L148.509 61.0855C147.792 62.2947 147.092 63.5341 146.427 64.7689ZM333.872 60.8566C333.153 59.6518 332.401 58.4466 331.636 57.274L332.242 56.8984C333.013 58.0789 333.77 59.2923 334.493 60.505L333.872 60.8566ZM150.741 57.4881L150.134 57.1139C150.905 55.9269 151.71 54.7393 152.529 53.5841L153.12 53.9817C152.307 55.1292 151.507 56.3088 150.741 57.4881ZM329.254 53.7807C328.439 52.6368 327.589 51.4934 326.729 50.3828L327.302 49.9612C328.169 51.0793 329.024 52.2302 329.844 53.382L329.254 53.7807ZM155.641 50.572L155.067 50.1517C155.932 49.0291 156.833 47.909 157.743 46.8219L158.3 47.2645C157.395 48.3441 156.501 49.457 155.641 50.572ZM324.066 47.0852C323.16 46.0083 322.219 44.9344 321.269 43.8936L321.806 43.4285C322.762 44.4764 323.709 45.5574 324.622 46.6417L324.066 47.0852ZM161.092 44.0639L160.554 43.6002C161.508 42.5504 162.497 41.5045 163.494 40.4912L164.013 40.9758C163.022 41.9822 162.039 43.0213 161.092 44.0639ZM318.343 40.8125C317.349 39.8076 316.322 38.8102 315.291 37.8475L315.788 37.3421C316.826 38.3112 317.859 39.3154 318.86 40.3269L318.343 40.8125ZM167.057 38.0044L166.559 37.5C167.596 36.5283 168.667 35.5633 169.744 34.6314L170.221 35.1546C169.151 36.0803 168.087 37.0392 167.057 38.0044ZM312.12 35.0032C311.047 34.0787 309.941 33.1639 308.834 32.2845L309.288 31.742C310.402 32.6274 311.516 33.5482 312.596 34.479L312.12 35.0032ZM173.499 32.4311L173.043 31.8898C174.158 31.0005 175.305 30.1224 176.452 29.2797L176.884 29.8384C175.745 30.6755 174.606 31.5479 173.499 32.4311ZM305.437 29.6958C304.291 28.8579 303.113 28.0321 301.937 27.2414L302.344 26.6652C303.529 27.4613 304.715 28.2925 305.869 29.1361L305.437 29.6958ZM180.374 27.3799L179.964 26.8048C181.148 26.0054 182.363 25.2199 183.575 24.4702L183.96 25.061C182.756 25.8056 181.55 26.5858 180.374 27.3799ZM298.336 24.9254C297.125 24.1801 295.883 23.449 294.643 22.7524L295.002 22.1462C296.25 22.8474 297.501 23.5834 298.72 24.3337L298.336 24.9254ZM187.638 22.8851L187.278 22.2796C188.52 21.5779 189.794 20.8903 191.067 20.2365L191.402 20.8553C190.138 21.5049 188.872 22.1878 187.638 22.8851ZM290.862 20.7256C289.593 20.0781 288.293 19.4467 286.998 18.8492L287.305 18.2167C288.609 18.8181 289.918 19.4537 291.195 20.1057L290.862 20.7256ZM195.245 18.976L194.936 18.3442C196.231 17.7426 197.558 17.1579 198.879 16.6063L199.162 17.2496C197.849 17.7974 196.531 18.3782 195.245 18.976ZM283.058 17.1264C281.738 16.5802 280.389 16.0534 279.049 15.5603L279.303 14.9056C280.652 15.4019 282.01 15.9325 283.339 16.4823L283.058 17.1264ZM203.146 15.6794L202.89 15.0254C204.234 14.5261 205.608 14.0467 206.974 13.6002L207.202 14.2639C205.845 14.7072 204.481 15.1836 203.146 15.6794ZM274.976 14.1538C273.619 13.7152 272.234 13.2978 270.859 12.9132L271.058 12.2407C272.441 12.6279 273.835 13.048 275.202 13.4895L274.976 14.1538ZM211.315 13.0094L211.114 12.3376C212.496 11.946 213.905 11.5766 215.304 11.2394L215.476 11.9188C214.087 12.2536 212.687 12.6207 211.315 13.0094ZM266.694 11.8364C265.307 11.5068 263.892 11.2002 262.488 10.9249L262.629 10.2387C264.043 10.5159 265.468 10.8248 266.864 11.1564L266.694 11.8364ZM219.679 10.9939L219.535 10.3084C220.943 10.0275 222.379 9.77054 223.802 9.54449L223.917 10.2351C222.504 10.4598 221.078 10.7151 219.679 10.9939ZM258.247 10.1799C256.835 9.96053 255.399 9.7661 253.979 9.60241L254.063 8.90735C255.493 9.07223 256.938 9.26787 258.36 9.48897L258.247 10.1799ZM228.183 9.64359L228.096 8.94886C229.525 8.77938 230.977 8.63565 232.412 8.52222L232.47 9.21968C231.045 9.33262 229.602 9.47512 228.183 9.64359ZM249.691 9.19235C248.267 9.08419 246.819 9.00252 245.389 8.94973L245.416 8.25023C246.856 8.30354 248.313 8.38573 249.746 8.49455L249.691 9.19235ZM236.772 8.96322L236.742 8.26407C238.178 8.20632 239.637 8.1759 241.079 8.17352L241.08 8.87335C239.648 8.87574 238.198 8.90598 236.772 8.96322Z" fill="#CCCCCC"/>
<path d="M203.213 178.664C241.494 178.664 272.526 148.427 272.526 111.129C272.526 73.8301 241.494 43.5937 203.213 43.5937C164.932 43.5937 133.899 73.8301 133.899 111.129C133.899 148.427 164.932 178.664 203.213 178.664Z" fill="#3F3D56"/>
<path d="M178.611 160.468C198.942 160.468 215.423 138.378 215.423 111.129C215.423 83.8794 198.942 61.7896 178.611 61.7896C158.281 61.7896 141.8 83.8794 141.8 111.129C141.8 138.378 158.281 160.468 178.611 160.468Z" fill="white"/>
<path d="M166.409 137.328C172.083 137.328 176.682 130.278 176.682 121.581C176.682 112.885 172.083 105.835 166.409 105.835C160.735 105.835 156.135 112.885 156.135 121.581C156.135 130.278 160.735 137.328 166.409 137.328Z" fill="#3F3D56"/>
<path d="M339.394 80.0615C343.163 80.0615 346.218 77.0848 346.218 73.413C346.218 69.7411 343.163 66.7645 339.394 66.7645C335.626 66.7645 332.571 69.7411 332.571 73.413C332.571 77.0848 335.626 80.0615 339.394 80.0615Z" fill="#4B59AA"/>
<path d="M260.572 19.5956C266.126 19.5956 270.628 15.209 270.628 9.79781C270.628 4.38663 266.126 0 260.572 0C255.019 0 250.516 4.38663 250.516 9.79781C250.516 15.209 255.019 19.5956 260.572 19.5956Z" fill="#4B59AA"/>
<path d="M253.91 223.672C257.679 223.672 260.734 220.695 260.734 217.023C260.734 213.352 257.679 210.375 253.91 210.375C250.142 210.375 247.087 213.352 247.087 217.023C247.087 220.695 250.142 223.672 253.91 223.672Z" fill="#4B59AA"/>
</g>
<defs>
<clipPath id="clip0_305_184">
<rect width="349" height="244" fill="white"/>
</clipPath>
</defs>
</svg>
