<svg width="291" height="327" viewBox="0 0 291 327" fill="none" xmlns="http://www.w3.org/2000/svg">
<g clip-path="url(#clip0_307_494)">
<path d="M21.035 42.1626C32.6523 42.1626 42.0699 32.7242 42.0699 21.0813C42.0699 9.43842 32.6523 0 21.035 0C9.41768 0 0 9.43842 0 21.0813C0 32.7242 9.41768 42.1626 21.035 42.1626Z" fill="#F2F2F2"/>
<path d="M15.2587 13.1709C16.8988 13.1709 18.2284 11.8384 18.2284 10.1946C18.2284 8.55082 16.8988 7.21827 15.2587 7.21827C13.6185 7.21827 12.2889 8.55082 12.2889 10.1946C12.2889 11.8384 13.6185 13.1709 15.2587 13.1709Z" fill="#2F2E41"/>
<path d="M20.0103 24.481C24.1654 24.481 27.5338 21.1052 27.5338 16.9409C27.5338 12.7767 24.1654 9.40091 20.0103 9.40091C15.8552 9.40091 12.4869 12.7767 12.4869 16.9409C12.4869 21.1052 15.8552 24.481 20.0103 24.481Z" fill="#2F2E41"/>
<path d="M20.6329 24.4791C24.0094 24.4791 26.7465 21.7359 26.7465 18.352C26.7465 14.9681 24.0094 12.2248 20.6329 12.2248C17.2564 12.2248 14.5192 14.9681 14.5192 18.352C14.5192 21.7359 17.2564 24.4791 20.6329 24.4791Z" fill="#9E616A"/>
<path d="M24.7847 12.1062C23.7134 11.4517 22.4863 11.0976 21.2317 11.081C19.9771 11.0644 18.7412 11.386 17.653 12.012C16.5649 12.638 15.6645 13.5455 15.0461 14.6396C14.4277 15.7337 14.114 16.9742 14.1377 18.2314C17.2529 19.0153 20.5256 19.6152 23.8478 18.4189L24.6323 16.4946L25.0949 18.4204C26.1066 18.8348 27.1209 19.1855 28.1352 18.4164C28.1767 17.1627 27.889 15.9201 27.301 14.8127C26.7131 13.7054 25.8454 12.7721 24.7847 12.1062Z" fill="#2F2E41"/>
<path d="M12.4936 2.11499C11.451 1.66898 10.3045 1.52428 9.18408 1.69727C8.06362 1.87025 7.01382 2.35402 6.15342 3.09385C5.31197 3.85478 4.6714 4.8125 4.28881 5.88169C3.90623 6.95087 3.7935 8.0983 3.96067 9.22173C4.29742 11.5067 5.68351 13.4744 6.96113 15.3968C8.23874 17.3191 9.48697 19.4256 9.48555 21.7354C9.48453 23.399 8.82525 24.9943 7.65228 26.1715C6.47932 27.3486 4.88841 28.0115 3.22845 28.0149C5.17668 28.8554 7.21012 29.7125 9.3289 29.6128C11.4477 29.5132 13.6684 28.1481 14.014 26.0507C14.2631 24.5395 13.5233 23.0659 12.9063 21.6645C11.9012 19.3811 11.1748 16.9845 10.7427 14.5267C10.4622 13.3635 10.4764 12.1486 10.784 10.9923C11.0879 10.1564 11.6518 9.44049 12.3925 8.95012C13.1331 8.45976 14.0115 8.22092 14.8979 8.26881L15.5979 7.63759C15.7179 6.50783 15.4833 5.36872 14.9269 4.37885C14.3704 3.38898 13.5199 2.59763 12.4936 2.11499Z" fill="#2F2E41"/>
<path d="M36.8622 35.1863C33.218 39.342 28.0893 41.8948 22.5832 42.2936C17.0772 42.6924 11.6355 40.9052 7.43292 37.3179L9.23713 32.2724C9.64485 31.3762 10.2883 30.6082 11.0984 30.0507C11.9085 29.4932 12.8548 29.1671 13.8357 29.1076L14.9835 29.037L17.7205 26.6713C17.7205 26.6713 25.0949 26.4074 24.9855 26.281L29.4525 28.9738L29.4488 28.9552L31.2048 29.063C32.1858 29.1223 33.1322 29.4482 33.9424 30.0058C34.7525 30.5633 35.3959 31.3315 35.8034 32.2278L36.8622 35.1863Z" fill="#4B59AA"/>
<path d="M42.0699 105.078C42.0625 109.247 40.8217 113.321 38.5042 116.784C36.1867 120.246 32.8967 122.942 29.0503 124.531C25.2038 126.12 20.9736 126.53 16.8947 125.709C12.8158 124.889 9.07124 122.874 6.13467 119.921C3.1981 116.967 1.20135 113.207 0.396946 109.116C-0.407457 105.026 0.016608 100.788 1.61551 96.9384C3.21441 93.0891 5.91634 89.8014 9.37962 87.4911C12.8429 85.1808 16.912 83.9517 21.0723 83.9591C23.8367 83.9568 26.5742 84.502 29.1277 85.5634C31.6811 86.6249 34.0001 88.1816 35.9513 90.144C37.9026 92.1065 39.4476 94.4361 40.4976 96.9989C41.5477 99.5618 42.082 102.307 42.0699 105.078Z" fill="#F2F2F2"/>
<path d="M11.2855 98.1826C12.1553 95.4045 14.1332 92.8566 16.8686 91.9174C19.6042 90.9783 23.6098 92.4089 25.6664 94.463C29.4282 98.2204 30.3462 111.128 27.7617 115.207C27.2476 115.18 25.4737 115.16 24.9534 115.14L24.2174 112.682V115.116C23.3885 115.09 22.5531 115.073 21.7112 115.063C18.8885 115.028 16.1894 113.897 14.1812 111.909C12.1729 109.921 11.0121 107.23 10.9427 104.402C10.8753 101.696 10.9427 99.2774 11.2855 98.1826Z" fill="#2F2E41"/>
<path d="M20.723 107.39C24.0338 107.39 26.7178 104.7 26.7178 101.382C26.7178 98.0637 24.0338 95.3738 20.723 95.3738C17.4121 95.3738 14.7281 98.0637 14.7281 101.382C14.7281 104.7 17.4121 107.39 20.723 107.39Z" fill="#FFB6B6"/>
<path d="M15.5493 96.1053L22.4517 92.6415C23.8629 93.2788 25.0782 94.2828 25.9717 95.5495C26.8652 96.8162 27.4043 98.2994 27.5331 99.8452L27.7051 101.911L24.8147 101.173L24.498 98.5322L24.0072 100.967L22.6733 100.627L22.686 96.527L21.3512 100.624L16.5871 99.5272L15.5493 96.1053Z" fill="#2F2E41"/>
<path d="M36.6443 118.991C33.0001 123.147 27.8714 125.7 22.3653 126.098C16.8593 126.497 11.4176 124.71 7.21503 121.123L9.01923 116.077C9.42696 115.181 10.0704 114.413 10.8805 113.856C11.6906 113.298 12.6369 112.972 13.6179 112.912L14.7656 112.842L17.5026 110.476C17.5026 110.476 24.8771 110.212 24.7676 110.086L29.2346 112.779L29.2309 112.76L30.9869 112.868C31.9679 112.927 32.9143 113.253 33.7245 113.811C34.5346 114.368 35.178 115.136 35.5855 116.033L36.6443 118.991Z" fill="#4B59AA"/>
<path d="M21.035 209.926C32.6523 209.926 42.0699 200.488 42.0699 188.845C42.0699 177.202 32.6523 167.764 21.035 167.764C9.41768 167.764 0 177.202 0 188.845C0 200.488 9.41768 209.926 21.035 209.926Z" fill="#F2F2F2"/>
<path d="M20.4544 191.457C24.1628 191.457 27.169 188.444 27.169 184.727C27.169 181.011 24.1628 177.998 20.4544 177.998C16.746 177.998 13.7398 181.011 13.7398 184.727C13.7398 188.444 16.746 191.457 20.4544 191.457Z" fill="#FFB6B6"/>
<path d="M36.8159 202.95C33.1716 207.106 28.0429 209.659 22.5369 210.057C17.0308 210.456 11.5891 208.669 7.38654 205.082L9.19075 200.036C9.59848 199.14 10.2419 198.372 11.052 197.815C11.8622 197.257 12.8084 196.931 13.7894 196.871L14.9372 196.801L17.6741 194.435C17.6741 194.435 25.0486 194.171 24.9392 194.045L29.4061 196.738L29.4024 196.719L31.1584 196.827C32.1394 196.886 33.0858 197.212 33.896 197.77C34.7062 198.327 35.3495 199.095 35.757 199.992L36.8159 202.95Z" fill="#4B59AA"/>
<path d="M27.536 180.554C26.9686 178.519 25.6795 176.761 23.9106 175.61C22.5009 174.707 20.7418 174.245 19.1448 174.723C17.5478 175.201 16.2255 176.772 16.3301 178.469C16.0342 178.391 15.7225 178.398 15.4302 178.488C15.1379 178.579 14.8767 178.749 14.6762 178.981C14.2755 179.455 13.9969 180.02 13.8649 180.627C13.3524 182.53 13.3863 184.539 13.9628 186.423L13.9311 186.694C14.3166 186.591 14.6736 186.401 14.9747 186.139C15.2759 185.877 15.5133 185.549 15.6687 185.181C16.0363 184.467 16.2477 183.675 16.646 182.979C16.8179 182.618 17.0772 182.307 17.4002 182.073C17.7232 181.839 18.0995 181.69 18.4948 181.64L18.4253 182.848C19.1042 182.498 19.783 182.147 20.4619 181.797L19.9775 182.958L21.7561 182.213C21.6898 182.585 21.6235 182.958 21.5572 183.33C21.7127 183.007 21.9319 182.718 22.2017 182.483C22.4715 182.247 22.7862 182.069 23.1268 181.958C23.4674 181.848 23.8267 181.808 24.1832 181.841C24.5396 181.874 24.8857 181.978 25.2005 182.149C25.9095 182.627 26.4205 183.348 26.6381 184.176C26.8534 185.002 26.9689 185.852 26.9823 186.705C27.8984 184.788 28.095 182.604 27.536 180.554Z" fill="#2F2E41"/>
<path d="M48.0593 57.1049H1.80261C1.5657 57.1053 1.33103 57.0589 1.11205 56.9683C0.893056 56.8777 0.694046 56.7447 0.526388 56.5769C0.35873 56.4092 0.225712 56.2099 0.134961 55.9906C0.0442104 55.7713 -0.00250244 55.5362 -0.00250244 55.2987C-0.00250244 55.0613 0.0442104 54.8262 0.134961 54.6069C0.225712 54.3875 0.35873 54.1883 0.526388 54.0205C0.694046 53.8528 0.893056 53.7198 1.11205 53.6292C1.33103 53.5386 1.5657 53.4922 1.80261 53.4925H48.0593C50.3834 53.46 50.4067 57.1377 48.0593 57.1049Z" fill="#E4E4E4"/>
<path d="M110.372 66.553H1.80264C1.32466 66.553 0.866257 66.3627 0.528277 66.024C0.190298 65.6852 0.000427246 65.2258 0.000427246 64.7468C0.000427246 64.2678 0.190298 63.8084 0.528277 63.4696C0.866257 63.1309 1.32466 62.9406 1.80264 62.9406H110.372C112.696 62.9081 112.72 66.5858 110.372 66.553Z" fill="#E4E4E4"/>
<path d="M148.194 71.6333C154.592 71.6333 159.779 66.4351 159.779 60.0228C159.779 53.6105 154.592 48.4123 148.194 48.4123C141.796 48.4123 136.609 53.6105 136.609 60.0228C136.609 66.4351 141.796 71.6333 148.194 71.6333Z" fill="#4B59AA"/>
<path d="M146.614 66.0655C146.414 66.0655 146.216 66.0188 146.037 65.9291C145.859 65.8394 145.703 65.7092 145.583 65.5488L142.422 61.3253C142.217 61.0513 142.129 60.7069 142.178 60.3678C142.226 60.0287 142.407 59.7228 142.68 59.5173C142.954 59.3118 143.297 59.2235 143.636 59.272C143.974 59.3204 144.279 59.5016 144.484 59.7756L146.552 62.5385L151.863 54.5549C151.957 54.4137 152.077 54.2924 152.218 54.1979C152.358 54.1034 152.516 54.0376 152.682 54.0043C152.848 53.9709 153.019 53.9707 153.185 54.0036C153.351 54.0365 153.509 54.1019 153.65 54.196C153.791 54.2901 153.912 54.4112 154.006 54.5522C154.101 54.6932 154.166 54.8514 154.199 55.0178C154.232 55.1842 154.232 55.3555 154.2 55.5219C154.167 55.6883 154.101 55.8466 154.007 55.9878L147.686 65.4903C147.572 65.6622 147.418 65.8041 147.238 65.9041C147.057 66.0041 146.856 66.0593 146.65 66.0651C146.638 66.0653 146.626 66.0655 146.614 66.0655Z" fill="white"/>
<path d="M48.0593 140.987H1.80264C1.32466 140.987 0.866257 140.796 0.528277 140.458C0.190298 140.119 0.000427246 139.66 0.000427246 139.181C0.000427246 138.702 0.190298 138.242 0.528277 137.903C0.866257 137.565 1.32466 137.374 1.80264 137.374H48.0593C50.3834 137.342 50.4067 141.02 48.0593 140.987Z" fill="#E4E4E4"/>
<path d="M110.372 150.435H1.80261C1.5657 150.435 1.33103 150.389 1.11205 150.298C0.893056 150.208 0.694046 150.075 0.526388 149.907C0.35873 149.739 0.225712 149.54 0.134961 149.321C0.0442104 149.101 -0.00250244 148.866 -0.00250244 148.629C-0.00250244 148.391 0.0442104 148.156 0.134961 147.937C0.225712 147.717 0.35873 147.518 0.526388 147.35C0.694046 147.183 0.893056 147.05 1.11205 146.959C1.33103 146.869 1.5657 146.822 1.80261 146.823H110.372C112.696 146.79 112.72 150.468 110.372 150.435Z" fill="#E4E4E4"/>
<path d="M148.194 155.515C154.592 155.515 159.779 150.317 159.779 143.905C159.779 137.492 154.592 132.294 148.194 132.294C141.796 132.294 136.609 137.492 136.609 143.905C136.609 150.317 141.796 155.515 148.194 155.515Z" fill="#4B59AA"/>
<path d="M146.614 149.947C146.414 149.947 146.216 149.901 146.037 149.811C145.859 149.721 145.703 149.591 145.583 149.431L142.422 145.207C142.321 145.072 142.247 144.917 142.205 144.753C142.163 144.589 142.154 144.418 142.178 144.25C142.202 144.082 142.258 143.92 142.345 143.774C142.431 143.628 142.545 143.501 142.68 143.399C142.816 143.297 142.97 143.223 143.134 143.181C143.297 143.139 143.468 143.13 143.636 143.154C143.803 143.178 143.964 143.235 144.11 143.321C144.256 143.408 144.383 143.522 144.484 143.658L146.552 146.42L151.863 138.437C152.052 138.152 152.347 137.954 152.682 137.887C153.017 137.82 153.365 137.889 153.649 138.079C153.934 138.269 154.131 138.565 154.198 138.9C154.265 139.236 154.197 139.585 154.007 139.87L147.686 149.372C147.572 149.544 147.418 149.686 147.238 149.786C147.057 149.886 146.856 149.941 146.65 149.947C146.638 149.947 146.626 149.947 146.614 149.947Z" fill="white"/>
<path d="M48.0593 224.869H1.80264C1.32466 224.869 0.866256 224.678 0.528277 224.34C0.190298 224.001 0.000427246 223.542 0.000427246 223.063C0.000427246 222.584 0.190298 222.124 0.528277 221.785C0.866256 221.447 1.32466 221.256 1.80264 221.256H48.0593C50.3834 221.224 50.4067 224.902 48.0593 224.869Z" fill="#E4E4E4"/>
<path d="M110.372 234.317H1.80264C1.32466 234.317 0.866257 234.126 0.528277 233.788C0.190298 233.449 0.000427246 232.99 0.000427246 232.511C0.000427246 232.032 0.190298 231.572 0.528277 231.233C0.866257 230.895 1.32466 230.704 1.80264 230.704H110.372C112.696 230.672 112.72 234.35 110.372 234.317Z" fill="#E4E4E4"/>
<path d="M148.194 239.397C154.592 239.397 159.779 234.199 159.779 227.787C159.779 221.374 154.592 216.176 148.194 216.176C141.796 216.176 136.609 221.374 136.609 227.787C136.609 234.199 141.796 239.397 148.194 239.397Z" fill="#4B59AA"/>
<path d="M146.614 233.829C146.414 233.829 146.216 233.783 146.037 233.693C145.859 233.603 145.703 233.473 145.583 233.313L142.422 229.089C142.321 228.953 142.247 228.799 142.205 228.635C142.163 228.47 142.154 228.299 142.178 228.132C142.202 227.964 142.258 227.802 142.345 227.656C142.431 227.51 142.545 227.383 142.68 227.281C142.816 227.179 142.97 227.105 143.134 227.063C143.297 227.021 143.468 227.012 143.636 227.036C143.803 227.06 143.964 227.117 144.11 227.203C144.256 227.289 144.383 227.404 144.484 227.539L146.552 230.302L151.863 222.319C151.957 222.177 152.077 222.056 152.218 221.962C152.358 221.867 152.516 221.801 152.682 221.768C152.848 221.735 153.019 221.735 153.185 221.767C153.351 221.8 153.509 221.866 153.65 221.96C153.791 222.054 153.912 222.175 154.006 222.316C154.101 222.457 154.166 222.615 154.199 222.782C154.232 222.948 154.232 223.119 154.2 223.286C154.167 223.452 154.101 223.61 154.007 223.752L147.686 233.254C147.572 233.426 147.418 233.568 147.238 233.668C147.057 233.768 146.856 233.823 146.65 233.829C146.638 233.829 146.626 233.829 146.614 233.829Z" fill="white"/>
<path d="M195.439 187.912H225.796L218.323 165.913L197.774 166.381L195.439 187.912Z" fill="#9E616A"/>
<path d="M219.937 314.684H213.946L211.095 291.524L219.938 291.524L219.937 314.684Z" fill="#9E616A"/>
<path d="M223.16 326.085H218.909L218.15 322.063L216.206 326.085H204.931C204.39 326.086 203.864 325.912 203.429 325.591C202.993 325.27 202.672 324.818 202.511 324.301C202.35 323.784 202.358 323.229 202.535 322.717C202.711 322.205 203.046 321.763 203.491 321.455L212.495 315.223V311.156L221.966 311.722L223.16 326.085Z" fill="#2F2E41"/>
<path d="M209.663 314.684H203.671L200.821 291.524L209.663 291.524L209.663 314.684Z" fill="#9E616A"/>
<path d="M212.885 326.085H208.634L207.875 322.063L205.932 326.085H194.656C194.116 326.086 193.589 325.912 193.154 325.591C192.719 325.27 192.397 324.818 192.236 324.301C192.076 323.784 192.084 323.229 192.26 322.717C192.436 322.205 192.771 321.763 193.216 321.455L202.22 315.223V311.156L211.691 311.722L212.885 326.085Z" fill="#2F2E41"/>
<path d="M195.529 183.699L225.796 183.231C225.796 183.231 235.966 204.713 231.865 217.984L219.986 256.956L210.221 306.98L201.24 304.248L198.723 300.455L200.577 293.691L199.811 289.904L196.84 255.311V254.843L195.439 240.333C189.133 218.735 190.811 205.7 195.529 183.699Z" fill="#2F2E41"/>
<path d="M216.803 254.632L222.366 295.029L221.125 296.967L222.366 300.154L220.838 307.705L211.98 309.429L203.584 273.318L216.803 254.632Z" fill="#2F2E41"/>
<path d="M196.344 177.426C196.337 177.426 196.33 177.426 196.322 177.426C196.072 177.427 195.828 177.348 195.626 177.2C195.424 177.051 195.275 176.842 195.201 176.603C193.735 171.96 192.152 166.26 192.939 165.471C193.282 165.176 193.682 164.957 194.114 164.828C195.056 164.47 195.801 164.187 195.218 162.434C194.801 161.18 196.105 159.79 195.448 158.94C194.61 157.856 194.808 156.817 195.448 156.132C196.05 155.488 194.317 152.503 195.284 149.442C195.315 149.344 195.324 149.242 195.311 149.14C195.299 149.039 195.264 148.942 195.21 148.855C193.996 146.905 190.458 142.514 194.771 138.225C198.733 134.285 200.428 126.585 201.557 126.021C201.719 125.94 201.843 125.8 201.904 125.63L203.4 121.522C203.483 121.295 203.634 121.099 203.832 120.96C204.029 120.822 204.265 120.747 204.506 120.746H216.101C216.277 120.746 216.452 120.786 216.611 120.862C216.771 120.939 216.91 121.051 217.021 121.189L222.48 128.029C222.548 128.113 222.604 128.207 222.645 128.307C223.368 130.038 229.615 145.381 226.468 151.238L225.891 152.311C223.115 157.463 221.966 159.595 223.159 160.79C224.258 161.892 223.789 162.708 223.509 163.195C223.422 163.346 223.324 163.517 223.341 163.594C223.663 165.048 222.847 165.259 222.454 165.36C222.428 165.367 222.397 165.375 222.369 165.383C222.466 165.513 222.574 165.636 222.692 165.748C222.832 165.863 222.946 166.007 223.026 166.17C223.107 166.332 223.152 166.511 223.159 166.692C223.123 166.895 223.044 167.087 222.928 167.257C222.812 167.427 222.662 167.57 222.487 167.677C222.306 167.828 222.102 168 222.098 168.114C222.096 168.181 222.174 168.268 222.221 168.313C222.424 168.508 222.701 168.732 222.994 168.97C223.842 169.658 224.804 170.438 224.843 171.187C224.85 171.317 224.828 171.447 224.779 171.568C224.73 171.689 224.655 171.798 224.56 171.886L222.377 174.073C222.22 174.349 222.941 176.062 223.266 176.447L223.416 176.625L223.307 176.718C223.402 176.875 223.459 177.052 223.471 177.235C223.484 177.417 223.452 177.6 223.379 177.768C223.29 177.958 223.148 178.119 222.969 178.229C222.791 178.339 222.584 178.395 222.375 178.389L196.344 177.426Z" fill="#3F3D56"/>
<path d="M158.322 145.572C159.214 146.492 160.431 147.024 161.711 147.053C162.991 147.082 164.231 146.605 165.164 145.726C165.37 145.531 165.558 145.319 165.726 145.091L182.173 150.087L179.649 141.592L164.418 138.15C163.328 137.464 162.013 137.236 160.757 137.514C159.5 137.792 158.404 138.555 157.704 139.637C157.12 140.55 156.863 141.635 156.975 142.713C157.087 143.792 157.562 144.8 158.322 145.572Z" fill="#9E616A"/>
<path d="M168.647 147.344L171.073 139.161L179.435 139.115L181.158 141.407L183.937 140.409L192.766 142.661L202.095 127.556C202.563 126.797 203.193 126.151 203.94 125.664C204.686 125.177 205.531 124.861 206.413 124.738C207.295 124.616 208.193 124.689 209.044 124.955C209.894 125.22 210.676 125.67 211.333 126.272C212.353 127.199 213.025 128.448 213.238 129.812C213.45 131.175 213.19 132.57 212.501 133.765L199.407 156.703L168.647 147.344Z" fill="#3F3D56"/>
<path d="M180.549 184.662C181.829 184.706 183.074 184.243 184.017 183.375C184.96 182.507 185.524 181.302 185.588 180.021C185.602 179.737 185.591 179.453 185.554 179.172L200.865 171.35L193.171 166.979L179.811 175.077C178.551 175.34 177.445 176.089 176.732 177.162C176.019 178.235 175.756 179.547 176 180.813C176.21 181.877 176.775 182.837 177.602 183.537C178.428 184.236 179.468 184.633 180.549 184.662Z" fill="#9E616A"/>
<path d="M189.218 178.767L185.308 171.184L191.304 165.342L194.131 165.797L195.444 163.148L203.366 158.639L199.645 141.27C199.458 140.398 199.465 139.494 199.666 138.625C199.867 137.755 200.258 136.941 200.809 136.24C201.36 135.538 202.059 134.968 202.855 134.568C203.651 134.169 204.526 133.95 205.416 133.928C206.793 133.888 208.141 134.321 209.237 135.156C210.333 135.991 211.111 137.177 211.44 138.517L217.863 164.148L189.218 178.767Z" fill="#3F3D56"/>
<path d="M210.882 118.57C217.03 118.57 222.014 113.575 222.014 107.413C222.014 101.251 217.03 96.2559 210.882 96.2559C204.733 96.2559 199.749 101.251 199.749 107.413C199.749 113.575 204.733 118.57 210.882 118.57Z" fill="#9E616A"/>
<path d="M212.562 93.8343L213.912 94.1946L214.371 94.317L219.511 95.6881C224.067 96.9035 226.655 102.053 225.29 107.19C227.809 111.566 225.626 115.625 221.66 119.563C216.574 118.864 211.416 118.87 206.332 119.582L206.42 116.633L204.17 119.948C202.885 120.197 201.597 120.5 200.304 120.857C203.242 115.058 205.408 109.068 205.778 104.064L203.424 103.436L204.109 100.855L202.625 103.223L198.357 102.085C198.75 100.608 199.428 99.2236 200.354 98.0099C201.28 96.7963 202.436 95.7773 203.755 95.0112C205.074 94.245 206.53 93.7468 208.041 93.5449C209.552 93.3429 211.088 93.4413 212.562 93.8343Z" fill="#2F2E41"/>
<path d="M222.049 100.73C224.945 100.73 227.292 98.378 227.292 95.4761C227.292 92.5743 224.945 90.2219 222.049 90.2219C219.154 90.2219 216.807 92.5743 216.807 95.4761C216.807 98.378 219.154 100.73 222.049 100.73Z" fill="#2F2E41"/>
<path d="M276.173 325.039C279.895 316.3 282.52 306.79 281.277 297.377C280.852 294.186 279.925 291.081 278.531 288.18C277.409 285.815 275.959 283.62 274.225 281.66C273.626 280.969 272.803 280.51 271.901 280.365C270.999 280.22 270.075 280.396 269.289 280.864C269.168 280.935 269.046 281.009 268.934 281.089C268.326 281.518 267.847 282.106 267.547 282.788C267.489 282.919 267.441 283.053 267.402 283.191C267.231 283.765 267.185 284.37 267.267 284.965C267.922 289.809 267.78 294.728 266.847 299.526C266.608 300.747 266.317 301.958 265.973 303.158C265.201 302.191 264.379 301.265 263.512 300.382C261.264 298.099 258.671 296.185 255.83 294.709H255.825C255.811 294.7 255.802 294.695 255.788 294.686C252.341 292.926 247.745 293.656 245.06 294.854C244.883 294.929 244.714 295.014 244.551 295.093C243.15 295.814 242.454 296.642 243.052 297.185C243.187 297.302 243.323 297.424 243.449 297.546C247.52 301.318 250.855 305.816 253.284 310.81V310.815C254.25 312.803 255.063 314.863 255.717 316.974C256.619 319.89 257.366 323.125 259.127 325.502C259.307 325.753 259.502 325.992 259.71 326.218L275.44 326.092C275.477 326.073 275.51 326.059 275.547 326.041L276.173 326.064C276.15 325.952 276.122 325.839 276.094 325.727V325.718C276.08 325.657 276.061 325.591 276.047 325.535C276.033 325.488 276.024 325.446 276.014 325.409C276.042 325.339 276.07 325.273 276.103 325.203C276.126 325.147 276.15 325.095 276.173 325.039Z" fill="#F0F0F0"/>
<path d="M276.094 325.718C276.089 325.753 276.075 325.786 276.054 325.814C276.032 325.842 276.004 325.864 275.972 325.879C275.939 325.893 275.904 325.898 275.869 325.895C275.834 325.891 275.8 325.878 275.771 325.858C275.125 325.388 274.416 325.012 273.665 324.739C273.66 324.735 273.66 324.739 273.66 324.739C272.713 324.398 271.738 324.138 270.746 323.962C270.737 323.962 270.732 323.958 270.723 323.958C270.321 323.878 269.92 323.808 269.518 323.733C267.566 323.373 265.581 322.937 263.89 321.823C263.202 321.396 262.612 320.828 262.159 320.156C261.706 319.484 261.4 318.724 261.261 317.925C261.013 316.357 261.326 314.779 261.457 313.216C261.466 313.104 261.476 312.987 261.48 312.874C261.49 312.729 261.494 312.589 261.494 312.448C261.543 311.029 261.258 309.619 260.663 308.33C259.899 306.787 258.897 305.374 257.693 304.145C257.072 303.476 256.424 302.832 255.75 302.212H255.745C255.717 302.184 255.694 302.161 255.666 302.137C255.666 302.133 255.661 302.128 255.657 302.123C252.775 299.499 249.506 297.336 245.966 295.711C245.84 295.655 245.709 295.594 245.578 295.538C245.237 295.383 244.897 295.238 244.551 295.093C244.714 295.014 244.883 294.929 245.06 294.854C249.008 296.528 252.652 298.847 255.844 301.716C255.951 301.81 256.058 301.908 256.161 302.006C256.969 302.755 257.738 303.54 258.468 304.361C259.636 305.621 260.582 307.071 261.266 308.648C261.767 309.924 261.989 311.294 261.915 312.664C261.905 312.926 261.887 313.188 261.863 313.455C261.719 315.032 261.396 316.661 261.756 318.238C262.167 320.036 263.559 321.29 265.175 322.058C266.244 322.535 267.367 322.884 268.518 323.097C270.9 323.597 273.361 323.841 275.444 325.123H275.449C275.482 325.147 275.514 325.165 275.542 325.184C275.547 325.184 275.547 325.184 275.547 325.189C275.698 325.278 275.843 325.377 275.981 325.484C275.991 325.488 276 325.498 276.009 325.502C276.023 325.512 276.035 325.523 276.047 325.535C276.068 325.56 276.084 325.589 276.092 325.621C276.1 325.653 276.101 325.686 276.094 325.718Z" fill="white"/>
<path d="M256.038 302.167C256.887 301.112 257.334 299.789 257.299 298.435C257.265 297.08 256.751 295.782 255.849 294.772C255.666 294.568 255.342 294.844 255.525 295.048C256.366 295.987 256.845 297.196 256.875 298.457C256.904 299.719 256.483 300.949 255.687 301.927C255.514 302.14 255.867 302.378 256.038 302.167Z" fill="white"/>
<path d="M261.63 312.434C258.884 312.754 256.12 312.025 253.887 310.393C253.666 310.231 253.427 310.583 253.647 310.745C255.974 312.439 258.853 313.192 261.709 312.853C261.981 312.82 261.901 312.402 261.63 312.434Z" fill="white"/>
<path d="M245.994 295.66C245.985 295.678 245.975 295.692 245.966 295.711C245.709 296.185 245.349 296.596 244.914 296.913C244.479 297.23 243.978 297.446 243.449 297.546C243.323 297.424 243.187 297.302 243.052 297.185C243.073 297.172 243.097 297.164 243.122 297.162C243.631 297.106 244.119 296.929 244.546 296.647C244.973 296.365 245.327 295.984 245.578 295.538C245.602 295.5 245.625 295.458 245.644 295.421C245.659 295.398 245.679 295.378 245.703 295.362C245.726 295.347 245.752 295.336 245.779 295.331C245.807 295.326 245.835 295.326 245.862 295.332C245.889 295.338 245.915 295.349 245.938 295.365C245.983 295.398 246.014 295.446 246.024 295.501C246.034 295.556 246.024 295.612 245.994 295.66Z" fill="white"/>
<path d="M276.173 325.039C276.175 325.07 276.169 325.101 276.157 325.129C276.145 325.158 276.126 325.183 276.103 325.203C276.066 325.231 276.023 325.248 275.977 325.254C275.93 325.264 275.882 325.255 275.842 325.23C275.802 325.205 275.773 325.165 275.762 325.119C275.118 322.947 273.539 321.281 272.045 319.647C270.7 318.182 269.378 316.638 268.701 314.733C268.407 313.976 268.277 313.165 268.319 312.354C268.361 311.544 268.574 310.751 268.944 310.029C269.176 309.597 269.446 309.186 269.751 308.802C270.419 307.951 271.213 307.192 271.928 306.387C272.002 306.303 272.077 306.214 272.147 306.13C272.245 306.022 272.334 305.91 272.418 305.797C273.309 304.693 273.928 303.395 274.226 302.006C274.544 300.313 274.593 298.58 274.37 296.872C274.277 295.964 274.148 295.062 273.983 294.166C273.973 294.124 273.969 294.087 273.959 294.049C273.238 290.208 271.928 286.503 270.074 283.064C270.004 282.938 269.938 282.812 269.868 282.69C269.569 282.147 269.261 281.613 268.934 281.089C269.046 281.009 269.168 280.935 269.289 280.864C270.36 282.602 271.292 284.423 272.077 286.308C273.092 288.727 273.854 291.244 274.352 293.82C274.384 293.96 274.408 294.106 274.431 294.246C274.627 295.327 274.772 296.422 274.861 297.513C275.036 299.224 274.919 300.952 274.515 302.624C274.149 303.95 273.5 305.181 272.614 306.233C272.456 306.434 272.287 306.631 272.11 306.822C271.4 307.599 270.615 308.353 269.976 309.2C269.649 309.626 269.372 310.088 269.149 310.576C268.397 312.261 268.752 314.105 269.583 315.687C271.087 318.566 273.955 320.527 275.482 323.349C275.764 323.869 275.992 324.417 276.164 324.983C276.169 325.001 276.172 325.02 276.173 325.039Z" fill="white"/>
<path d="M274.238 294.295C275.549 293.965 276.701 293.179 277.487 292.076C278.273 290.974 278.642 289.627 278.529 288.277C278.505 288.004 278.081 288.028 278.105 288.302C278.212 289.559 277.868 290.813 277.134 291.838C276.4 292.863 275.324 293.592 274.101 293.892C273.836 293.957 273.974 294.361 274.238 294.295Z" fill="white"/>
<path d="M272.534 305.867C270.15 304.466 268.38 302.216 267.578 299.565C267.499 299.302 267.096 299.439 267.176 299.702C268.015 302.459 269.862 304.797 272.346 306.249C272.583 306.387 272.77 306.005 272.534 305.867Z" fill="white"/>
<path d="M270.125 283.041C270.106 283.05 270.092 283.055 270.074 283.064C269.233 283.449 268.276 283.494 267.402 283.191C267.441 283.053 267.489 282.919 267.547 282.788C268.306 283.049 269.134 283.014 269.868 282.69C269.91 282.676 269.948 282.657 269.99 282.638C270.043 282.62 270.101 282.623 270.152 282.648C270.203 282.673 270.242 282.716 270.261 282.769C270.276 282.823 270.27 282.881 270.245 282.931C270.22 282.982 270.177 283.021 270.125 283.041Z" fill="white"/>
<path d="M290.444 327H127.926C127.853 327 127.781 326.986 127.713 326.958C127.645 326.93 127.584 326.889 127.532 326.837C127.48 326.786 127.439 326.724 127.411 326.656C127.383 326.589 127.369 326.516 127.369 326.443C127.369 326.369 127.383 326.297 127.411 326.229C127.439 326.161 127.48 326.1 127.532 326.048C127.584 325.996 127.645 325.955 127.713 325.927C127.781 325.899 127.853 325.885 127.926 325.885H290.444C290.517 325.885 290.59 325.899 290.657 325.927C290.725 325.955 290.786 325.996 290.838 326.048C290.89 326.1 290.931 326.161 290.959 326.229C290.987 326.297 291.002 326.369 291.002 326.443C291.002 326.516 290.987 326.589 290.959 326.656C290.931 326.724 290.89 326.786 290.838 326.837C290.786 326.889 290.725 326.93 290.657 326.958C290.59 326.986 290.517 327 290.444 327Z" fill="#CCCCCC"/>
</g>
<defs>
<clipPath id="clip0_307_494">
<rect width="291" height="327" fill="white"/>
</clipPath>
</defs>
</svg>
