<svg width="329" height="229" viewBox="0 0 329 229" fill="none" xmlns="http://www.w3.org/2000/svg">
<g clip-path="url(#clip0_307_253)">
<path d="M40.9895 203.706L46.0786 203.826L44.1563 219.299L40.7079 219.218L40.9895 203.706Z" fill="#FFB6B6"/>
<path d="M52.539 226.403C52.539 225.983 52.3202 225.603 51.9821 225.436L48.1841 223.562L45.5947 217.564L45.5554 211.522L40.2197 210.895L39.448 214.744C39.448 214.744 41.0369 214.508 39.0752 216.209C37.1135 217.909 38.0581 221.237 38.0581 221.237L37.6302 227.456H41.1613L41.3508 223.588C44.0971 224.752 44.7707 227.456 44.7707 227.456H51.6156C52.1256 227.456 52.539 226.985 52.539 226.403Z" fill="#2F2E41"/>
<path d="M48.4439 203.876L53.5329 203.997L51.6107 219.469L48.1622 219.388L48.4439 203.876Z" fill="#FFB6B6"/>
<path d="M59.9934 226.573C59.9934 226.153 59.7745 225.773 59.4365 225.606L55.6384 223.732L53.049 217.735L53.0098 211.692L47.674 211.065L46.9023 214.915C46.9023 214.915 48.4912 214.678 46.5295 216.379C44.5678 218.08 45.5124 221.407 45.5124 221.407L45.0846 227.627H48.6156L48.8052 223.759C51.5515 224.922 52.2251 227.627 52.2251 227.627H59.07C59.5799 227.627 59.9934 227.155 59.9934 226.573Z" fill="#2F2E41"/>
<path d="M42.6078 113.121L36.8386 126.879C34.9155 131.465 34.306 136.494 35.0782 141.406L37.8822 208.992H48.9683L53.8072 148.806L54.7621 172.58L43.6641 206.453H54.5794L68.5899 172.58L69.6286 146.498L64.6511 126.259L42.6078 113.121Z" fill="#2F2E41"/>
<path d="M198.903 54.2531V19.8889C198.903 8.90457 189.987 2.77345e-09 178.989 2.77345e-09H106.088C95.0897 -0.00018146 86.1735 8.90425 86.1733 19.8886V208.413C86.1733 219.397 95.0894 228.302 106.088 228.302H178.988C189.986 228.302 198.902 219.397 198.902 208.413V78.714C199.595 78.714 200.157 78.1532 200.157 77.4613L200.158 55.5059C200.158 54.814 199.596 54.2531 198.903 54.2531Z" fill="#3F3D56"/>
<path d="M195.164 18.2352V209.423C183.525 208.709 189.445 224.024 180.065 224.505H105.669C97.3266 224.506 90.5627 217.754 90.5602 209.423V18.2352C90.5627 9.90416 97.3263 3.15212 105.668 3.15318H111.155C109.661 6.82278 121.719 8.01668 122.644 8.01785H160.745C164.712 8.01283 174.281 4.00841 173.933 3.15318H180.062C188.401 3.15461 195.161 9.90447 195.164 18.2323V18.2352Z" fill="white"/>
<path d="M85.587 58.4622C85.0564 58.4622 84.625 58.8931 84.625 59.423V67.1091C84.625 67.639 85.0564 68.0698 85.587 68.0698C86.1176 68.0698 86.549 67.6389 86.549 67.1091V59.423C86.549 58.8931 86.1176 58.4622 85.587 58.4622Z" fill="#3F3D56"/>
<path d="M85.587 81.5205C85.0564 81.5205 84.625 81.9514 84.625 82.4812V97.373C84.625 97.9029 85.0564 98.3338 85.587 98.3338C86.1176 98.3338 86.549 97.9029 86.549 97.373V82.4812C86.549 81.9514 86.1176 81.5205 85.587 81.5205Z" fill="#3F3D56"/>
<path d="M85.587 102.657C85.0564 102.657 84.625 103.088 84.625 103.618V118.51C84.625 119.04 85.0564 119.47 85.587 119.47C86.1176 119.47 86.549 119.04 86.549 118.51V103.618C86.549 103.088 86.1176 102.657 85.587 102.657Z" fill="#3F3D56"/>
<path d="M312.491 216.149L307.926 219.272L293.692 203.173L300.429 198.564L312.491 216.149Z" fill="#FFB6B6"/>
<path d="M296.781 226.747C296.803 227.083 297.257 227.906 297.448 228.184C298.034 229.039 299.203 229.257 300.058 228.671L314.195 218.999C314.779 218.6 314.928 217.803 314.528 217.22L314.125 216.632C314.125 216.632 313.612 214.387 310.679 213.195C310.679 213.195 310.059 216.124 305.553 215.283L303.786 214.396L300.938 222.471L298.041 225.024C297.407 225.583 296.726 225.905 296.781 226.747Z" fill="#2F2E41"/>
<path d="M278.834 224.44L273.301 224.44L270.669 203.124L277.442 203.966L278.834 224.44Z" fill="#FFB6B6"/>
<path d="M259.876 224.315C259.704 224.605 259.613 225.54 259.613 225.877C259.613 226.913 260.454 227.753 261.491 227.753H278.627C279.335 227.753 279.908 227.18 279.908 226.473V225.761C279.908 225.761 280.756 223.619 279.011 220.98C279.011 220.98 276.842 223.046 273.6 219.809L272.645 218.08L265.726 223.133L261.891 223.605C261.052 223.708 260.308 223.589 259.876 224.315Z" fill="#2F2E41"/>
<path d="M259.434 143.434L259.85 148.461L259.021 152.458L260.53 156.672L262.376 178.954L271.996 217.369L279.341 218.913L275.815 180.541L278.55 148.89L259.434 143.434Z" fill="#2F2E41"/>
<path d="M290.647 121.613L262.555 122.002L259.434 143.433L278.55 152.395L277.94 183.003L299.23 213.782L310.569 207.312L291.569 181.174L296.889 137.588L290.647 121.613Z" fill="#2F2E41"/>
<path d="M269.852 71.2285L264.896 77.5809L267.237 126.288L285.575 125.899L288.696 83.4259L284.794 72.5154L283.383 70.0703L281.694 66.9043L270.87 67.6765L269.852 71.2285Z" fill="#E6E6E6"/>
<path d="M262.533 101.35L263.525 111.305L262.307 122.76L260.785 125.865L257.306 138.22C257.306 138.22 253.755 143.623 261.558 144.012C269.361 144.4 294.938 141.872 294.938 141.872C294.938 141.872 298.127 141.794 296.738 135.132C294.493 131.278 295.94 125.849 295.94 125.849L292.988 114.986L293.768 104.855L299.23 78.3577C294.379 74.5503 288.945 71.8252 283.038 69.9795L277.865 83.5661L270.162 71.1486L267.236 73.2918C263.289 74.3254 259.816 75.9149 257.069 78.3573L262.533 101.35Z" fill="#2F2E41"/>
<path d="M169.923 77.7164H114.86C111.085 77.7121 108.027 74.6575 108.022 70.888V47.2496C108.027 43.4802 111.085 40.4255 114.86 40.4212C132.43 35.5596 150.858 36.0152 169.923 40.4212C173.698 40.4257 176.756 43.4803 176.76 47.2496V70.888C176.756 74.6573 173.698 77.7119 169.923 77.7164Z" fill="#F2F2F2"/>
<path d="M175.533 102.49H109.25C108.573 102.49 108.024 101.941 108.023 101.264V84.844C108.024 84.1673 108.573 83.619 109.25 83.6182H175.533C176.211 83.619 176.76 84.1673 176.761 84.844V101.265C176.76 101.941 176.211 102.49 175.533 102.491V102.49ZM109.25 84.1085C108.844 84.1089 108.514 84.438 108.514 84.844V101.265C108.514 101.671 108.844 102 109.25 102H175.533C175.94 102 176.269 101.671 176.27 101.265V84.844C176.269 84.438 175.94 84.1089 175.533 84.1085H109.25Z" fill="#E6E6E6"/>
<path d="M129.749 89.6203C129.274 89.6303 128.898 90.0226 128.908 90.4965C128.918 90.9563 129.288 91.3268 129.749 91.3365H170.255C170.729 91.3546 171.128 90.9853 171.146 90.5116C171.165 90.0379 170.795 89.6392 170.321 89.6211H129.749V89.6203Z" fill="#E6E6E6"/>
<path d="M129.749 94.7704C129.274 94.7804 128.898 95.1727 128.908 95.6466C128.918 96.1064 129.288 96.4768 129.749 96.4865H170.255C170.729 96.5047 171.128 96.1353 171.146 95.6616C171.165 95.188 170.795 94.7893 170.321 94.7711H129.749V94.7704Z" fill="#E6E6E6"/>
<path d="M118.37 96.4873C120.269 96.4873 121.808 94.9504 121.808 93.0546C121.808 91.1587 120.269 89.6218 118.37 89.6218C116.472 89.6218 114.933 91.1587 114.933 93.0546C114.933 94.9504 116.472 96.4873 118.37 96.4873Z" fill="#E6E6E6"/>
<path d="M175.533 183.089H109.25C108.573 183.088 108.024 182.54 108.023 181.863V165.443C108.024 164.766 108.573 164.218 109.25 164.217H175.533C176.211 164.218 176.76 164.766 176.761 165.443V181.863C176.76 182.54 176.211 183.088 175.533 183.089V183.089ZM109.25 164.707C108.844 164.708 108.514 165.037 108.514 165.443V181.863C108.514 182.269 108.844 182.599 109.25 182.599L168.004 182.021C168.41 182.02 174.575 179.724 174.576 179.318L176.27 165.443C176.269 165.037 175.94 164.708 175.533 164.707H109.25Z" fill="#E6E6E6"/>
<path d="M129.749 172.667C129.274 172.657 128.882 173.033 128.872 173.507C128.862 173.981 129.238 174.373 129.713 174.383C129.725 174.383 129.737 174.383 129.749 174.383H170.255C170.729 174.401 171.128 174.032 171.147 173.558C171.165 173.084 170.795 172.686 170.321 172.668H129.749V172.667Z" fill="#E6E6E6"/>
<path d="M118.37 177.086C120.269 177.086 121.808 175.549 121.808 173.653C121.808 171.757 120.269 170.22 118.37 170.22C116.472 170.22 114.933 171.757 114.933 173.653C114.933 175.549 116.472 177.086 118.37 177.086Z" fill="#E6E6E6"/>
<path d="M175.533 149.113H109.25C108.573 149.112 108.024 148.564 108.023 147.887V131.467C108.024 130.79 108.573 130.242 109.25 130.241H175.533C176.211 130.242 176.76 130.79 176.761 131.467V147.888C176.76 148.564 176.211 149.112 175.533 149.113V149.113ZM109.25 130.731C108.844 130.732 108.514 131.061 108.514 131.467V147.888C108.514 148.294 108.844 148.623 109.25 148.623L168.004 148.045C168.41 148.044 174.575 145.748 174.576 145.342L176.27 131.467C176.269 131.061 175.94 130.732 175.533 130.731H109.25Z" fill="#E6E6E6"/>
<path d="M129.749 138.691C129.274 138.681 128.882 139.057 128.872 139.531C128.862 140.005 129.238 140.397 129.713 140.407C129.725 140.407 129.737 140.407 129.749 140.407H170.255C170.729 140.425 171.128 140.056 171.147 139.582C171.165 139.108 170.795 138.71 170.321 138.692H129.749V138.691Z" fill="#E6E6E6"/>
<path d="M118.37 143.11C120.269 143.11 121.808 141.573 121.808 139.677C121.808 137.781 120.269 136.245 118.37 136.245C116.472 136.245 114.933 137.781 114.933 139.677C114.933 141.573 116.472 143.11 118.37 143.11Z" fill="#E6E6E6"/>
<path d="M275.317 66.4539C280.665 66.4539 285 62.1239 285 56.7826C285 51.4413 280.665 47.1113 275.317 47.1113C269.969 47.1113 265.633 51.4413 265.633 56.7826C265.633 62.1239 269.969 66.4539 275.317 66.4539Z" fill="#FFB6B6"/>
<path d="M282.429 64.729C282.962 64.8198 283.589 63.5285 284.187 62.271C285.44 59.6384 286.236 57.9648 286.297 55.5992C286.348 53.5831 285.787 54.1122 285.242 49.6298C285.062 48.1514 282.533 48.1542 282.018 47.4522C281.149 46.2664 282.483 45.7773 280.319 45.0649C276.268 43.7307 274.435 45.8034 271.862 45.982C271.797 45.9865 270.521 47.2324 269.809 47.2968C268.561 47.4097 266.76 47.2155 265.953 45.3162C265.198 43.5403 264.698 48.7298 265.373 49.3721C265.945 49.9174 266.933 51.286 266.959 51.3855C266.987 51.4982 264.609 48.8673 264.212 49.9515C263.927 50.7317 264.826 54.7461 265.552 54.897C266.16 55.0231 267.646 53.0234 267.31 53.8435C266.533 55.7456 271.207 56.9592 276.803 53.1412C277.002 53.0058 276.814 53.2218 277.507 54.897C278.38 57.0097 278.577 57.1242 278.561 57.7061C278.528 58.9658 277.581 59.3367 277.858 60.1641C278.082 60.8342 278.959 61.353 279.616 61.2175C280.358 61.0646 280.485 60.1478 281.023 60.1641C281.483 60.1781 282.029 60.8702 282.077 61.5687C282.18 63.0402 279.998 63.445 279.616 65.4312C279.4 66.5522 281.939 64.6455 282.429 64.729Z" fill="#2F2E41"/>
<path d="M304.344 142.034C304.386 140.951 304.167 139.874 303.707 138.893L304.704 127.606L299.311 127.29L298.881 138.775C298.372 139.732 298.1 140.797 298.088 141.881C298.02 144.592 299.366 146.825 301.093 146.868C302.82 146.911 304.275 144.748 304.343 142.037L304.344 142.034Z" fill="#FFB6B6"/>
<path d="M292.872 96.5225L297.124 109.65L298.345 136.46L305.464 136.315L306.016 106.947C306.016 106.947 302.468 85.2466 301.28 80.3692C300.092 75.4917 289.139 77.2993 289.139 77.2993L292.872 96.5225Z" fill="#2F2E41"/>
<path d="M116.487 62.2981C118.498 62.9649 120.606 63.64 122.753 63.5261C123.73 63.4742 124.67 63.2416 125.556 62.8277C126.465 62.4033 127.295 61.8269 128.215 61.4248C131.596 59.9469 134.949 62.4716 138.102 63.4191C139.675 63.8919 141.329 64.005 142.868 63.3466C144.568 62.619 145.851 61.2307 147.251 60.0716C150.389 57.4726 154.484 56.0714 158.557 56.1774C163.026 56.2936 167.351 58.2647 170.428 61.4889C170.686 61.7592 171.096 61.3493 170.838 61.0794C168.149 58.2617 164.525 56.362 160.667 55.7863C156.799 55.2094 152.785 55.9802 149.385 57.9035C147.664 58.8768 146.284 60.209 144.769 61.4523C143.292 62.663 141.651 63.4432 139.705 63.1859C136.353 62.7426 133.469 60.1626 129.992 60.3965C127.772 60.5459 126.186 62.2145 124.096 62.7465C121.603 63.3811 118.998 62.521 116.641 61.7396C116.286 61.6219 116.134 62.181 116.487 62.2981Z" fill="#3F3D56"/>
<path d="M122.781 65.3839C123.968 65.3839 124.929 64.4235 124.929 63.2388C124.929 62.0541 123.968 61.0937 122.781 61.0937C121.595 61.0937 120.633 62.0541 120.633 63.2388C120.633 64.4235 121.595 65.3839 122.781 65.3839Z" fill="#4B59AA"/>
<path d="M141.324 65.4789C142.51 65.4789 143.472 64.5185 143.472 63.3338C143.472 62.149 142.51 61.1886 141.324 61.1886C140.137 61.1886 139.176 62.149 139.176 63.3338C139.176 64.5185 140.137 65.4789 141.324 65.4789Z" fill="#4B59AA"/>
<path d="M160.154 58.2022C161.341 58.2022 162.302 57.2418 162.302 56.0571C162.302 54.8724 161.341 53.912 160.154 53.912C158.968 53.912 158.006 54.8724 158.006 56.0571C158.006 57.2418 158.968 58.2022 160.154 58.2022Z" fill="#4B59AA"/>
<path d="M35.522 130.479C29.1715 148.537 37.2626 162.764 35.5836 153.587C34.1803 145.917 58.0918 122.578 65.2893 127.39C65.1385 126.611 60.5636 112.569 60.1152 112.504C60.7426 110.926 59.8682 110.911 59.8326 110.103C59.6965 106.98 60.4233 103.739 61.839 100.402C62.7668 97.8249 62.783 95.6102 61.8838 93.8246C61.1101 92.3569 59.8103 91.2349 58.2441 90.683L53.5277 84.9943C52.2992 83.5137 50.4872 80.3188 48.562 80.3307L38.2273 79.962C37.932 79.7848 34.3031 82.9013 30.7697 84.4306C26.9374 86.0908 27.728 90.622 27.7376 90.6799L27.7465 90.7339L27.7887 90.7726L33.4216 107.331L38.5111 112.095C38.2533 112.841 38.3178 113.402 38.8007 113.724C38.1075 114.236 35.0241 129.556 35.522 130.093L35.522 130.479Z" fill="#4B59AA"/>
<path d="M88.6254 97.7079C87.8569 98.0142 87.1731 98.4998 86.631 99.1241L78.4469 101.926L79.8958 105.776L88.0416 102.519C88.8671 102.577 89.6944 102.436 90.4543 102.109C92.3668 101.317 93.5084 99.6889 93.0027 98.4735C92.4971 97.2581 90.5378 96.9152 88.6254 97.7079Z" fill="#FFB6B6"/>
<path d="M44.9683 85.3518L63.6386 110.521L85.5237 104.502L84.5723 98.8001L67.9073 101.953L58.6102 87.678C55.5743 81.8172 49.5907 80.6369 44.9683 85.3514V85.3518Z" fill="#4B59AA"/>
<path d="M179.062 212.267H170.542C169.054 212.267 167.844 211.058 167.844 209.572C166.229 205.19 166.025 201.258 167.844 197.974C167.844 196.488 169.054 195.279 170.542 195.279C173.062 193.454 175.999 194.008 179.062 195.279C180.55 195.279 181.761 196.488 181.761 197.974C180.727 201.69 180.802 205.567 181.761 209.572C181.761 211.058 180.55 212.267 179.062 212.267Z" fill="#4B59AA"/>
<path d="M178.239 200.441H171.357C171.12 200.441 170.927 200.249 170.927 200.011C170.927 199.774 171.12 199.582 171.357 199.582H178.239C178.476 199.582 178.669 199.774 178.669 200.011C178.669 200.249 178.476 200.441 178.239 200.441Z" fill="white"/>
<path d="M178.239 203.876H171.357C171.12 203.876 170.927 203.684 170.927 203.447C170.927 203.21 171.12 203.017 171.357 203.017H178.239C178.476 203.017 178.669 203.21 178.669 203.447C178.669 203.684 178.476 203.876 178.239 203.876Z" fill="white"/>
<path d="M178.239 207.312H171.357C171.12 207.312 170.927 207.12 170.927 206.883C170.927 206.645 171.12 206.453 171.357 206.453H178.239C178.476 206.453 178.669 206.645 178.669 206.883C178.669 207.12 178.476 207.312 178.239 207.312Z" fill="white"/>
<path d="M329 227.882H0V228.532H329V227.882Z" fill="#E6E6E6"/>
<path d="M256.773 141.134C257.053 143.831 258.673 145.874 260.392 145.696C262.11 145.518 263.277 143.188 262.997 140.49C262.9 139.411 262.546 138.37 261.964 137.455L260.636 126.039L255.284 126.775L257.161 137.95C256.779 138.964 256.646 140.055 256.772 141.131L256.773 141.134Z" fill="#FFB6B6"/>
<path d="M264.648 94.8634L266.866 75.4076C266.866 75.4076 255.805 74.4603 255.002 79.4156C254.199 84.3708 252.36 106.282 252.36 106.282L255.209 135.517L262.317 135.106L261.436 108.282L264.648 94.8634Z" fill="#2F2E41"/>
<path d="M50.9698 77.8192L36.0247 79.1783L35.5836 63.6651L51.8654 63.2034L50.9698 77.8192Z" fill="#2F2E41"/>
<path d="M43.4125 75.7369C47.7442 75.7369 51.2557 72.2299 51.2557 67.9038C51.2557 63.5776 47.7442 60.0706 43.4125 60.0706C39.0808 60.0706 35.5692 63.5776 35.5692 67.9038C35.5692 72.2299 39.0808 75.7369 43.4125 75.7369Z" fill="#FFB6B6"/>
<path d="M49.7217 60.2713C49.6664 58.3277 47.2449 58.1172 45.3581 57.6375L43.6472 56.7508C41.9679 56.3238 40.1861 56.6241 38.74 57.5778L34.1779 60.3379C32.1294 61.6889 31.804 63.8725 30.971 66.1786L29.4633 69.5545C28.6433 71.8247 29.7269 74.8328 30.5558 77.0997L30.9032 78.0497L30.3601 81.1586L39.8673 80.7152L40.7124 75.9157L39.0895 74.0939C38.5137 73.4474 38.467 72.4875 38.9773 71.7884C40.8131 69.2734 40.4728 65.749 40.4728 65.749L42.7961 67.0146C44.3226 67.2226 45.683 67.1998 46.8799 66.95C48.1962 66.6753 49.3149 66.126 50.2395 65.3071L51.0678 68.0895C51.2811 71.5524 50.6332 72.4715 47.5427 75.8587L52.9623 79.2568L52.7619 77.4179C52.2851 73.0435 53.7387 69.5939 53.5349 66.0335C53.394 63.5717 51.928 61.3783 49.7217 60.2713Z" fill="#2F2E41"/>
<path d="M51.0199 126.321C50.2542 126.008 49.4246 125.883 48.6004 125.955L40.7655 122.291L39.1287 126.065L47.2524 129.376C47.806 129.99 48.4987 130.463 49.2728 130.755C51.1996 131.513 53.1531 131.134 53.6351 129.909C54.1171 128.684 52.9467 127.078 51.0199 126.321Z" fill="#FFB6B6"/>
<path d="M28.2219 87.1381L24.1361 118.195L44.0623 129.054L47.3453 124.294L33.1676 114.995L36.4137 98.2782C38.3083 91.9567 34.8266 86.9554 28.2222 87.1379L28.2219 87.1381Z" fill="#4B59AA"/>
</g>
<defs>
<clipPath id="clip0_307_253">
<rect width="329" height="229" fill="white"/>
</clipPath>
</defs>
</svg>
