<svg width="24" height="24" viewBox="0 0 24 24" fill="none" xmlns="http://www.w3.org/2000/svg">
<path d="M8.115 17C7.655 17 7.271 16.846 6.963 16.538C6.65433 16.2293 6.5 15.845 6.5 15.385V4.615C6.5 4.155 6.65433 3.771 6.963 3.463C7.271 3.15433 7.655 3 8.115 3H18.885C19.345 3 19.729 3.15433 20.037 3.463C20.3457 3.771 20.5 4.155 20.5 4.615V15.385C20.5 15.845 20.346 16.2293 20.038 16.538C19.7293 16.846 19.345 17 18.885 17H8.115ZM7.5 6H19.5V4.615C19.5 4.46167 19.436 4.32067 19.308 4.192C19.1793 4.064 19.0383 4 18.885 4H8.115C7.96167 4 7.82067 4.064 7.692 4.192C7.564 4.32067 7.5 4.46167 7.5 4.615V6ZM5.115 20C4.655 20 4.271 19.846 3.963 19.538C3.65433 19.2293 3.5 18.845 3.5 18.385V6.615H4.5V18.385C4.5 18.5383 4.564 18.6793 4.692 18.808C4.82067 18.936 4.96167 19 5.115 19H16.885V20H5.115Z" fill="black"/>
</svg>
