<svg width="390" height="844" viewBox="0 0 390 844" fill="none" xmlns="http://www.w3.org/2000/svg">
<g clip-path="url(#clip0_251_285)">
<rect width="390" height="844" fill="black"/>
<circle cx="195" cy="422" r="480" fill="white"/>
<path d="M329.003 105.227C329.048 108.367 329.131 111.329 327.986 114.226C324.93 121.958 315.288 124.451 308.466 119.001C306.508 117.436 304.64 116.97 302.21 117.009C296.218 117.107 290.223 117.043 284.229 117.043C283.39 117.043 282.532 116.978 281.889 117.625C275.803 123.758 263.958 121.595 259.689 113.232C256.981 107.926 257.526 102.558 259.448 97.2152C260.595 94.0268 262.497 91.2114 265.259 88.9185C266.327 88.0314 267.491 87.2785 268.834 86.7679C269.676 86.4478 270.538 86.3145 270.99 87.2208C271.424 88.0898 270.855 88.6632 270.012 89.0373C266.537 90.5776 264.338 93.194 262.896 96.3108C260.818 100.8 259.844 105.449 261.445 110.265C263.147 115.382 267.564 118.485 272.987 118.457C278.935 118.426 282.613 114.386 281.59 109.047C280.652 104.145 277.975 100.376 273.009 98.0631C272.636 97.8894 272.27 97.7028 271.906 97.5151C271.041 97.0702 269.855 96.8158 269.962 95.6427C270.071 94.4527 271.332 94.6817 272.22 94.5057C272.462 93.1661 272.256 91.9438 272.029 90.7166C271.781 89.3767 272.233 88.5742 273.911 88.3768C278.922 87.7869 283.577 88.5534 287.811 91.1085C289.5 92.1278 290.566 93.6381 291.631 95.1614C292.663 96.6385 294.421 96.9039 295.448 95.4737C299.118 90.3657 304.787 90.1903 310.553 90.1082C311.555 90.094 312.456 90.094 313.455 89.6118C314.85 88.9383 316.389 89.6387 317.78 90.0806C324.115 92.0925 326.967 96.6994 328.606 102.173C328.889 103.117 329.052 104.084 329.003 105.227ZM278.39 98.3035C281.375 100.618 283.032 103.651 284.005 107.014C284.263 107.906 284.716 108.402 285.646 108.74C287.847 109.541 289.721 110.76 291.215 112.467C292.623 114.075 293.698 114.192 295.231 112.754C297.142 110.961 299.48 109.96 302.057 109.343C303.048 109.106 303.56 108.742 303.724 107.756C304.298 104.317 306.131 101.543 309.398 99.6305C310.167 99.1804 310.583 98.574 310.716 97.788C310.962 96.3439 311.17 94.8946 311.426 93.4521C311.579 92.5921 311.181 92.2447 310.26 92.2522C305.335 92.292 300.494 92.4283 297.443 96.8504C295.946 99.0211 291.278 99.3707 289.599 96.415C286.781 91.4536 281.693 90.5352 276.22 90.3868C275.419 90.3651 274.604 90.5539 274.651 91.5481C274.77 94.0196 274.562 96.6288 277.766 97.8574C277.925 97.9187 278.051 98.0536 278.39 98.3035ZM308.115 115.018C308.358 115.327 308.577 115.653 308.846 115.942C311.619 118.914 315.32 119.559 319.272 118.994C322.867 118.48 324.473 115.944 325.404 113.05C326.584 109.386 326.633 105.667 325.581 101.981C324.335 97.6143 321.728 94.1877 316.91 92.4701C314.476 91.6026 314.176 91.7916 313.833 94.0756C313.688 95.0402 313.477 95.9969 313.287 96.9557C313.19 97.4471 313.212 97.8499 313.604 98.303C314.726 99.5987 314.595 100.142 312.837 100.816C305.921 103.465 305.414 110.23 308.115 115.018ZM304.231 113.304C304.072 112.684 303.913 112.064 303.714 111.286C301.246 111.794 298.86 112.205 297.048 114.511C299.427 114.511 301.423 114.515 303.419 114.509C304.114 114.506 304.351 114.138 304.231 113.304ZM285.156 111.031C284.287 112.008 284.465 113.192 284.229 114.351C286.015 114.351 287.665 114.351 289.485 114.351C288.482 112.639 287.034 111.747 285.156 111.031Z" fill="black"/>
<path d="M291.551 89.5791C291.393 90.8721 290.624 90.9343 289.857 90.2612C286.268 87.1128 281.772 86.7963 277.159 86.8185C275.634 86.8259 275.261 86.4402 275.918 85.2258C276.231 84.6469 276.243 84.0861 276.256 83.4972C276.467 73.9686 283.946 67.3719 294.481 67.2803C300.159 67.2308 305.133 68.7023 309.067 72.464C312.86 76.0897 314.265 80.2974 312.231 85.1676C312.009 85.6976 311.54 86.2182 311.961 86.8546C312.923 88.3119 311.849 88.6059 310.622 88.6024C305.991 88.5894 301.562 89.2464 297.572 91.5454C297.082 91.8277 296.525 91.9508 296.192 91.3602C295.862 90.7751 296.192 90.3139 296.704 89.9528C298.393 88.7625 300.351 88.0908 302.397 87.6372C303.731 87.3415 305.092 87.0544 306.455 86.9824C307.762 86.9132 308.479 86.4145 309.064 85.3866C311.049 81.9013 310.795 78.6138 308.246 75.4586C302.624 68.4972 289.367 67.7717 282.96 74.1402C280.368 76.7165 279.207 79.8781 279.008 83.3486C278.945 84.4302 279.381 84.904 280.609 85.0069C283.674 85.2638 286.624 85.9268 289.274 87.4358C290.192 87.959 291.08 88.5082 291.551 89.5791Z" fill="black"/>
<path d="M320.297 70.4395C318.409 70.006 318.296 69.921 317.007 68.0551C311.765 69.3487 307.457 63.3066 308.711 58.5146C308.817 58.1079 309.093 57.8259 309.591 57.8492C310.084 57.8723 310.376 58.1874 310.42 58.5821C310.485 59.1637 310.437 59.7555 310.437 60.7045C311.103 59.7448 311.649 59.0729 312.443 58.6347C313.636 57.9755 314.858 57.9637 315.978 58.6989C316.999 59.3691 317.662 60.2657 317.223 61.4972C317.001 62.1182 316.999 62.5422 317.708 63.0008C318.909 63.778 319.124 64.9397 318.728 66.2064C318.331 67.4722 318.937 68.3619 320.368 68.6454C325.017 69.5665 325.768 70.3426 325.65 74.6706C325.594 76.7326 326.023 78.3208 328.536 78.8776C329.182 79.0206 329.868 79.3813 329.597 80.134C329.306 80.9418 328.533 80.6471 327.916 80.5036C325.342 79.9055 323.85 78.2274 323.746 75.8144C323.713 75.0561 323.754 74.2954 323.746 73.536C323.722 71.2386 323.029 70.5923 320.297 70.4395ZM312.117 61.4758C311.971 62.1212 311.059 62.1341 310.824 62.7182C311.5 64.4646 312.768 65.6828 314.595 66.4433C315.458 66.8022 316.115 66.423 316.677 65.916C317.041 65.5878 317.061 65.0962 316.793 64.7055C316.298 63.987 315.664 64.3479 315.076 64.6145C314.69 64.79 314.29 64.969 313.931 64.6363C313.541 64.275 313.622 63.8352 313.879 63.4395C314.27 62.835 314.722 62.2615 315.1 61.6508C315.362 61.2279 315.627 60.7483 315.108 60.3219C314.553 59.8649 313.905 59.8799 313.279 60.1796C312.789 60.4138 312.494 60.8325 312.117 61.4758Z" fill="black"/>
<path d="M303.556 73.5927C305.105 74.7178 305.039 75.9127 303.508 76.6363C302.396 77.1623 301.351 77.0315 300.782 75.9877C300.234 74.9824 300.879 74.2578 301.867 73.7614C302.357 73.5153 302.878 73.4796 303.556 73.5927Z" fill="black"/>
<path d="M296.591 74.6074C296.615 74.8502 296.629 74.9599 296.613 75.0664C296.436 76.3121 295.509 76.8223 294.264 76.8788C293.376 76.919 292.787 76.3804 292.603 75.6376C292.372 74.697 293.006 74.052 293.868 73.7111C294.941 73.2869 295.988 73.2919 296.591 74.6074Z" fill="black"/>
<path d="M290.814 109.235C290.608 109.918 290.383 110.468 289.588 110.286C288.958 110.141 288.906 109.624 288.838 109.117C288.424 105.982 288.557 102.833 288.522 99.688C288.515 99.0653 288.643 98.3853 289.5 98.3737C290.365 98.362 290.496 99.0449 290.505 99.6647C290.548 102.81 291.007 105.942 290.814 109.235Z" fill="black"/>
<path d="M296.555 98.6735C297.473 99.0198 297.356 99.6677 297.359 100.245C297.373 103.004 297.374 105.763 297.354 108.522C297.349 109.141 297.516 110.008 296.488 110.023C295.417 110.039 295.413 109.157 295.408 108.46C295.389 105.702 295.397 102.942 295.417 100.184C295.422 99.5262 295.483 98.8529 296.555 98.6735Z" fill="black"/>
</g>
<defs>
<clipPath id="clip0_251_285">
<rect width="390" height="844" fill="white"/>
</clipPath>
</defs>
</svg>
