<svg width="390" height="844" viewBox="0 0 390 844" fill="none" xmlns="http://www.w3.org/2000/svg">
<rect width="390" height="844" fill="black"/>
<circle cx="195" cy="422" r="195" fill="white"/>
<path d="M166.642 422.388C165.279 416.321 166.254 410.787 169.501 405.669C170.749 403.703 172.409 402.155 174.494 401.11C175.176 400.768 175.961 400.496 176.431 401.387C176.905 402.284 176.254 402.781 175.559 403.125C169.324 406.218 166.872 416.788 169.178 422.666C170.796 426.791 174.149 429.142 178.343 429.025C182.751 428.903 185.661 425.241 184.873 420.864C184.087 416.497 182.032 413.063 177.972 411.028C177.313 410.697 176.655 410.327 176.082 409.867C175.426 409.342 175.345 408.385 176.132 408.221C177.88 407.855 177.49 406.657 177.405 405.596C177.176 402.71 177.135 402.533 180.005 402.368C185.229 402.069 189.825 403.385 192.753 408.258C193.655 409.761 195.067 409.968 196.01 408.516C198.532 404.633 202.465 404.051 206.472 403.954C208.227 403.912 209.887 403.136 211.603 403.43C217.738 404.478 221.238 409.32 222.401 415.845C222.982 419.105 222.714 422.355 221.604 425.488C219.18 432.333 211.36 434.336 205.999 429.396C204.71 428.208 203.475 427.739 201.772 427.772C196.88 427.867 191.985 427.819 187.091 427.791C186.132 427.786 185.378 428.015 184.639 428.7C180.849 432.217 174.635 432.218 170.772 428.752C168.866 427.041 167.478 424.977 166.642 422.388ZM205.946 413.089C206.588 412.473 207.621 412.221 207.816 411.191C208.071 409.845 208.275 408.488 208.486 407.133C208.632 406.191 208.018 405.832 207.273 405.882C203.718 406.118 200.116 406.045 197.716 409.597C195.805 412.424 192.827 412.246 191.08 409.355C188.649 405.33 184.923 404.217 180.575 404.36C180.182 404.373 179.771 404.388 179.51 404.776C179.035 405.482 179.644 409.301 180.407 409.774C183.914 411.951 185.851 415.209 186.853 419.114C187.031 419.809 187.402 420.202 188.041 420.431C189.863 421.085 191.326 422.254 192.508 423.76C193.507 425.032 194.595 425.16 195.665 424.012C197.17 422.4 199.02 421.497 201.094 420.958C201.874 420.755 202.336 420.382 202.443 419.459C202.73 416.972 203.907 414.917 205.946 413.089ZM207.422 427.74C212.887 431.753 218.366 429.779 219.84 423.207C220.512 420.211 220.538 417.136 219.688 414.196C218.596 410.423 216.533 407.334 212.557 406.03C211.91 405.818 210.999 405.46 210.749 406.268C210.284 407.772 209.573 409.514 210.297 410.932C211.188 412.676 210.321 413.098 209.121 413.768C203.921 416.668 203.031 423.323 207.422 427.74ZM198.702 423.991C198.251 424.378 197.564 424.529 197.437 425.252C198.967 425.676 201.49 425.656 202.876 425.201C202.776 424.377 202.723 423.538 202.135 422.833C200.962 422.924 199.94 423.405 198.702 423.991ZM190.173 424.084C189.35 423.426 188.587 422.659 187.386 422.444C187.239 423.455 187.112 424.336 186.974 425.288C188.34 425.694 189.587 425.607 190.817 425.393C190.939 424.797 190.576 424.556 190.173 424.084Z" fill="black"/>
<path d="M206.033 400.725C208.849 395.808 207.651 391.156 202.931 388.244C197.34 384.794 190.042 385.507 185.977 389.93C184.007 392.073 183.129 394.699 182.808 397.55C182.672 398.768 182.979 399.397 184.411 399.511C186.859 399.705 189.237 400.342 191.283 401.83C191.739 402.162 192.155 402.567 192.529 402.992C192.857 403.364 192.949 403.842 192.529 404.217C192.191 404.518 191.75 404.476 191.433 404.182C188.493 401.452 184.88 400.981 181.107 401.027C180.472 401.035 179.747 400.809 180.105 400.096C180.868 398.575 180.475 396.946 180.81 395.386C182.142 389.186 186.254 385.109 192.523 384C198.881 382.876 205.248 385.478 208.33 390.466C209.96 393.103 210.187 395.927 209.433 398.884C209.206 399.775 208.638 400.528 209.184 401.636C209.608 402.495 208.566 402.682 207.887 402.681C205.942 402.676 204.038 402.948 202.144 403.36C200.686 403.677 199.298 404.144 198.036 404.966C197.521 405.301 196.889 405.8 196.439 404.988C196.027 404.244 196.698 403.84 197.225 403.516C199.608 402.052 202.264 401.469 204.99 401.114C205.315 401.071 205.628 400.923 206.033 400.725Z" fill="black"/>
<path d="M240.8 455.554C241.547 455.033 242.186 454.553 243.066 454.71C242.191 456.789 242.329 457.294 244.25 458.802C245.591 459.855 247.134 460.656 248.205 462.04C249.11 463.209 249.413 464.544 248.876 465.912C248.385 467.164 247.334 467.774 245.755 467.889C246.971 465.841 245.621 464.909 244.377 463.999C242.488 462.615 240.493 461.354 239.672 459.028C235.739 459.417 234.863 458.907 233.157 455.178C232.255 453.205 231.477 451.173 230.546 449.214C228.962 445.883 228.242 445.489 224.803 445.779C225.48 444.269 227.623 443.404 229.473 443.895C231.373 444.4 232.57 445.733 233.491 447.378C234.526 449.226 235.347 451.172 236.058 453.167C236.287 453.812 236.544 454.452 236.843 455.067C238.229 457.916 238.766 457.99 240.8 455.554Z" fill="black"/>
<path d="M135.191 458.633C135.193 460.349 135.183 461.894 135.2 463.438C135.216 464.901 134.96 466.426 136.507 467.83C134.196 468.121 132.339 468.052 130.083 467.913C131.581 466.526 131.389 465.024 131.388 463.562C131.387 460.302 131.408 457.041 131.382 453.781C131.369 452.211 131.712 450.574 130.295 449.02C132.413 449.02 134.138 449.02 135.981 449.02C134.555 452.12 135.43 455.331 135.191 458.633Z" fill="black"/>
<path d="M220.136 447.966C220.537 447.881 220.823 447.853 221.097 447.78C224.082 446.982 224.091 446.98 224.096 450.019C224.103 454.543 224.091 459.067 224.098 463.591C224.1 464.998 223.901 466.45 225.204 467.847C223.12 468.096 221.37 468.053 219.196 467.92C220.726 466.474 220.522 464.918 220.52 463.402C220.516 459.737 220.521 456.073 220.512 452.408C220.509 451.161 220.681 449.884 219.634 448.867C219.185 448.431 219.642 448.186 220.136 447.966Z" fill="black"/>
<path d="M143.789 457.487C143.643 455.853 143.422 454.388 142.859 452.999C142.257 451.514 141.681 450.933 139.287 449.317C140.875 448.694 143.997 449.868 145.785 451.76C148.281 454.401 148.913 459.155 147.258 462.836C145.923 465.807 142.367 467.955 138.359 467.785C143.61 465.847 144.035 461.895 143.789 457.487Z" fill="black"/>
<path d="M214.064 380.468C214.513 381.25 214.718 381.985 214.41 382.713C213.794 384.168 214.614 384.917 215.789 384.974C219.25 385.142 220.007 387.377 219.897 390.279C219.829 392.108 220.114 393.582 222.179 394.09C222.654 394.207 223.223 394.503 222.936 395.181C222.709 395.718 222.176 395.569 221.732 395.504C219.858 395.228 218.553 393.853 218.267 391.786C218.173 391.111 218.202 390.417 218.196 389.731C218.173 387.242 217.998 387.025 215.594 386.59C215.426 386.56 215.189 386.611 215.096 386.515C213.608 384.969 211.418 384.969 209.699 384.021C207.223 382.656 206.089 380.301 206.168 377.43C206.187 376.72 206.008 375.711 206.979 375.603C208.16 375.472 207.494 376.733 207.915 377.268C208.459 376.854 208.95 376.367 209.532 376.056C211.305 375.108 213.306 376.332 213.156 378.344C213.087 379.263 213.252 379.88 214.064 380.468ZM210.143 377.512C209.869 377.793 209.554 378.043 209.329 378.359C208.001 380.233 208.83 382.392 211.079 383.008C211.775 383.198 212.299 382.973 212.727 382.452C212.958 382.17 213.047 381.807 212.785 381.515C212.318 380.995 211.866 381.421 211.407 381.594C211.025 381.739 210.613 381.811 210.347 381.39C210.102 381.002 210.258 380.638 210.489 380.284C210.798 379.811 211.136 379.344 211.365 378.831C211.813 377.828 211.507 377.294 210.143 377.512Z" fill="black"/>
<path d="M217.817 467.785C214.195 468.476 212.749 467.314 212.714 463.794C212.697 462.081 212.734 460.367 212.748 458.654C212.758 457.334 212.786 456.008 211.386 454.927C213.57 454.215 214.833 452.73 215.914 450.601C216.499 451.943 216.089 453.004 216.37 453.935C216.784 455.31 218.084 454.282 218.851 454.733C218.971 455.369 218.415 455.35 218.118 455.498C216.848 456.13 216.316 457.193 216.3 458.55C216.277 460.378 216.288 462.206 216.3 464.033C216.31 465.592 216.692 466.888 218.547 466.967C218.599 467.513 218.247 467.605 217.817 467.785Z" fill="black"/>
<path d="M230.548 462.56C230.835 466.765 232.521 467.747 236.919 466.422C236.129 467.992 233.451 468.584 230.791 467.775C227.869 466.887 226.076 464.056 226.416 460.867C226.792 457.345 228.994 454.966 232.277 454.706C231.554 455.977 230.712 457.076 230.452 458.503C230.195 459.917 230.726 460.272 231.963 460.182C233.156 460.095 234.366 459.735 235.805 460.338C234.008 461.372 231.597 460.219 230.548 462.56Z" fill="black"/>
<path d="M259.759 463.72C260.093 466.311 259.162 467.519 256.654 467.748C257.638 465.763 256.306 464.82 254.99 463.875C253.512 462.814 251.937 461.857 250.982 460.222C249.476 457.644 250.75 455.085 253.682 454.774C252.989 456.964 253.241 457.576 255.437 459.152C257.13 460.368 259.113 461.308 259.759 463.72Z" fill="black"/>
<path d="M156.662 457.983C157.253 455.648 158.002 454.948 160.053 454.82C158.819 456.799 160.07 457.899 161.43 458.941C162.513 459.771 163.701 460.481 164.692 461.407C165.916 462.551 166.588 464.025 165.987 465.733C165.542 466.997 164.592 467.73 162.954 467.801C163.966 466.008 162.936 465.023 161.795 464.116C160.772 463.302 159.678 462.578 158.669 461.748C157.537 460.818 156.73 459.666 156.662 457.983Z" fill="black"/>
<path d="M181.082 465.606C181.014 466.601 181.943 466.913 182.181 467.862C180.25 468.132 178.401 468.049 176.659 467.922C177.802 463.828 177.956 459.955 176.57 455.822C177.424 455.187 178.825 455.135 180.09 454.795C181.136 454.515 181.026 455.536 181.033 456.181C181.066 459.274 181.064 462.368 181.082 465.606Z" fill="black"/>
<path d="M150.478 464.384C150.478 462.794 150.445 461.362 150.485 459.933C150.525 458.492 150.557 457.077 149.023 455.91C150.749 455.43 152.192 455.029 153.555 454.65C154.257 455.268 154.044 455.94 154.051 456.535C154.08 459.11 154.096 461.687 154.061 464.261C154.044 465.485 154.064 466.66 155.425 467.804C153.232 467.804 151.434 467.804 149.485 467.804C150.066 466.778 150.721 465.778 150.478 464.384Z" fill="black"/>
<path d="M200.599 465.653C198.603 462.232 198.987 458.446 201.525 456.15C202.487 455.28 203.566 454.586 205.218 454.819C202.792 457.656 202.851 460.822 203.595 463.986C204.37 467.284 206.562 468.075 209.502 466.34C209.731 466.206 209.973 466.096 210.319 465.918C208.996 468.928 203.57 468.752 200.599 465.653Z" fill="black"/>
<path d="M193.501 458.694C193.523 457.277 193.601 456.012 192.688 454.97C194.615 454.099 196.265 454.898 196.788 456.878C197.46 459.42 196.923 462.01 197.051 464.574C197.103 465.606 196.999 466.721 198.567 467.005C197.387 468.26 196.063 468.269 194.843 467.906C193.63 467.546 193.483 466.366 193.495 465.213C193.517 463.094 193.501 460.975 193.501 458.694Z" fill="black"/>
<path d="M173.131 466.634C173.863 466.975 174.602 466.61 175.207 467.043C173.522 468.623 170.915 468.388 169.221 466.495C168.061 465.199 167.452 463.581 166.73 462.031C166.128 460.739 165.513 459.453 164.904 458.163C164.229 456.731 163.124 455.692 161.763 454.843C163.36 454.127 165.499 454.722 166.956 456.207C168.395 457.675 169.032 459.587 169.833 461.412C170.654 463.281 171.257 465.292 173.131 466.634Z" fill="black"/>
<path d="M175.602 454.65C176.209 455.302 175.555 455.28 175.271 455.404C173.773 456.061 173.188 457.24 173.228 458.83C173.288 461.156 173.12 463.484 173.247 465.865C170.408 462.751 169.94 458.647 168.692 454.641C170.672 454.317 171.698 452.591 172.827 450.76C173.829 452.169 172.009 455.357 175.602 454.65Z" fill="black"/>
<path d="M189.877 464.431C189.866 465.956 190.474 466.853 191.965 467.037C190.794 468.239 188.802 468.391 187.449 467.485C186.088 466.574 185.577 464.821 186.208 463.233C186.917 461.452 189.416 460.173 191.637 460.547C190.706 461.667 189.648 462.696 189.877 464.431Z" fill="black"/>
<path d="M151.258 452.418C150.088 451.638 149.562 450.71 150.192 449.455C150.643 448.559 151.429 448.11 152.435 448.287C153.514 448.477 154.106 449.207 154.217 450.286C154.368 451.754 153.214 452.626 151.258 452.418Z" fill="black"/>
<path d="M184.452 454.631C186.82 455.034 186.938 455.192 186.095 457.24C185.782 458.003 185.718 458.918 184.91 459.553C184.153 458.383 183.994 456.448 181.748 457.314C182.172 455.757 182.931 454.88 184.452 454.631Z" fill="black"/>
<path d="M210.781 456.69C210.713 457.847 210.948 458.87 210.53 460.314C209.3 458.245 208.865 455.991 206.816 454.855C208.114 454.567 209.131 455.168 210.25 455.158C211.032 455.151 210.706 456.025 210.781 456.69Z" fill="black"/>
<path d="M239.675 467.412C239.585 465.912 239.585 464.522 239.585 462.71C240.971 464.53 241.447 466.73 243.551 467.59C242.182 468.183 240.982 467.594 239.675 467.412Z" fill="black"/>
<path d="M251.732 467.706C250.74 467.782 250.17 467.592 250.231 466.524C250.295 465.421 250.245 464.312 250.433 463.155C251.753 464.666 252.326 466.677 254.503 467.575C253.352 468.248 252.61 467.725 251.732 467.706Z" fill="black"/>
<path d="M248.622 455.659C248.639 457.028 248.639 458.244 248.639 459.46C247.239 458.048 246.815 456.017 245.044 454.883C246.294 454.969 247.61 454.163 248.622 455.659Z" fill="black"/>
<path d="M256.836 454.708C259.55 454.972 259.823 455.514 259.162 459.589C258.092 457.96 257.485 455.97 255.657 455.04C256.047 454.411 256.396 454.683 256.836 454.708Z" fill="black"/>
<path d="M159.514 466.773C159.912 467.131 160.475 467.208 160.384 467.982C159.228 467.862 158.074 467.742 156.725 467.602C156.545 466.145 156.513 464.684 156.777 462.988C157.936 464.222 158.203 465.815 159.514 466.773Z" fill="black"/>
<path d="M194.448 392.2C193.466 391.66 193.298 390.948 193.824 390.162C194.33 389.404 195.056 389.005 195.999 389.385C196.682 389.66 196.929 390.227 196.755 390.894C196.466 392 195.664 392.386 194.448 392.2Z" fill="black"/>
<path d="M200.718 392.189C199.501 391.113 199.808 390.217 200.924 389.538C201.514 389.178 202.241 389.203 202.827 389.688C203.338 390.109 203.37 390.677 203.076 391.223C202.596 392.117 201.854 392.517 200.718 392.189Z" fill="black"/>
<path d="M187.63 459.177C187.262 457.797 187.435 456.462 187.579 455.013C188.61 455.077 189.548 455.137 190.766 455.213C189.667 456.664 188.702 457.936 187.63 459.177Z" fill="black"/>
<path d="M190.43 414.652C190.426 413.913 190.402 413.341 190.425 412.771C190.449 412.173 190.276 411.358 191.207 411.361C191.991 411.363 191.951 412.097 191.971 412.653C192.065 415.219 192.153 417.786 192.209 420.353C192.222 420.971 192.209 421.776 191.346 421.742C190.549 421.71 190.488 420.945 190.478 420.302C190.451 418.475 190.445 416.648 190.43 414.652Z" fill="black"/>
<path d="M196.382 421.432C195.498 419.386 196.056 417.327 195.911 415.308C195.842 414.346 195.906 413.373 195.935 412.406C195.948 411.975 196.134 411.612 196.619 411.585C197.099 411.559 197.392 411.893 197.394 412.318C197.413 415.162 197.41 418.007 197.37 420.85C197.363 421.281 196.993 421.528 196.382 421.432Z" fill="black"/>
</svg>
