<svg width="390" height="844" viewBox="0 0 390 844" fill="none" xmlns="http://www.w3.org/2000/svg">
<g clip-path="url(#clip0_251_288)">
<rect width="390" height="844" fill="black"/>
<circle cx="195" cy="422" r="480" fill="white"/>
<path d="M230.004 399.227C230.048 402.367 230.131 405.329 228.986 408.226C225.93 415.958 216.288 418.451 209.467 413.001C207.508 411.436 205.64 410.97 203.211 411.009C197.219 411.107 191.224 411.043 185.23 411.043C184.39 411.043 183.532 410.978 182.89 411.625C176.803 417.758 164.958 415.596 160.689 407.232C157.981 401.926 158.526 396.558 160.448 391.215C161.595 388.027 163.498 385.211 166.259 382.919C167.328 382.031 168.492 381.279 169.835 380.768C170.677 380.448 171.539 380.315 171.991 381.221C172.424 382.09 171.856 382.663 171.012 383.037C167.537 384.578 165.339 387.194 163.896 390.311C161.818 394.8 160.845 399.449 162.446 404.265C164.147 409.382 168.565 412.485 173.987 412.457C179.936 412.426 183.613 408.386 182.591 403.047C181.652 398.145 178.975 394.377 174.009 392.063C173.636 391.889 173.27 391.703 172.906 391.515C172.042 391.07 170.855 390.816 170.962 389.643C171.071 388.453 172.332 388.682 173.221 388.506C173.462 387.166 173.256 385.944 173.029 384.717C172.781 383.377 173.233 382.574 174.911 382.377C179.922 381.787 184.577 382.553 188.811 385.109C190.5 386.128 191.567 387.638 192.631 389.161C193.663 390.639 195.421 390.904 196.449 389.474C200.119 384.366 205.788 384.19 211.553 384.108C212.555 384.094 213.457 384.094 214.455 383.612C215.851 382.938 217.389 383.639 218.781 384.081C225.115 386.093 227.967 390.699 229.607 396.173C229.889 397.117 230.053 398.084 230.004 399.227ZM179.39 392.304C182.376 394.618 184.032 397.651 185.005 401.014C185.263 401.906 185.716 402.402 186.646 402.74C188.847 403.541 190.721 404.76 192.215 406.468C193.623 408.075 194.699 408.192 196.231 406.754C198.142 404.961 200.481 403.96 203.057 403.343C204.048 403.106 204.56 402.742 204.724 401.756C205.298 398.317 207.131 395.543 210.398 393.631C211.168 393.18 211.583 392.574 211.717 391.788C211.962 390.344 212.17 388.895 212.427 387.452C212.579 386.592 212.182 386.245 211.26 386.252C206.335 386.292 201.494 386.428 198.443 390.85C196.946 393.021 192.279 393.371 190.6 390.415C187.781 385.454 182.694 384.535 177.22 384.387C176.42 384.365 175.604 384.554 175.651 385.548C175.77 388.02 175.562 390.629 178.766 391.858C178.926 391.919 179.051 392.054 179.39 392.304ZM209.116 409.018C209.358 409.327 209.577 409.653 209.846 409.942C212.619 412.914 216.32 413.559 220.272 412.994C223.867 412.48 225.473 409.944 226.405 407.05C227.584 403.386 227.633 399.667 226.581 395.981C225.335 391.614 222.728 388.188 217.91 386.47C215.477 385.603 215.177 385.792 214.833 388.076C214.688 389.04 214.477 389.997 214.288 390.956C214.19 391.447 214.212 391.85 214.604 392.303C215.726 393.599 215.595 394.142 213.837 394.816C206.921 397.465 206.414 404.23 209.116 409.018ZM205.231 407.304C205.072 406.684 204.913 406.064 204.714 405.286C202.246 405.794 199.861 406.205 198.048 408.511C200.427 408.511 202.423 408.515 204.419 408.509C205.115 408.506 205.351 408.139 205.231 407.304ZM186.156 405.031C185.288 406.008 185.466 407.193 185.23 408.351C187.016 408.351 188.665 408.351 190.485 408.351C189.482 406.639 188.034 405.747 186.156 405.031Z" fill="black"/>
<path d="M192.551 383.579C192.393 384.872 191.624 384.934 190.856 384.261C187.267 381.113 182.771 380.796 178.159 380.819C176.633 380.826 176.26 380.44 176.918 379.226C177.231 378.647 177.243 378.086 177.256 377.497C177.467 367.969 184.946 361.372 195.481 361.28C201.158 361.231 206.132 362.702 210.067 366.464C213.86 370.09 215.265 374.297 213.23 379.168C213.009 379.698 212.54 380.218 212.96 380.855C213.923 382.312 212.849 382.606 211.622 382.602C206.99 382.589 202.562 383.246 198.572 385.545C198.082 385.828 197.525 385.951 197.192 385.36C196.862 384.775 197.192 384.314 197.704 383.953C199.392 382.763 201.351 382.091 203.397 381.637C204.731 381.342 206.092 381.054 207.455 380.982C208.762 380.913 209.478 380.415 210.064 379.387C212.049 375.901 211.794 372.614 209.246 369.459C203.623 362.497 190.367 361.772 183.96 368.14C181.368 370.717 180.207 373.878 180.007 377.349C179.945 378.43 180.38 378.904 181.608 379.007C184.674 379.264 187.624 379.927 190.273 381.436C191.192 381.959 192.08 382.508 192.551 383.579Z" fill="black"/>
<path d="M221.297 364.439C219.409 364.006 219.297 363.921 218.007 362.055C212.765 363.349 208.458 357.307 209.711 352.515C209.818 352.108 210.093 351.826 210.592 351.849C211.085 351.872 211.376 352.187 211.42 352.582C211.485 353.164 211.437 353.756 211.437 354.705C212.103 353.745 212.649 353.073 213.443 352.635C214.637 351.975 215.858 351.964 216.978 352.699C218 353.369 218.662 354.266 218.223 355.497C218.001 356.118 217.999 356.542 218.708 357.001C219.91 357.778 220.124 358.94 219.728 360.206C219.331 361.472 219.937 362.362 221.368 362.645C226.017 363.566 226.768 364.343 226.65 368.671C226.594 370.733 227.023 372.321 229.537 372.878C230.182 373.021 230.868 373.381 230.597 374.134C230.306 374.942 229.533 374.647 228.916 374.504C226.343 373.905 224.851 372.227 224.746 369.814C224.713 369.056 224.754 368.295 224.746 367.536C224.723 365.239 224.029 364.592 221.297 364.439ZM213.117 355.476C212.971 356.121 212.06 356.134 211.824 356.718C212.5 358.465 213.769 359.683 215.596 360.443C216.458 360.802 217.115 360.423 217.677 359.916C218.041 359.588 218.062 359.096 217.793 358.705C217.299 357.987 216.664 358.348 216.077 358.615C215.69 358.79 215.29 358.969 214.931 358.636C214.541 358.275 214.623 357.835 214.879 357.439C215.271 356.835 215.722 356.261 216.1 355.651C216.362 355.228 216.627 354.748 216.109 354.322C215.553 353.865 214.905 353.88 214.279 354.18C213.79 354.414 213.495 354.832 213.117 355.476Z" fill="black"/>
<path d="M204.556 367.593C206.105 368.718 206.039 369.913 204.508 370.636C203.396 371.162 202.351 371.031 201.782 369.988C201.234 368.982 201.879 368.258 202.867 367.761C203.357 367.515 203.878 367.48 204.556 367.593Z" fill="black"/>
<path d="M197.591 368.607C197.615 368.85 197.629 368.96 197.613 369.066C197.436 370.312 196.509 370.822 195.264 370.879C194.376 370.919 193.787 370.38 193.603 369.638C193.372 368.697 194.006 368.052 194.868 367.711C195.941 367.287 196.988 367.292 197.591 368.607Z" fill="black"/>
<path d="M191.814 403.235C191.608 403.918 191.383 404.468 190.588 404.286C189.958 404.141 189.906 403.624 189.838 403.117C189.424 399.982 189.557 396.833 189.522 393.688C189.515 393.065 189.643 392.385 190.5 392.374C191.365 392.362 191.496 393.045 191.505 393.665C191.548 396.81 192.007 399.942 191.814 403.235Z" fill="black"/>
<path d="M197.554 392.673C198.473 393.02 198.356 393.668 198.359 394.245C198.372 397.004 198.374 399.763 198.354 402.522C198.349 403.141 198.516 404.008 197.488 404.023C196.417 404.039 196.413 403.157 196.408 402.46C196.388 399.702 196.397 396.942 196.417 394.184C196.422 393.526 196.482 392.853 197.554 392.673Z" fill="black"/>
<path d="M234.598 454.299C234.721 456.033 235.786 456.75 236.733 457.551C237.781 458.439 238.878 459.255 239.559 460.618C240.799 463.102 240.05 465.23 237.53 466.046C238.025 463.553 236.562 462.533 235.207 461.443C233.857 460.357 232.734 459.032 232.123 457.219C229.279 457.804 228.354 457.298 227.011 454.114C226.096 451.941 225.388 449.641 224.525 447.434C223.239 444.145 222.588 443.702 219.79 443.976C220.248 442.508 221.844 441.571 223.361 441.913C224.872 442.253 225.964 443.31 226.733 444.886C227.627 446.719 228.325 448.661 228.97 450.639C229.378 451.891 229.816 453.148 230.385 454.298C231.17 455.884 231.657 455.864 232.556 454.428C233.152 453.477 233.849 452.766 234.9 452.89C235.169 453.513 234.704 453.773 234.598 454.299Z" fill="black"/>
<path d="M219.103 459.496C219.15 461.773 218.823 463.914 219.91 465.929C218.353 466.461 216.955 466.12 215.378 466.21C216.657 462.81 216.144 459.454 216.075 456.189C216.008 453.007 217.093 449.638 215.229 446.562C216.356 445.675 217.579 445.468 219.103 445.176C219.103 449.987 219.103 454.646 219.103 459.496Z" fill="black"/>
<path d="M141.44 464.732C141.902 459.475 141.646 454.342 141.629 449.214C141.627 448.575 141.228 447.938 140.946 447.101C142.501 446.928 143.941 446.947 145.194 447.1C144.636 453.487 144.406 459.701 145.317 466.152C144.366 466.46 143.001 466.214 141.662 466.171C140.673 466.139 141.097 465.427 141.44 464.732Z" fill="black"/>
<path d="M150.142 465.767C149.335 466.017 148.654 466.42 147.487 465.86C151.492 464.374 152.058 460.832 151.985 456.906C151.916 453.178 151.634 449.536 148.192 447.462C151.31 446.725 154.488 449.597 155.379 453.543C156.644 459.145 154.704 463.764 150.142 465.767Z" fill="black"/>
<path d="M209.63 457.626C209.67 455.894 209.761 454.331 208.475 453.08C210.344 452.368 211.414 450.829 212.284 448.613C212.884 450.044 212.528 451.114 212.763 452.057C213.078 453.326 214.227 452.403 214.795 453.084C211.874 455.992 211.687 463.654 214.596 465.397C213.589 466.509 212.459 466.534 211.352 466.058C210.238 465.579 209.732 464.382 209.668 463.023C209.587 461.29 209.636 459.549 209.63 457.626Z" fill="black"/>
<path d="M227.713 458.909C227.496 459.066 227.349 459.161 227.195 459.181C226.193 459.309 224.996 459.22 224.635 460.636C224.26 462.105 224.916 463.418 225.728 464.475C226.562 465.56 227.663 465.405 228.709 464.985C229.287 464.752 229.818 464.352 230.524 463.937C229.381 466.29 226.836 467.013 224.387 465.868C221.821 464.668 220.586 461.557 221.232 457.918C221.765 454.91 223.591 452.953 225.896 453.042C225.414 454.138 224.791 455.098 224.587 456.297C224.374 457.551 224.591 458.243 225.819 458.273C226.464 458.288 227.307 457.733 227.713 458.909Z" fill="black"/>
<path d="M241.884 453.929C242.549 453.279 243.091 452.6 244.074 453.036C242.933 454.895 243.96 455.968 245.043 456.985C246.01 457.893 247.097 458.641 247.966 459.663C248.907 460.769 249.481 462.19 249.017 463.869C248.64 465.236 247.762 465.843 246.373 466.126C247.174 463.985 246.022 463.045 244.954 462.095C243.881 461.142 242.716 460.323 241.927 458.978C240.987 457.372 240.622 455.729 241.884 453.929Z" fill="black"/>
<path d="M168.234 465.586C168.607 463.726 167.664 462.833 166.692 461.996C165.48 460.951 164.175 460.032 163.377 458.44C162.096 455.883 163.151 453.176 165.603 453.01C164.755 455.188 165.855 456.345 167.145 457.398C168.465 458.475 169.892 459.422 170.528 461.349C171.33 463.781 170.198 465.942 168.234 465.586Z" fill="black"/>
<path d="M183.441 466.219C182.047 466.227 180.781 466.227 179.495 466.227C180.379 462.021 180.62 458.119 179.335 454.04C180.072 453.325 181.243 453.348 182.278 452.975C183.149 452.661 183.164 453.634 183.17 454.329C183.194 456.776 183.177 459.224 183.187 461.671C183.193 463.006 183.027 464.369 183.971 465.467C184.282 465.83 183.934 466.136 183.441 466.219Z" fill="black"/>
<path d="M157.636 456.394C157.499 455.439 156.955 454.948 156.579 454.202C157.569 453.326 158.77 453.299 159.852 452.969C160.726 452.703 160.654 453.76 160.663 454.416C160.702 457.045 160.696 459.675 160.708 462.305C160.714 463.515 160.647 464.745 161.631 465.92C159.922 466.431 158.496 466.217 156.889 466.111C158.2 462.919 157.57 459.701 157.636 456.394Z" fill="black"/>
<path d="M198.526 461.162C198.133 456.354 200.218 452.756 203.217 453.125C202.041 455.066 201.66 457.198 201.73 459.512C201.878 464.428 202.922 465.582 206.823 464.97C206.014 466.359 205.07 466.676 202.79 466.205C200.487 465.729 199.146 463.99 198.526 461.162Z" fill="black"/>
<path d="M196.595 462.468C196.503 463.729 196.861 464.627 197.482 465.375C195.451 467.123 193.63 466.254 193.456 463.478C193.36 461.951 193.528 460.401 193.554 458.86C193.571 457.832 193.606 456.796 193.52 455.777C193.441 454.841 193.21 453.924 193.046 453.001C195.066 452.343 196.384 453.363 196.553 455.931C196.692 458.04 196.589 460.171 196.595 462.468Z" fill="black"/>
<path d="M170.865 453.715C172.323 455.171 172.963 457.091 173.656 458.969C174.024 459.967 174.362 460.98 174.728 461.978C175.393 463.788 176.351 465.151 178.239 465.265C177.186 466.569 175.96 466.451 174.724 465.924C173.668 465.474 172.972 464.46 172.473 463.301C171.811 461.763 171.225 460.178 170.615 458.607C169.757 456.398 168.855 454.23 166.606 452.76C168.449 452.273 169.622 452.864 170.865 453.715Z" fill="black"/>
<path d="M176.877 452.236C177.43 453.163 178.277 452.501 179.118 453.271C176.188 454.121 176.82 456.826 176.784 459.19C176.76 460.72 176.779 462.252 176.59 463.843C174.124 460.859 174.03 456.681 172.808 452.873C174.423 452.332 175.408 450.767 176.262 448.856C177.129 449.957 176.576 451.126 176.877 452.236Z" fill="black"/>
<path d="M190.585 461.953C190.453 463.702 190.914 464.873 192.585 465.411C191.022 466.56 189.696 466.648 188.489 465.617C187.343 464.639 186.968 463.171 187.506 461.506C188.12 459.603 189.982 458.408 192.095 458.68C191.55 459.753 190.63 460.508 190.585 461.953Z" fill="black"/>
<path d="M159.074 446.308C160.794 447.227 161.273 448.797 160.309 450.016C159.802 450.657 159.162 451.005 158.433 450.654C157.622 450.262 157.108 449.471 157.178 448.42C157.259 447.196 157.934 446.495 159.074 446.308Z" fill="black"/>
<path d="M185.338 455.691C184.862 455.158 184.316 455.608 183.869 455.267C183.925 454.091 184.538 453.38 185.334 452.985C186.088 452.61 186.941 452.62 187.606 453.288C188.292 453.977 187.659 454.708 187.468 455.372C187.234 456.185 187.167 457.137 186.463 457.683C185.839 457.239 185.944 456.256 185.338 455.691Z" fill="black"/>
<path d="M163.628 462.208C164.188 463.669 165.032 464.712 166.031 465.936C164.807 466.226 163.558 466.533 162.944 465.569C162.221 464.436 162.522 462.825 162.812 461.449C163.365 461.326 163.386 461.832 163.628 462.208Z" fill="black"/>
<path d="M232.027 462.225C232.207 461.068 232.6 461.468 232.801 461.987C233.398 463.523 234.319 464.727 235.424 465.836C232.646 466.845 232.024 466.182 232.027 462.225Z" fill="black"/>
<path d="M239.802 456.752C239.646 457.748 239.261 457.683 239.01 457.054C238.439 455.623 237.678 454.363 236.73 453.182C239.541 452.283 239.781 452.566 239.802 456.752Z" fill="black"/>
<path d="M242.184 462.862C242.706 464.172 243.615 464.899 244.504 465.949C243.299 466.354 242.036 466.483 241.383 465.685C240.513 464.622 241.027 462.964 241.105 461.498C241.777 461.657 241.85 462.317 242.184 462.862Z" fill="black"/>
<path d="M206.442 455.342C205.88 454.525 205.374 453.827 204.816 453.057C207.994 452.757 208.83 454.109 207.769 457.747C206.921 457.302 206.946 456.177 206.442 455.342Z" fill="black"/>
<path d="M247.432 455.722C246.859 454.809 246.341 454.019 245.751 453.118C246.66 452.581 247.893 452.528 248.37 453.175C249.222 454.331 248.795 456.039 248.771 457.643C247.787 457.487 247.853 456.442 247.432 455.722Z" fill="black"/>
<path d="M189.108 457.207C188.725 457.694 188.445 457.644 188.448 457.079C188.456 455.817 188.542 454.555 188.599 453.227C189.546 453.141 190.355 453.167 191.312 453.45C190.615 454.815 189.644 455.766 189.108 457.207Z" fill="black"/>
</g>
<defs>
<clipPath id="clip0_251_288">
<rect width="390" height="844" fill="white"/>
</clipPath>
</defs>
</svg>
