<svg width="390" height="844" viewBox="0 0 390 844" fill="none" xmlns="http://www.w3.org/2000/svg">
<g clip-path="url(#clip0_251_291)">
<rect width="390" height="844" fill="black"/>
<circle cx="195" cy="422" r="480" fill="white"/>
<path d="M235.598 68.2993C235.721 70.033 236.786 70.7497 237.733 71.5513C238.781 72.4389 239.878 73.255 240.559 74.6185C241.799 77.102 241.05 79.2298 238.53 80.0463C239.025 77.5534 237.562 76.5333 236.207 75.4428C234.857 74.3573 233.734 73.0321 233.123 71.2189C230.279 71.804 229.354 71.2981 228.011 68.1137C227.096 65.9408 226.388 63.6414 225.525 61.4343C224.239 58.1448 223.588 57.7016 220.79 57.9761C221.248 56.5076 222.844 55.5706 224.361 55.9127C225.872 56.2531 226.964 57.3102 227.733 58.8862C228.627 60.7195 229.325 62.6612 229.97 64.6393C230.378 65.8909 230.816 67.148 231.385 68.2983C232.17 69.8843 232.657 69.8642 233.556 68.4279C234.152 67.4767 234.849 66.766 235.9 66.8905C236.169 67.5127 235.704 67.7735 235.598 68.2993Z" fill="black"/>
<path d="M220.103 73.4958C220.15 75.773 219.823 77.9143 220.91 79.9293C219.353 80.4613 217.955 80.1198 216.378 80.2099C217.657 76.8099 217.144 73.4537 217.075 70.1891C217.008 67.0067 218.093 63.6383 216.229 60.5624C217.356 59.6746 218.579 59.4684 220.103 59.1757C220.103 63.9873 220.103 68.6461 220.103 73.4958Z" fill="black"/>
<path d="M142.44 78.7324C142.902 73.4747 142.646 68.3419 142.629 63.2141C142.627 62.5754 142.228 61.9385 141.946 61.1012C143.501 60.9277 144.941 60.9468 146.194 61.1002C145.636 67.4868 145.406 73.7011 146.317 80.1522C145.366 80.4598 144.001 80.2142 142.662 80.1711C141.673 80.1393 142.097 79.4275 142.44 78.7324Z" fill="black"/>
<path d="M151.142 79.7672C150.335 80.0173 149.654 80.4199 148.487 79.8604C152.492 78.3745 153.058 74.8324 152.985 70.9057C152.916 67.1782 152.634 63.5365 149.192 61.4623C152.31 60.7249 155.488 63.5968 156.379 67.5433C157.644 73.1445 155.704 77.7637 151.142 79.7672Z" fill="black"/>
<path d="M210.63 71.6259C210.67 69.8944 210.761 68.3312 209.475 67.0796C211.344 66.3683 212.414 64.8287 213.284 62.6128C213.884 64.0442 213.528 65.1144 213.763 66.0574C214.078 67.3263 215.227 66.4032 215.795 67.0835C212.874 69.9915 212.687 77.6543 215.596 79.3966C214.589 80.5091 213.459 80.5342 212.352 80.0583C211.238 79.5792 210.732 78.3816 210.668 77.0234C210.587 75.2904 210.636 73.5487 210.63 71.6259Z" fill="black"/>
<path d="M228.713 72.9091C228.496 73.0662 228.349 73.1615 228.195 73.1812C227.193 73.3088 225.996 73.2198 225.635 74.6362C225.26 76.1054 225.916 77.4184 226.728 78.4746C227.562 79.5601 228.663 79.4054 229.709 78.9846C230.287 78.7523 230.818 78.3522 231.524 77.9373C230.381 80.2901 227.836 81.0129 225.387 79.8679C222.821 78.6682 221.586 75.5574 222.232 71.9186C222.765 68.9102 224.591 66.9533 226.896 67.042C226.414 68.1385 225.791 69.098 225.587 70.2967C225.374 71.5506 225.591 72.2427 226.819 72.2727C227.464 72.2885 228.307 71.7326 228.713 72.9091Z" fill="black"/>
<path d="M242.884 67.929C243.549 67.279 244.091 66.6004 245.074 67.0359C243.933 68.8949 244.96 69.9677 246.043 70.9854C247.01 71.8928 248.097 72.6405 248.966 73.6627C249.907 74.7689 250.481 76.19 250.017 77.8692C249.64 79.2362 248.762 79.8429 247.373 80.1263C248.174 77.9845 247.022 77.0449 245.954 76.0952C244.881 75.1416 243.716 74.3229 242.927 72.9775C241.987 71.3723 241.622 69.7291 242.884 67.929Z" fill="black"/>
<path d="M169.234 79.5865C169.607 77.7258 168.664 76.8334 167.692 75.9959C166.48 74.9511 165.175 74.0322 164.377 72.4396C163.096 69.8833 164.151 67.1755 166.603 67.01C165.755 69.1884 166.855 70.3453 168.145 71.3978C169.465 72.4749 170.892 73.4223 171.528 75.3492C172.33 77.7806 171.198 79.9423 169.234 79.5865Z" fill="black"/>
<path d="M184.441 80.2187C183.047 80.2274 181.781 80.2274 180.495 80.2274C181.379 76.0208 181.62 72.1187 180.335 68.04C181.072 67.3253 182.243 67.3483 183.278 66.9751C184.149 66.6611 184.164 67.634 184.17 68.3295C184.194 70.7763 184.177 73.2237 184.187 75.6709C184.193 77.0059 184.027 78.369 184.971 79.4673C185.282 79.8304 184.934 80.1356 184.441 80.2187Z" fill="black"/>
<path d="M158.636 70.3941C158.499 69.4389 157.955 68.9483 157.579 68.2017C158.569 67.3261 159.77 67.2992 160.852 66.9691C161.726 66.7025 161.654 67.76 161.663 68.4159C161.702 71.0452 161.696 73.6754 161.708 76.3053C161.714 77.5152 161.647 78.7448 162.631 79.9195C160.922 80.4307 159.496 80.217 157.889 80.1109C159.2 76.919 158.57 73.7014 158.636 70.3941Z" fill="black"/>
<path d="M199.526 75.1617C199.133 70.3536 201.218 66.7557 204.217 67.1251C203.041 69.0662 202.66 71.1981 202.73 73.5123C202.878 78.4281 203.922 79.5823 207.823 78.9701C207.014 80.3587 206.07 80.6762 203.79 80.2053C201.487 79.7294 200.146 77.9904 199.526 75.1617Z" fill="black"/>
<path d="M197.595 76.4683C197.503 77.7291 197.861 78.6267 198.482 79.3755C196.451 81.1233 194.63 80.2537 194.456 77.4781C194.36 75.9506 194.528 74.4005 194.554 72.86C194.571 71.8321 194.606 70.7955 194.52 69.7768C194.441 68.841 194.21 67.9238 194.046 67.0014C196.066 66.3431 197.384 67.3632 197.553 69.9314C197.692 72.0396 197.589 74.171 197.595 76.4683Z" fill="black"/>
<path d="M171.865 67.7147C173.323 69.1713 173.963 71.0914 174.656 72.9693C175.024 73.9668 175.362 74.9802 175.728 75.9783C176.393 77.7883 177.351 79.151 179.239 79.2646C178.186 80.5694 176.96 80.4508 175.724 79.9243C174.668 79.4743 173.972 78.4598 173.473 77.3013C172.811 75.7634 172.225 74.1777 171.615 72.6072C170.757 70.3979 169.855 68.2299 167.606 66.7605C169.449 66.2725 170.622 66.8641 171.865 67.7147Z" fill="black"/>
<path d="M177.877 66.2359C178.43 67.1633 179.277 66.5012 180.118 67.2715C177.188 68.1213 177.82 70.8259 177.784 73.1904C177.76 74.7205 177.779 76.2516 177.59 77.8427C175.124 74.859 175.03 70.6808 173.808 66.8725C175.423 66.3323 176.408 64.7667 177.262 62.856C178.129 63.9566 177.576 65.1257 177.877 66.2359Z" fill="black"/>
<path d="M191.585 75.9529C191.453 77.7016 191.914 78.8732 193.585 79.4108C192.022 80.56 190.696 80.6483 189.489 79.6172C188.343 78.6388 187.968 77.1709 188.506 75.5058C189.12 73.6028 190.982 72.4076 193.095 72.6799C192.55 73.7532 191.63 74.5085 191.585 75.9529Z" fill="black"/>
<path d="M160.074 60.308C161.794 61.2273 162.273 62.7973 161.309 64.0164C160.802 64.6565 160.162 65.0054 159.433 64.6536C158.622 64.2619 158.108 63.471 158.178 62.4202C158.259 61.1956 158.934 60.495 160.074 60.308Z" fill="black"/>
<path d="M186.338 69.6907C185.862 69.1578 185.316 69.6082 184.869 69.2668C184.925 68.0913 185.538 67.3805 186.334 66.9847C187.088 66.6097 187.941 66.6201 188.606 67.2883C189.292 67.9773 188.659 68.7083 188.468 69.372C188.234 70.1847 188.167 71.1366 187.463 71.6826C186.839 71.2386 186.944 70.2558 186.338 69.6907Z" fill="black"/>
<path d="M164.628 76.2081C165.188 77.6686 166.032 78.712 167.031 79.9364C165.807 80.2259 164.558 80.5327 163.944 79.5694C163.221 78.4363 163.522 76.8248 163.812 75.4494C164.365 75.3263 164.386 75.8317 164.628 76.2081Z" fill="black"/>
<path d="M233.027 76.2246C233.207 75.0677 233.6 75.4675 233.801 75.9871C234.398 77.5228 235.319 78.7274 236.424 79.8361C233.646 80.8453 233.024 80.1818 233.027 76.2246Z" fill="black"/>
<path d="M240.802 70.7518C240.646 71.7484 240.261 71.6835 240.01 71.0536C239.439 69.6229 238.678 68.363 237.73 67.1817C240.541 66.2832 240.781 66.5663 240.802 70.7518Z" fill="black"/>
<path d="M243.184 76.8619C243.706 78.1717 244.615 78.8993 245.504 79.949C244.299 80.354 243.036 80.4834 242.383 79.6849C241.513 78.6222 242.027 76.9644 242.105 75.498C242.777 75.6573 242.85 76.3167 243.184 76.8619Z" fill="black"/>
<path d="M207.442 69.3425C206.88 68.5249 206.374 67.8272 205.816 67.057C208.994 66.7569 209.83 68.109 208.769 71.7474C207.921 71.3018 207.946 70.1768 207.442 69.3425Z" fill="black"/>
<path d="M248.432 69.7219C247.859 68.8094 247.341 68.0186 246.751 67.118C247.66 66.5814 248.893 66.5278 249.37 67.1754C250.222 68.3308 249.795 70.0392 249.771 71.6425C248.787 71.4875 248.853 70.4422 248.432 69.7219Z" fill="black"/>
<path d="M190.108 71.2072C189.725 71.6941 189.445 71.6443 189.448 71.0788C189.456 69.8168 189.542 68.5555 189.599 67.2268C190.546 67.1411 191.355 67.1672 192.312 67.4501C191.615 68.8151 190.644 69.7663 190.108 71.2072Z" fill="black"/>
</g>
<defs>
<clipPath id="clip0_251_291">
<rect width="390" height="844" fill="white"/>
</clipPath>
</defs>
</svg>
