<svg width="390" height="844" viewBox="0 0 390 844" fill="none" xmlns="http://www.w3.org/2000/svg">
<rect width="390" height="844" fill="black"/>
<circle cx="195" cy="422" r="75" fill="white"/>
<path d="M298 422.5C298 479.661 251.661 526 194.5 526C137.339 526 91 479.661 91 422.5C91 365.339 137.339 319 194.5 319C251.661 319 298 365.339 298 422.5ZM95.1597 422.5C95.1597 477.364 139.636 521.84 194.5 521.84C249.364 521.84 293.84 477.364 293.84 422.5C293.84 367.636 249.364 323.16 194.5 323.16C139.636 323.16 95.1597 367.636 95.1597 422.5Z" fill="url(#paint0_linear_1_2)"/>
<path d="M166.642 410.388C165.279 404.321 166.254 398.787 169.501 393.669C170.749 391.703 172.409 390.155 174.494 389.11C175.176 388.768 175.961 388.496 176.431 389.387C176.905 390.284 176.254 390.781 175.559 391.125C169.324 394.218 166.872 404.788 169.178 410.666C170.796 414.791 174.149 417.142 178.343 417.025C182.751 416.903 185.661 413.241 184.873 408.864C184.087 404.497 182.032 401.063 177.972 399.028C177.313 398.697 176.655 398.327 176.082 397.867C175.426 397.342 175.345 396.385 176.132 396.221C177.88 395.855 177.49 394.657 177.405 393.596C177.176 390.71 177.135 390.533 180.005 390.368C185.229 390.069 189.825 391.385 192.753 396.258C193.655 397.761 195.067 397.968 196.01 396.516C198.532 392.633 202.465 392.051 206.472 391.954C208.227 391.912 209.887 391.136 211.603 391.43C217.738 392.478 221.238 397.32 222.401 403.845C222.982 407.105 222.714 410.355 221.604 413.488C219.18 420.333 211.36 422.336 205.999 417.396C204.71 416.208 203.475 415.739 201.772 415.772C196.88 415.867 191.985 415.819 187.091 415.791C186.132 415.786 185.378 416.015 184.639 416.7C180.849 420.217 174.635 420.218 170.772 416.752C168.866 415.041 167.478 412.977 166.642 410.388ZM205.946 401.089C206.588 400.473 207.621 400.221 207.816 399.191C208.071 397.845 208.275 396.488 208.486 395.133C208.632 394.191 208.018 393.832 207.273 393.882C203.718 394.118 200.116 394.045 197.716 397.597C195.805 400.424 192.827 400.246 191.08 397.355C188.649 393.33 184.923 392.217 180.575 392.36C180.182 392.373 179.771 392.388 179.51 392.776C179.035 393.482 179.644 397.301 180.407 397.774C183.914 399.951 185.851 403.209 186.853 407.114C187.031 407.809 187.402 408.202 188.041 408.431C189.863 409.085 191.326 410.254 192.508 411.76C193.507 413.032 194.595 413.16 195.665 412.012C197.17 410.4 199.02 409.497 201.094 408.958C201.874 408.755 202.336 408.382 202.443 407.459C202.73 404.972 203.908 402.917 205.946 401.089ZM207.422 415.74C212.887 419.753 218.366 417.779 219.84 411.207C220.512 408.211 220.538 405.136 219.688 402.196C218.596 398.423 216.533 395.334 212.557 394.03C211.91 393.818 210.999 393.46 210.749 394.268C210.284 395.772 209.573 397.514 210.297 398.932C211.188 400.676 210.321 401.098 209.121 401.768C203.921 404.668 203.031 411.323 207.422 415.74ZM198.702 411.991C198.251 412.378 197.564 412.529 197.437 413.252C198.967 413.676 201.49 413.656 202.876 413.201C202.776 412.377 202.723 411.538 202.135 410.833C200.962 410.924 199.94 411.405 198.702 411.991ZM190.173 412.084C189.35 411.426 188.587 410.659 187.386 410.444C187.239 411.455 187.112 412.336 186.974 413.288C188.34 413.694 189.588 413.607 190.817 413.393C190.939 412.797 190.576 412.556 190.173 412.084Z" fill="black"/>
<path d="M206.033 388.725C208.849 383.808 207.651 379.156 202.931 376.244C197.34 372.794 190.042 373.507 185.977 377.93C184.007 380.073 183.129 382.699 182.808 385.55C182.672 386.768 182.979 387.397 184.411 387.511C186.859 387.705 189.237 388.342 191.283 389.83C191.739 390.162 192.155 390.567 192.529 390.992C192.857 391.364 192.949 391.842 192.529 392.217C192.191 392.518 191.75 392.476 191.433 392.182C188.493 389.452 184.88 388.981 181.107 389.027C180.472 389.035 179.747 388.809 180.105 388.096C180.867 386.575 180.475 384.946 180.81 383.386C182.141 377.186 186.254 373.109 192.523 372C198.881 370.876 205.248 373.478 208.33 378.466C209.96 381.103 210.187 383.927 209.433 386.884C209.206 387.775 208.638 388.528 209.184 389.636C209.608 390.495 208.566 390.682 207.887 390.681C205.942 390.676 204.038 390.948 202.144 391.36C200.686 391.677 199.298 392.144 198.036 392.966C197.52 393.301 196.889 393.8 196.439 392.988C196.027 392.244 196.697 391.84 197.225 391.516C199.608 390.052 202.264 389.469 204.99 389.114C205.315 389.071 205.628 388.923 206.033 388.725Z" fill="black"/>
<path d="M240.8 443.554C241.547 443.033 242.186 442.553 243.066 442.71C242.192 444.789 242.329 445.294 244.251 446.802C245.591 447.855 247.134 448.656 248.205 450.04C249.11 451.209 249.413 452.544 248.876 453.912C248.385 455.164 247.334 455.774 245.755 455.889C246.971 453.841 245.621 452.909 244.377 451.999C242.488 450.615 240.493 449.354 239.672 447.028C235.739 447.417 234.863 446.907 233.157 443.178C232.255 441.205 231.477 439.173 230.546 437.214C228.962 433.883 228.242 433.489 224.803 433.779C225.48 432.269 227.623 431.404 229.473 431.895C231.373 432.4 232.57 433.733 233.491 435.378C234.527 437.226 235.347 439.172 236.058 441.167C236.287 441.812 236.544 442.452 236.843 443.067C238.229 445.916 238.766 445.99 240.8 443.554Z" fill="black"/>
<path d="M135.191 446.633C135.193 448.349 135.183 449.894 135.2 451.438C135.216 452.901 134.96 454.426 136.506 455.83C134.196 456.121 132.339 456.052 130.083 455.913C131.581 454.526 131.389 453.024 131.388 451.562C131.387 448.302 131.408 445.041 131.382 441.781C131.369 440.211 131.712 438.574 130.295 437.02C132.413 437.02 134.138 437.02 135.981 437.02C134.555 440.12 135.43 443.331 135.191 446.633Z" fill="black"/>
<path d="M220.136 435.966C220.538 435.881 220.823 435.853 221.097 435.78C224.082 434.982 224.091 434.98 224.096 438.019C224.103 442.543 224.091 447.067 224.098 451.591C224.1 452.998 223.901 454.45 225.204 455.847C223.12 456.096 221.37 456.053 219.196 455.92C220.726 454.474 220.522 452.918 220.52 451.402C220.516 447.737 220.521 444.073 220.512 440.408C220.509 439.161 220.681 437.884 219.635 436.867C219.185 436.431 219.642 436.186 220.136 435.966Z" fill="black"/>
<path d="M143.789 445.487C143.644 443.853 143.422 442.388 142.859 440.999C142.257 439.514 141.681 438.933 139.287 437.317C140.876 436.694 143.997 437.868 145.785 439.76C148.281 442.401 148.913 447.155 147.258 450.836C145.923 453.807 142.367 455.955 138.359 455.785C143.61 453.847 144.035 449.895 143.789 445.487Z" fill="black"/>
<path d="M214.064 368.468C214.512 369.25 214.718 369.985 214.41 370.713C213.793 372.168 214.614 372.917 215.789 372.974C219.25 373.142 220.007 375.377 219.897 378.279C219.828 380.108 220.113 381.582 222.179 382.09C222.654 382.207 223.223 382.503 222.936 383.181C222.709 383.718 222.176 383.569 221.732 383.504C219.857 383.228 218.553 381.853 218.266 379.786C218.173 379.111 218.202 378.417 218.196 377.731C218.173 375.242 217.998 375.025 215.593 374.59C215.426 374.56 215.188 374.611 215.096 374.515C213.608 372.969 211.418 372.969 209.699 372.021C207.223 370.656 206.089 368.301 206.168 365.43C206.187 364.72 206.008 363.711 206.979 363.603C208.16 363.472 207.494 364.733 207.915 365.268C208.459 364.854 208.949 364.367 209.532 364.056C211.305 363.108 213.306 364.332 213.156 366.344C213.087 367.263 213.252 367.88 214.064 368.468ZM210.143 365.512C209.869 365.793 209.553 366.043 209.329 366.359C208.001 368.233 208.83 370.392 211.079 371.008C211.775 371.198 212.299 370.973 212.727 370.452C212.958 370.17 213.047 369.807 212.785 369.515C212.318 368.995 211.866 369.421 211.407 369.594C211.025 369.739 210.613 369.811 210.347 369.39C210.102 369.002 210.258 368.638 210.489 368.284C210.798 367.811 211.135 367.344 211.365 366.831C211.813 365.828 211.507 365.294 210.143 365.512Z" fill="black"/>
<path d="M217.817 455.785C214.195 456.476 212.749 455.314 212.714 451.794C212.698 450.081 212.735 448.367 212.748 446.654C212.758 445.334 212.786 444.008 211.386 442.927C213.57 442.215 214.833 440.73 215.915 438.601C216.499 439.943 216.089 441.004 216.37 441.935C216.785 443.31 218.084 442.282 218.851 442.733C218.971 443.369 218.415 443.35 218.118 443.498C216.848 444.13 216.317 445.193 216.3 446.55C216.277 448.378 216.288 450.206 216.3 452.033C216.31 453.592 216.692 454.888 218.547 454.967C218.599 455.513 218.247 455.605 217.817 455.785Z" fill="black"/>
<path d="M230.548 450.56C230.835 454.765 232.521 455.747 236.919 454.422C236.129 455.992 233.451 456.584 230.791 455.775C227.869 454.887 226.076 452.056 226.416 448.867C226.792 445.345 228.994 442.966 232.277 442.706C231.554 443.977 230.712 445.076 230.452 446.503C230.195 447.917 230.726 448.272 231.963 448.182C233.156 448.095 234.366 447.735 235.805 448.338C234.008 449.372 231.597 448.219 230.548 450.56Z" fill="black"/>
<path d="M259.759 451.72C260.093 454.311 259.162 455.519 256.654 455.748C257.638 453.763 256.306 452.82 254.99 451.875C253.512 450.814 251.937 449.857 250.982 448.222C249.476 445.644 250.75 443.085 253.682 442.774C252.989 444.964 253.241 445.576 255.437 447.152C257.13 448.368 259.113 449.308 259.759 451.72Z" fill="black"/>
<path d="M156.662 445.983C157.253 443.648 158.002 442.948 160.053 442.82C158.819 444.799 160.07 445.899 161.43 446.941C162.513 447.771 163.701 448.481 164.692 449.407C165.916 450.551 166.588 452.025 165.987 453.733C165.542 454.997 164.592 455.73 162.954 455.801C163.966 454.008 162.936 453.023 161.795 452.116C160.772 451.302 159.678 450.578 158.669 449.748C157.537 448.818 156.73 447.666 156.662 445.983Z" fill="black"/>
<path d="M181.082 453.606C181.014 454.601 181.943 454.913 182.181 455.862C180.25 456.132 178.401 456.049 176.659 455.922C177.802 451.828 177.956 447.955 176.57 443.822C177.424 443.187 178.825 443.135 180.09 442.795C181.136 442.515 181.026 443.536 181.033 444.181C181.066 447.274 181.064 450.368 181.082 453.606Z" fill="black"/>
<path d="M150.478 452.384C150.478 450.794 150.445 449.362 150.485 447.933C150.525 446.492 150.557 445.077 149.023 443.91C150.749 443.43 152.192 443.029 153.555 442.65C154.257 443.268 154.044 443.94 154.051 444.535C154.08 447.11 154.096 449.687 154.061 452.261C154.044 453.485 154.064 454.66 155.425 455.804C153.232 455.804 151.434 455.804 149.485 455.804C150.066 454.778 150.721 453.778 150.478 452.384Z" fill="black"/>
<path d="M200.599 453.653C198.603 450.232 198.987 446.446 201.525 444.15C202.487 443.28 203.566 442.586 205.218 442.819C202.792 445.656 202.851 448.822 203.595 451.986C204.37 455.284 206.562 456.075 209.502 454.34C209.731 454.206 209.973 454.096 210.319 453.918C208.996 456.928 203.57 456.752 200.599 453.653Z" fill="black"/>
<path d="M193.501 446.694C193.523 445.277 193.601 444.012 192.689 442.97C194.615 442.099 196.265 442.898 196.788 444.878C197.46 447.42 196.923 450.01 197.052 452.574C197.103 453.606 196.999 454.721 198.567 455.005C197.387 456.26 196.063 456.269 194.843 455.906C193.63 455.546 193.484 454.366 193.495 453.213C193.517 451.094 193.501 448.975 193.501 446.694Z" fill="black"/>
<path d="M173.131 454.634C173.863 454.975 174.602 454.61 175.207 455.043C173.522 456.623 170.915 456.388 169.221 454.495C168.061 453.199 167.452 451.581 166.73 450.031C166.128 448.739 165.513 447.453 164.904 446.163C164.228 444.731 163.124 443.692 161.763 442.843C163.36 442.127 165.499 442.722 166.956 444.207C168.395 445.675 169.032 447.587 169.833 449.412C170.653 451.281 171.257 453.292 173.131 454.634Z" fill="black"/>
<path d="M175.602 442.65C176.209 443.302 175.555 443.28 175.271 443.404C173.773 444.061 173.188 445.24 173.228 446.83C173.288 449.156 173.12 451.484 173.247 453.865C170.408 450.751 169.94 446.647 168.692 442.641C170.672 442.317 171.698 440.591 172.827 438.76C173.829 440.169 172.009 443.357 175.602 442.65Z" fill="black"/>
<path d="M189.877 452.431C189.866 453.956 190.475 454.853 191.965 455.037C190.794 456.239 188.802 456.391 187.449 455.485C186.088 454.574 185.577 452.821 186.208 451.233C186.917 449.452 189.416 448.173 191.637 448.547C190.706 449.667 189.648 450.696 189.877 452.431Z" fill="black"/>
<path d="M151.258 440.418C150.088 439.638 149.562 438.71 150.192 437.455C150.643 436.559 151.429 436.11 152.435 436.287C153.514 436.477 154.106 437.207 154.217 438.286C154.368 439.754 153.214 440.626 151.258 440.418Z" fill="black"/>
<path d="M184.452 442.631C186.82 443.034 186.938 443.192 186.095 445.24C185.782 446.003 185.718 446.918 184.91 447.553C184.153 446.383 183.994 444.448 181.748 445.314C182.172 443.757 182.931 442.88 184.452 442.631Z" fill="black"/>
<path d="M210.781 444.69C210.713 445.847 210.948 446.87 210.53 448.314C209.3 446.245 208.865 443.991 206.816 442.855C208.114 442.567 209.131 443.168 210.25 443.158C211.032 443.151 210.706 444.025 210.781 444.69Z" fill="black"/>
<path d="M239.675 455.412C239.585 453.912 239.585 452.522 239.585 450.71C240.971 452.53 241.447 454.73 243.551 455.59C242.182 456.183 240.982 455.594 239.675 455.412Z" fill="black"/>
<path d="M251.732 455.706C250.74 455.782 250.17 455.592 250.231 454.524C250.295 453.421 250.245 452.312 250.433 451.155C251.753 452.666 252.326 454.677 254.503 455.575C253.352 456.248 252.61 455.725 251.732 455.706Z" fill="black"/>
<path d="M248.622 443.659C248.639 445.028 248.639 446.244 248.639 447.46C247.239 446.048 246.815 444.017 245.044 442.883C246.294 442.969 247.61 442.163 248.622 443.659Z" fill="black"/>
<path d="M256.836 442.708C259.55 442.972 259.823 443.514 259.162 447.589C258.092 445.96 257.486 443.97 255.657 443.04C256.047 442.411 256.396 442.683 256.836 442.708Z" fill="black"/>
<path d="M159.514 454.773C159.912 455.131 160.475 455.208 160.384 455.982C159.227 455.862 158.074 455.742 156.725 455.602C156.545 454.145 156.513 452.684 156.777 450.988C157.936 452.222 158.203 453.815 159.514 454.773Z" fill="black"/>
<path d="M194.448 380.2C193.466 379.66 193.298 378.948 193.823 378.162C194.33 377.404 195.056 377.005 195.999 377.385C196.682 377.66 196.929 378.227 196.755 378.894C196.466 380 195.664 380.386 194.448 380.2Z" fill="black"/>
<path d="M200.718 380.189C199.501 379.113 199.808 378.217 200.924 377.538C201.514 377.178 202.241 377.203 202.827 377.688C203.338 378.109 203.37 378.677 203.076 379.223C202.596 380.117 201.854 380.517 200.718 380.189Z" fill="black"/>
<path d="M187.63 447.177C187.262 445.797 187.435 444.462 187.579 443.013C188.61 443.077 189.548 443.137 190.766 443.213C189.667 444.664 188.702 445.936 187.63 447.177Z" fill="black"/>
<path d="M190.43 402.652C190.426 401.913 190.402 401.341 190.425 400.771C190.449 400.173 190.276 399.358 191.208 399.361C191.991 399.363 191.951 400.097 191.971 400.653C192.065 403.219 192.153 405.786 192.209 408.353C192.222 408.971 192.209 409.776 191.346 409.742C190.549 409.71 190.488 408.945 190.478 408.302C190.451 406.475 190.445 404.648 190.43 402.652Z" fill="black"/>
<path d="M196.383 409.432C195.498 407.386 196.056 405.327 195.911 403.308C195.842 402.346 195.906 401.373 195.935 400.406C195.948 399.975 196.135 399.612 196.619 399.585C197.099 399.559 197.392 399.893 197.394 400.318C197.413 403.162 197.41 406.007 197.37 408.85C197.363 409.281 196.993 409.528 196.383 409.432Z" fill="black"/>
<defs>
<linearGradient id="paint0_linear_1_2" x1="194.5" y1="319" x2="194.5" y2="526" gradientUnits="userSpaceOnUse">
<stop stop-color="#D9D9D9"/>
<stop offset="1" stop-color="#D9D9D9" stop-opacity="0"/>
</linearGradient>
</defs>
</svg>
