<svg width="263" height="184" viewBox="0 0 263 184" fill="none" xmlns="http://www.w3.org/2000/svg">
<g clip-path="url(#clip0_948_412)">
<path d="M217.342 157.299C218.406 148.678 223.707 140.185 231.865 137.379C228.648 146.252 228.649 155.986 231.867 164.858C233.121 168.276 234.868 171.945 233.689 175.389C232.955 177.532 231.161 179.171 229.154 180.197C227.148 181.222 224.921 181.71 222.723 182.189L222.29 182.55C218.8 174.607 216.278 165.919 217.342 157.299Z" fill="#F0F0F0"/>
<path d="M231.946 137.542C227.195 142.907 224.243 149.644 223.507 156.796C223.322 158.332 223.378 159.889 223.674 161.408C224.009 162.879 224.729 164.232 225.759 165.327C226.699 166.368 227.78 167.323 228.452 168.576C228.787 169.222 228.982 169.932 229.026 170.66C229.069 171.388 228.959 172.117 228.703 172.799C228.109 174.515 226.939 175.914 225.748 177.242C224.425 178.716 223.027 180.227 222.465 182.181C222.397 182.418 222.036 182.298 222.104 182.061C223.083 178.66 226.358 176.729 227.92 173.666C228.649 172.237 228.955 170.577 228.272 169.069C227.674 167.75 226.56 166.764 225.6 165.719C224.58 164.665 223.831 163.376 223.419 161.963C223.048 160.464 222.932 158.912 223.077 157.374C223.35 153.906 224.161 150.502 225.483 147.288C226.971 143.611 229.072 140.218 231.695 137.255C231.857 137.072 232.108 137.36 231.946 137.542Z" fill="white"/>
<path d="M223.61 154.479C222.436 154.191 221.401 153.493 220.691 152.508C219.981 151.523 219.641 150.316 219.733 149.102C219.752 148.856 220.132 148.875 220.112 149.121C220.025 150.251 220.342 151.376 221.005 152.292C221.668 153.207 222.634 153.854 223.729 154.115C223.967 154.172 223.846 154.535 223.61 154.479Z" fill="white"/>
<path d="M225.213 164.863C227.334 163.587 228.899 161.553 229.597 159.165C229.666 158.929 230.027 159.049 229.958 159.285C229.227 161.768 227.594 163.882 225.384 165.205C225.174 165.331 225.004 164.988 225.213 164.863Z" fill="white"/>
<path d="M227.323 143.974C227.754 144.18 228.23 144.276 228.707 144.251C229.183 144.227 229.647 144.083 230.055 143.834C230.264 143.705 230.433 144.048 230.226 144.176C229.773 144.449 229.262 144.607 228.735 144.635C228.208 144.663 227.682 144.561 227.204 144.337C227.157 144.32 227.118 144.285 227.096 144.241C227.074 144.196 227.069 144.144 227.083 144.096C227.099 144.047 227.133 144.008 227.178 143.985C227.223 143.962 227.275 143.958 227.323 143.974Z" fill="white"/>
<path d="M256.732 152.777C256.603 152.861 256.475 152.945 256.347 153.032C254.629 154.17 253.005 155.448 251.492 156.851C251.374 156.958 251.255 157.068 251.14 157.178C247.531 160.598 244.583 164.664 242.447 169.169C241.599 170.962 240.887 172.818 240.318 174.72C239.533 177.347 238.888 180.259 237.333 182.408C237.173 182.634 237 182.849 236.814 183.054H222.76C222.728 183.038 222.696 183.025 222.664 183.009L222.103 183.035C222.125 182.934 222.151 182.831 222.174 182.731C222.186 182.673 222.202 182.614 222.215 182.556C222.225 182.518 222.234 182.479 222.241 182.443C222.244 182.43 222.247 182.417 222.25 182.408C222.257 182.372 222.267 182.34 222.273 182.307C222.414 181.729 222.559 181.151 222.709 180.572C222.709 180.569 222.709 180.569 222.712 180.566C223.863 176.162 225.389 171.815 227.522 167.841C227.586 167.721 227.65 167.599 227.72 167.479C228.691 165.693 229.806 163.99 231.052 162.386C231.737 161.511 232.466 160.671 233.235 159.869C235.228 157.802 237.53 156.064 240.058 154.719C245.099 152.037 250.934 151.009 256.321 152.647C256.459 152.689 256.594 152.731 256.732 152.777Z" fill="#F0F0F0"/>
<path d="M256.7 152.956C249.702 154.357 243.32 157.944 238.46 163.209C237.394 164.323 236.508 165.6 235.837 166.993C235.226 168.37 234.992 169.888 235.16 171.387C235.289 172.788 235.582 174.206 235.37 175.615C235.251 176.334 234.983 177.02 234.583 177.627C234.182 178.235 233.659 178.75 233.047 179.139C231.548 180.149 229.778 180.556 228.033 180.893C226.096 181.268 224.078 181.626 222.462 182.845C222.266 182.993 222.05 182.678 222.245 182.53C225.058 180.409 228.827 180.854 231.905 179.356C233.34 178.657 234.576 177.518 234.932 175.899C235.243 174.483 234.942 173.02 234.8 171.603C234.615 170.142 234.787 168.659 235.302 167.281C235.901 165.859 236.736 164.55 237.771 163.41C240.06 160.806 242.742 158.58 245.717 156.816C249.102 154.783 252.806 153.349 256.671 152.575C256.91 152.527 256.938 152.909 256.7 152.956Z" fill="white"/>
<path d="M239.926 161.421C239.16 160.479 238.751 159.294 238.773 158.077C238.794 156.859 239.244 155.689 240.042 154.776C240.205 154.591 240.496 154.837 240.334 155.021C239.589 155.871 239.17 156.961 239.152 158.094C239.135 159.228 239.52 160.33 240.238 161.203C240.394 161.393 240.081 161.609 239.926 161.421Z" fill="white"/>
<path d="M235.002 170.685C237.457 170.953 239.923 170.278 241.906 168.796C242.102 168.649 242.319 168.964 242.122 169.111C240.055 170.649 237.489 171.346 234.934 171.062C234.691 171.035 234.76 170.658 235.002 170.685Z" fill="white"/>
<path d="M249.166 155.286C249.387 155.713 249.71 156.078 250.105 156.347C250.501 156.617 250.956 156.784 251.431 156.832C251.675 156.857 251.605 157.233 251.363 157.209C250.839 157.153 250.336 156.968 249.898 156.671C249.461 156.374 249.102 155.973 248.854 155.504C248.827 155.462 248.817 155.411 248.826 155.362C248.835 155.312 248.862 155.268 248.902 155.238C248.944 155.209 248.995 155.198 249.044 155.207C249.094 155.216 249.138 155.245 249.166 155.286Z" fill="white"/>
<path d="M171.952 113.777C172.243 113.475 172.464 113.111 172.601 112.713C172.737 112.315 172.785 111.891 172.741 111.472C172.698 111.053 172.564 110.649 172.348 110.288C172.133 109.927 171.841 109.617 171.494 109.382L174.092 99.4806L169.087 101.177L167.387 110.32C167.033 110.933 166.915 111.656 167.055 112.351C167.195 113.047 167.583 113.666 168.146 114.092C168.709 114.518 169.407 114.722 170.108 114.664C170.81 114.606 171.466 114.29 171.952 113.777Z" fill="#9E616A"/>
<path d="M195.111 180.285L191.625 180.285L189.966 166.732L195.112 166.732L195.111 180.285Z" fill="#9E616A"/>
<path d="M196.001 183.691L184.758 183.691V183.548C184.758 182.378 185.219 181.256 186.04 180.429C186.861 179.602 187.974 179.138 189.134 179.138L196.001 179.138L196.001 183.691Z" fill="#2F2E41"/>
<path d="M178.616 180.285L175.13 180.285L173.471 166.732L178.617 166.732L178.616 180.285Z" fill="#9E616A"/>
<path d="M179.506 183.691L168.263 183.691V183.548C168.263 182.378 168.724 181.256 169.545 180.429C170.366 179.602 171.479 179.138 172.639 179.138L179.506 179.138L179.506 183.691Z" fill="#2F2E41"/>
<path d="M176.677 98.6248L175.339 98.9974C175.339 98.9974 171.842 121.84 171.558 133.878C171.274 145.915 172.411 176.296 172.411 176.296H179.806L185.778 124.706L188.622 176.296H196.585C196.585 176.296 202.273 108.656 199.713 103.211C197.154 97.765 176.677 98.6248 176.677 98.6248Z" fill="#2F2E41"/>
<path d="M187.344 58.3182C191.034 58.3182 194.026 55.3037 194.026 51.585C194.026 47.8663 191.034 44.8517 187.344 44.8517C183.654 44.8517 180.663 47.8663 180.663 51.585C180.663 55.3037 183.654 58.3182 187.344 58.3182Z" fill="#9E616A"/>
<path d="M204.264 67.0978L193.893 60.2679L183.147 60.6944L172.696 66.5246L176.677 88.8801L174.971 101.778C174.971 101.778 190.328 100.058 193.741 102.637C195.734 104.168 198.085 105.155 200.567 105.503L199.998 83.4346L204.264 67.0978Z" fill="#4B59AA"/>
<path d="M174.687 66.238L173.612 66.0133L172.696 66.5246C172.696 66.5246 170.136 69.9639 170.136 73.1166C170.136 76.2693 167.008 106.65 167.008 106.65L172.696 109.229L177.246 85.4408L174.687 66.238Z" fill="#4B59AA"/>
<path d="M193.195 46.6482C193.195 46.6482 194.943 43.2816 191.098 42.9755C191.098 42.9755 187.821 39.9793 184.48 42.4278C184.48 42.4278 182.658 42.4278 181.662 44.5058C181.662 44.5058 180.228 43.9581 179.913 45.424C179.913 45.424 178.865 48.4846 179.913 51.2391C180.962 53.9936 181.31 54.2997 181.31 54.2997C181.31 54.2997 179.587 48.5247 183.782 48.2186C187.976 47.9126 192.67 45.271 193.019 48.6376C193.369 52.0043 193.895 52.8338 193.895 52.8338C193.895 52.8338 197.215 48.0255 193.195 46.6482Z" fill="#2F2E41"/>
<path d="M106.858 86.2591H24.0985V23.7783H106.858V86.2591Z" fill="white"/>
<path d="M106.858 86.2591H24.0985V23.7783H106.858V86.2591ZM24.9517 24.6381V85.3993H106.005V24.6381H24.9517Z" fill="#E6E6E6"/>
<path d="M65.4523 71.0166C74.1553 71.0166 81.2104 63.9065 81.2104 55.1358C81.2104 46.3652 74.1553 39.2551 65.4523 39.2551C56.7494 39.2551 49.6942 46.3652 49.6942 55.1358C49.6942 63.9065 56.7494 71.0166 65.4523 71.0166Z" fill="#3F3D56"/>
<path d="M71.996 53.8023H66.6382V48.4029C66.6382 48.0659 66.5054 47.7427 66.269 47.5045C66.0325 47.2662 65.7119 47.1323 65.3775 47.1323C65.0431 47.1323 64.7225 47.2662 64.486 47.5045C64.2496 47.7427 64.1168 48.0659 64.1168 48.4029V53.8023H58.759C58.4247 53.8023 58.104 53.9362 57.8676 54.1744C57.6311 54.4127 57.4983 54.7359 57.4983 55.0728C57.4983 55.4098 57.6311 55.733 57.8676 55.9712C58.104 56.2095 58.4247 56.3434 58.759 56.3434H64.1168V61.7428C64.1168 62.0798 64.2496 62.4029 64.486 62.6412C64.7225 62.8795 65.0431 63.0133 65.3775 63.0133C65.7119 63.0133 66.0325 62.8795 66.269 62.6412C66.5054 62.4029 66.6382 62.0798 66.6382 61.7428V56.3434H71.996C72.3303 56.3434 72.651 56.2095 72.8874 55.9712C73.1239 55.733 73.2567 55.4098 73.2567 55.0728C73.2567 54.7359 73.1239 54.4127 72.8874 54.1744C72.651 53.9362 72.3303 53.8023 71.996 53.8023Z" fill="white"/>
<path d="M30.925 23.5175H0V0H30.925V23.5175Z" fill="white"/>
<path d="M30.925 23.5175H0V0H30.925V23.5175ZM0.568792 22.9443H30.3562V0.573218H0.568792V22.9443Z" fill="#E6E6E6"/>
<path d="M26.8459 6.40515H4.07886V7.93478H26.8459V6.40515Z" fill="#E4E4E4"/>
<path d="M26.8459 10.9938H4.07886V12.5234H26.8459V10.9938Z" fill="#E4E4E4"/>
<path d="M26.8459 15.5826H4.07886V17.1123H26.8459V15.5826Z" fill="#E4E4E4"/>
<path d="M236.543 183.732H205.618V160.214H236.543V183.732Z" fill="white"/>
<path d="M236.543 183.732H205.618V160.214H236.543V183.732ZM206.187 183.159H235.975V160.788H206.187V183.159Z" fill="#E6E6E6"/>
<path d="M232.464 166.62H209.697V168.149H232.464V166.62Z" fill="#E4E4E4"/>
<path d="M232.464 171.208H209.697V172.738H232.464V171.208Z" fill="#E4E4E4"/>
<path d="M232.464 175.797H209.697V177.327H232.464V175.797Z" fill="#E4E4E4"/>
<path d="M217.763 141.534L194.664 120.812L210.179 103.246L233.278 123.968L217.763 141.534Z" fill="white"/>
<path d="M217.763 141.534L194.664 120.812L210.179 103.246L233.278 123.968L217.763 141.534ZM195.467 120.765L217.716 140.724L232.475 124.015L210.226 104.055L195.467 120.765Z" fill="#E6E6E6"/>
<path d="M209 110.763L207.991 111.906L224.997 127.161L226.006 126.019L209 110.763Z" fill="#E4E4E4"/>
<path d="M205.973 114.191L204.964 115.333L221.969 130.589L222.978 129.446L205.973 114.191Z" fill="#E4E4E4"/>
<path d="M202.945 117.618L201.936 118.761L218.942 134.016L219.951 132.874L202.945 117.618Z" fill="#E4E4E4"/>
<path d="M48.4345 37.2747H13.9354V11.0392H48.4345V37.2747Z" fill="white"/>
<path d="M48.4345 37.2747H13.9354V11.0392H48.4345V37.2747ZM14.57 36.6352H47.8V11.6786H14.57V36.6352Z" fill="#E6E6E6"/>
<path d="M43.8839 18.1847H18.4856V19.8911H43.8839V18.1847Z" fill="#3F3D56"/>
<path d="M43.8839 23.3036H18.4856V25.01H43.8839V23.3036Z" fill="#3F3D56"/>
<path d="M43.8839 28.4229H18.4856V30.1293H43.8839V28.4229Z" fill="#3F3D56"/>
<path d="M137.965 105.956H85.3188V65.92H137.965V105.956Z" fill="white"/>
<path d="M137.965 105.956H85.3188V65.92H137.965V105.956ZM86.2872 104.98H136.997V66.8959H86.2872V104.98Z" fill="#E6E6E6"/>
<path d="M131.021 76.8242H92.2626V79.4283H131.021V76.8242Z" fill="#3F3D56"/>
<path d="M131.021 84.6357H92.2626V87.2398H131.021V84.6357Z" fill="#3F3D56"/>
<path d="M131.021 92.4479H92.2626V95.0519H131.021V92.4479Z" fill="#3F3D56"/>
<path d="M262.661 184H126.068C125.978 184 125.892 183.964 125.829 183.9C125.766 183.836 125.73 183.749 125.73 183.659C125.73 183.568 125.766 183.482 125.829 183.418C125.892 183.354 125.978 183.318 126.068 183.318H262.661C262.751 183.318 262.837 183.353 262.901 183.417C262.964 183.481 263 183.568 263 183.659C263 183.749 262.964 183.836 262.901 183.9C262.837 183.964 262.751 184 262.661 184Z" fill="#CACACA"/>
<path d="M200.728 113.561C200.525 113.193 200.403 112.785 200.373 112.365C200.343 111.944 200.405 111.523 200.554 111.129C200.703 110.735 200.936 110.38 201.237 110.087C201.537 109.794 201.898 109.57 202.293 109.433L202.31 99.191L206.714 102.129L206.022 111.404C206.208 112.088 206.137 112.818 205.825 113.453C205.512 114.089 204.979 114.587 204.326 114.853C203.674 115.118 202.947 115.134 202.284 114.896C201.621 114.658 201.067 114.183 200.728 113.561Z" fill="#9E616A"/>
<path d="M201.135 68.2442L203.103 66.3331L204.548 67.3844C204.548 67.3844 205.97 69.1041 207.108 74.263C208.245 79.422 207.108 107.796 207.108 107.796L200.851 106.936L201.704 92.0328L199.145 79.422L201.135 68.2442Z" fill="#4B59AA"/>
<path d="M28.7428 127.528H32.5028V129H26.9188V117.88H28.7428V127.528ZM42.1081 124.376C42.1081 124.707 42.0868 125.005 42.0441 125.272H35.3081C35.3615 125.976 35.6228 126.541 36.0921 126.968C36.5615 127.395 37.1375 127.608 37.8201 127.608C38.8015 127.608 39.4948 127.197 39.9001 126.376H41.8681C41.6015 127.187 41.1161 127.853 40.4121 128.376C39.7188 128.888 38.8548 129.144 37.8201 129.144C36.9775 129.144 36.2201 128.957 35.5481 128.584C34.8868 128.2 34.3641 127.667 33.9801 126.984C33.6068 126.291 33.4201 125.491 33.4201 124.584C33.4201 123.677 33.6015 122.883 33.9641 122.2C34.3375 121.507 34.8548 120.973 35.5161 120.6C36.1881 120.227 36.9561 120.04 37.8201 120.04C38.6521 120.04 39.3935 120.221 40.0441 120.584C40.6948 120.947 41.2015 121.459 41.5641 122.12C41.9268 122.771 42.1081 123.523 42.1081 124.376ZM40.2041 123.8C40.1935 123.128 39.9535 122.589 39.4841 122.184C39.0148 121.779 38.4335 121.576 37.7401 121.576C37.1108 121.576 36.5721 121.779 36.1241 122.184C35.6761 122.579 35.4095 123.117 35.3241 123.8H40.2041ZM46.0311 121.672V126.552C46.0311 126.883 46.1058 127.123 46.2551 127.272C46.4151 127.411 46.6818 127.48 47.0551 127.48H48.1751V129H46.7351C45.9138 129 45.2845 128.808 44.8471 128.424C44.4098 128.04 44.1911 127.416 44.1911 126.552V121.672H43.1511V120.184H44.1911V117.992H46.0311V120.184H48.1751V121.672H46.0311ZM50.1443 117.88H52.1283L50.4483 121.688H49.1683L50.1443 117.88ZM56.9313 129.144C56.2379 129.144 55.6139 129.021 55.0593 128.776C54.5153 128.52 54.0833 128.179 53.7633 127.752C53.4433 127.315 53.2726 126.829 53.2513 126.296H55.1393C55.1713 126.669 55.3473 126.984 55.6673 127.24C55.9979 127.485 56.4086 127.608 56.8993 127.608C57.4113 127.608 57.8059 127.512 58.0833 127.32C58.3713 127.117 58.5153 126.861 58.5153 126.552C58.5153 126.221 58.3553 125.976 58.0353 125.816C57.7259 125.656 57.2299 125.48 56.5473 125.288C55.8859 125.107 55.3473 124.931 54.9313 124.76C54.5153 124.589 54.1526 124.328 53.8433 123.976C53.5446 123.624 53.3953 123.16 53.3953 122.584C53.3953 122.115 53.5339 121.688 53.8113 121.304C54.0886 120.909 54.4833 120.6 54.9953 120.376C55.5179 120.152 56.1153 120.04 56.7873 120.04C57.7899 120.04 58.5953 120.296 59.2033 120.808C59.8219 121.309 60.1526 121.997 60.1953 122.872H58.3713C58.3393 122.477 58.1793 122.163 57.8913 121.928C57.6033 121.693 57.2139 121.576 56.7233 121.576C56.2433 121.576 55.8753 121.667 55.6193 121.848C55.3633 122.029 55.2353 122.269 55.2353 122.568C55.2353 122.803 55.3206 123 55.4913 123.16C55.6619 123.32 55.8699 123.448 56.1153 123.544C56.3606 123.629 56.7233 123.741 57.2033 123.88C57.8433 124.051 58.3659 124.227 58.7713 124.408C59.1873 124.579 59.5446 124.835 59.8433 125.176C60.1419 125.517 60.2966 125.971 60.3073 126.536C60.3073 127.037 60.1686 127.485 59.8913 127.88C59.6139 128.275 59.2193 128.584 58.7073 128.808C58.2059 129.032 57.6139 129.144 56.9313 129.144ZM73.1384 126.728H68.4824L67.6824 129H65.7784L69.7624 117.864H71.8744L75.8584 129H73.9384L73.1384 126.728ZM72.6264 125.24L70.8184 120.072L68.9944 125.24H72.6264ZM76.9826 124.552C76.9826 123.667 77.164 122.883 77.5266 122.2C77.9 121.517 78.4013 120.989 79.0306 120.616C79.6706 120.232 80.38 120.04 81.1586 120.04C81.7346 120.04 82.3 120.168 82.8546 120.424C83.42 120.669 83.868 121 84.1986 121.416V117.16H86.0386V129H84.1986V127.672C83.9 128.099 83.484 128.451 82.9506 128.728C82.428 129.005 81.8253 129.144 81.1426 129.144C80.3746 129.144 79.6706 128.952 79.0306 128.568C78.4013 128.173 77.9 127.629 77.5266 126.936C77.164 126.232 76.9826 125.437 76.9826 124.552ZM84.1986 124.584C84.1986 123.976 84.0706 123.448 83.8146 123C83.5693 122.552 83.244 122.211 82.8386 121.976C82.4333 121.741 81.996 121.624 81.5266 121.624C81.0573 121.624 80.62 121.741 80.2146 121.976C79.8093 122.2 79.4786 122.536 79.2226 122.984C78.9773 123.421 78.8546 123.944 78.8546 124.552C78.8546 125.16 78.9773 125.693 79.2226 126.152C79.4786 126.611 79.8093 126.963 80.2146 127.208C80.6306 127.443 81.068 127.56 81.5266 127.56C81.996 127.56 82.4333 127.443 82.8386 127.208C83.244 126.973 83.5693 126.632 83.8146 126.184C84.0706 125.725 84.1986 125.192 84.1986 124.584ZM87.8264 124.552C87.8264 123.667 88.0077 122.883 88.3704 122.2C88.7437 121.517 89.245 120.989 89.8744 120.616C90.5144 120.232 91.2237 120.04 92.0024 120.04C92.5784 120.04 93.1437 120.168 93.6984 120.424C94.2637 120.669 94.7117 121 95.0424 121.416V117.16H96.8824V129H95.0424V127.672C94.7437 128.099 94.3277 128.451 93.7944 128.728C93.2717 129.005 92.669 129.144 91.9864 129.144C91.2184 129.144 90.5144 128.952 89.8744 128.568C89.245 128.173 88.7437 127.629 88.3704 126.936C88.0077 126.232 87.8264 125.437 87.8264 124.552ZM95.0424 124.584C95.0424 123.976 94.9144 123.448 94.6584 123C94.413 122.552 94.0877 122.211 93.6824 121.976C93.277 121.741 92.8397 121.624 92.3704 121.624C91.901 121.624 91.4637 121.741 91.0584 121.976C90.653 122.2 90.3224 122.536 90.0664 122.984C89.821 123.421 89.6984 123.944 89.6984 124.552C89.6984 125.16 89.821 125.693 90.0664 126.152C90.3224 126.611 90.653 126.963 91.0584 127.208C91.4744 127.443 91.9117 127.56 92.3704 127.56C92.8397 127.56 93.277 127.443 93.6824 127.208C94.0877 126.973 94.413 126.632 94.6584 126.184C94.9144 125.725 95.0424 125.192 95.0424 124.584ZM111.37 120.184L105.962 133.144H104.074L105.866 128.856L102.394 120.184H104.426L106.906 126.904L109.482 120.184H111.37ZM116.571 129.144C115.739 129.144 114.987 128.957 114.315 128.584C113.643 128.2 113.115 127.667 112.731 126.984C112.347 126.291 112.155 125.491 112.155 124.584C112.155 123.688 112.352 122.893 112.747 122.2C113.142 121.507 113.68 120.973 114.363 120.6C115.046 120.227 115.808 120.04 116.651 120.04C117.494 120.04 118.256 120.227 118.939 120.6C119.622 120.973 120.16 121.507 120.555 122.2C120.95 122.893 121.147 123.688 121.147 124.584C121.147 125.48 120.944 126.275 120.539 126.968C120.134 127.661 119.579 128.2 118.875 128.584C118.182 128.957 117.414 129.144 116.571 129.144ZM116.571 127.56C117.04 127.56 117.478 127.448 117.883 127.224C118.299 127 118.635 126.664 118.891 126.216C119.147 125.768 119.275 125.224 119.275 124.584C119.275 123.944 119.152 123.405 118.907 122.968C118.662 122.52 118.336 122.184 117.931 121.96C117.526 121.736 117.088 121.624 116.619 121.624C116.15 121.624 115.712 121.736 115.307 121.96C114.912 122.184 114.598 122.52 114.363 122.968C114.128 123.405 114.011 123.944 114.011 124.584C114.011 125.533 114.251 126.269 114.731 126.792C115.222 127.304 115.835 127.56 116.571 127.56ZM130.934 120.184V129H129.11V127.96C128.822 128.323 128.443 128.611 127.974 128.824C127.515 129.027 127.025 129.128 126.502 129.128C125.809 129.128 125.185 128.984 124.63 128.696C124.086 128.408 123.654 127.981 123.334 127.416C123.025 126.851 122.87 126.168 122.87 125.368V120.184H124.678V125.096C124.678 125.885 124.875 126.493 125.27 126.92C125.665 127.336 126.203 127.544 126.886 127.544C127.569 127.544 128.107 127.336 128.502 126.92C128.907 126.493 129.11 125.885 129.11 125.096V120.184H130.934ZM135.165 121.464C135.431 121.016 135.783 120.669 136.221 120.424C136.669 120.168 137.197 120.04 137.805 120.04V121.928H137.341C136.626 121.928 136.082 122.109 135.709 122.472C135.346 122.835 135.165 123.464 135.165 124.36V129H133.341V120.184H135.165V121.464ZM56.6891 153.144C55.9957 153.144 55.3717 153.021 54.8171 152.776C54.2731 152.52 53.8411 152.179 53.5211 151.752C53.2011 151.315 53.0304 150.829 53.0091 150.296H54.8971C54.9291 150.669 55.1051 150.984 55.4251 151.24C55.7557 151.485 56.1664 151.608 56.6571 151.608C57.1691 151.608 57.5637 151.512 57.8411 151.32C58.1291 151.117 58.2731 150.861 58.2731 150.552C58.2731 150.221 58.1131 149.976 57.7931 149.816C57.4837 149.656 56.9877 149.48 56.3051 149.288C55.6437 149.107 55.1051 148.931 54.6891 148.76C54.2731 148.589 53.9104 148.328 53.6011 147.976C53.3024 147.624 53.1531 147.16 53.1531 146.584C53.1531 146.115 53.2917 145.688 53.5691 145.304C53.8464 144.909 54.2411 144.6 54.7531 144.376C55.2757 144.152 55.8731 144.04 56.5451 144.04C57.5477 144.04 58.3531 144.296 58.9611 144.808C59.5797 145.309 59.9104 145.997 59.9531 146.872H58.1291C58.0971 146.477 57.9371 146.163 57.6491 145.928C57.3611 145.693 56.9717 145.576 56.4811 145.576C56.0011 145.576 55.6331 145.667 55.3771 145.848C55.1211 146.029 54.9931 146.269 54.9931 146.568C54.9931 146.803 55.0784 147 55.2491 147.16C55.4197 147.32 55.6277 147.448 55.8731 147.544C56.1184 147.629 56.4811 147.741 56.9611 147.88C57.6011 148.051 58.1237 148.227 58.5291 148.408C58.9451 148.579 59.3024 148.835 59.6011 149.176C59.8997 149.517 60.0544 149.971 60.0651 150.536C60.0651 151.037 59.9264 151.485 59.6491 151.88C59.3717 152.275 58.9771 152.584 58.4651 152.808C57.9637 153.032 57.3717 153.144 56.6891 153.144ZM70.0199 144.184V153H68.1959V151.96C67.9079 152.323 67.5293 152.611 67.0599 152.824C66.6013 153.027 66.1106 153.128 65.5879 153.128C64.8946 153.128 64.2706 152.984 63.7159 152.696C63.1719 152.408 62.7399 151.981 62.4199 151.416C62.1106 150.851 61.9559 150.168 61.9559 149.368V144.184H63.7639V149.096C63.7639 149.885 63.9613 150.493 64.3559 150.92C64.7506 151.336 65.2893 151.544 65.9719 151.544C66.6546 151.544 67.1933 151.336 67.5879 150.92C67.9933 150.493 68.1959 149.885 68.1959 149.096V144.184H70.0199ZM74.2506 145.496C74.5599 145.069 74.9812 144.723 75.5146 144.456C76.0586 144.179 76.6612 144.04 77.3226 144.04C78.1012 144.04 78.8052 144.227 79.4346 144.6C80.0639 144.973 80.5599 145.507 80.9226 146.2C81.2852 146.883 81.4666 147.667 81.4666 148.552C81.4666 149.437 81.2852 150.232 80.9226 150.936C80.5599 151.629 80.0586 152.173 79.4186 152.568C78.7892 152.952 78.0906 153.144 77.3226 153.144C76.6399 153.144 76.0319 153.011 75.4986 152.744C74.9759 152.477 74.5599 152.136 74.2506 151.72V153H72.4266V141.16H74.2506V145.496ZM79.6106 148.552C79.6106 147.944 79.4826 147.421 79.2266 146.984C78.9812 146.536 78.6506 146.2 78.2346 145.976C77.8292 145.741 77.3919 145.624 76.9226 145.624C76.4639 145.624 76.0266 145.741 75.6106 145.976C75.2052 146.211 74.8746 146.552 74.6186 147C74.3732 147.448 74.2506 147.976 74.2506 148.584C74.2506 149.192 74.3732 149.725 74.6186 150.184C74.8746 150.632 75.2052 150.973 75.6106 151.208C76.0266 151.443 76.4639 151.56 76.9226 151.56C77.3919 151.56 77.8292 151.443 78.2346 151.208C78.6506 150.963 78.9812 150.611 79.2266 150.152C79.4826 149.693 79.6106 149.16 79.6106 148.552ZM84.1983 143.016C83.8676 143.016 83.5903 142.904 83.3663 142.68C83.1423 142.456 83.0303 142.179 83.0303 141.848C83.0303 141.517 83.1423 141.24 83.3663 141.016C83.5903 140.792 83.8676 140.68 84.1983 140.68C84.5183 140.68 84.7903 140.792 85.0143 141.016C85.2383 141.24 85.3503 141.517 85.3503 141.848C85.3503 142.179 85.2383 142.456 85.0143 142.68C84.7903 142.904 84.5183 143.016 84.1983 143.016ZM85.0943 154.728C85.0943 155.592 84.8756 156.216 84.4383 156.6C84.0116 156.995 83.3876 157.192 82.5663 157.192H81.6223V155.656H82.2463C82.6196 155.656 82.881 155.581 83.0303 155.432C83.1903 155.293 83.2703 155.059 83.2703 154.728V144.184H85.0943V154.728ZM95.5691 148.376C95.5691 148.707 95.5477 149.005 95.5051 149.272H88.7691C88.8224 149.976 89.0837 150.541 89.5531 150.968C90.0224 151.395 90.5984 151.608 91.2811 151.608C92.2624 151.608 92.9557 151.197 93.3611 150.376H95.3291C95.0624 151.187 94.5771 151.853 93.8731 152.376C93.1797 152.888 92.3157 153.144 91.2811 153.144C90.4384 153.144 89.6811 152.957 89.0091 152.584C88.3477 152.2 87.8251 151.667 87.4411 150.984C87.0677 150.291 86.8811 149.491 86.8811 148.584C86.8811 147.677 87.0624 146.883 87.4251 146.2C87.7984 145.507 88.3157 144.973 88.9771 144.6C89.6491 144.227 90.4171 144.04 91.2811 144.04C92.1131 144.04 92.8544 144.221 93.5051 144.584C94.1557 144.947 94.6624 145.459 95.0251 146.12C95.3877 146.771 95.5691 147.523 95.5691 148.376ZM93.6651 147.8C93.6544 147.128 93.4144 146.589 92.9451 146.184C92.4757 145.779 91.8944 145.576 91.2011 145.576C90.5717 145.576 90.0331 145.779 89.5851 146.184C89.1371 146.579 88.8704 147.117 88.7851 147.8H93.6651ZM96.7561 148.584C96.7561 147.677 96.9374 146.883 97.3001 146.2C97.6734 145.507 98.1854 144.973 98.8361 144.6C99.4867 144.227 100.233 144.04 101.076 144.04C102.143 144.04 103.023 144.296 103.716 144.808C104.42 145.309 104.895 146.029 105.14 146.968H103.172C103.012 146.531 102.756 146.189 102.404 145.944C102.052 145.699 101.609 145.576 101.076 145.576C100.329 145.576 99.7321 145.843 99.2841 146.376C98.8467 146.899 98.6281 147.635 98.6281 148.584C98.6281 149.533 98.8467 150.275 99.2841 150.808C99.7321 151.341 100.329 151.608 101.076 151.608C102.132 151.608 102.831 151.144 103.172 150.216H105.14C104.884 151.112 104.404 151.827 103.7 152.36C102.996 152.883 102.121 153.144 101.076 153.144C100.233 153.144 99.4867 152.957 98.8361 152.584C98.1854 152.2 97.6734 151.667 97.3001 150.984C96.9374 150.291 96.7561 149.491 96.7561 148.584ZM109.086 145.672V150.552C109.086 150.883 109.16 151.123 109.31 151.272C109.47 151.411 109.736 151.48 110.11 151.48H111.23V153H109.79C108.968 153 108.339 152.808 107.902 152.424C107.464 152.04 107.246 151.416 107.246 150.552V145.672H106.206V144.184H107.246V141.992H109.086V144.184H111.23V145.672H109.086Z" fill="#2F2E41"/>
</g>
<defs>
<clipPath id="clip0_948_412">
<rect width="263" height="184" fill="white"/>
</clipPath>
</defs>
</svg>
