<svg width="303" height="365" viewBox="0 0 303 365" fill="none" xmlns="http://www.w3.org/2000/svg">
<g clip-path="url(#clip0_311_747)">
<path d="M117.355 299.578C111.326 293.293 102.589 289.688 93.384 289.688L93.0289 289.689C86.9661 289.692 81.0115 288.066 75.774 284.979L75.229 284.658L75.668 284.201C78.0444 281.716 80.0287 278.876 81.5514 275.781C80.47 276.8 79.1801 277.566 77.7732 278.026C76.3662 278.485 74.8765 278.627 73.4096 278.44C71.8609 278.253 70.374 277.714 69.0607 276.864C67.7473 276.014 66.6415 274.874 65.8261 273.53C62.609 268.253 58.7742 260.767 58.7742 255.063C58.7792 250.242 59.7778 245.475 61.7063 241.066C63.6348 236.657 66.4509 232.703 69.9752 229.455C72.2063 227.421 73.9884 224.935 75.2053 222.158C76.4222 219.382 77.0466 216.377 77.0377 213.341L77.0359 212.909C77.0353 208.91 77.5186 204.927 78.4751 201.048L78.5723 200.656L78.971 200.67C81.5423 200.759 84.115 200.541 86.6359 200.021C84.2713 199.728 81.9581 199.106 79.7618 198.173L79.3328 197.998L79.4784 197.553C89.5135 191.273 112.166 194.525 125.314 164.118C135.975 139.462 173.591 186.005 173.591 212.909C173.591 215.654 170.903 219.281 172.916 221.096C194.665 240.71 179.658 253.305 174.927 265.978C173.804 268.985 176.238 272.286 176.238 275.539C176.238 276.091 176.224 276.661 176.197 277.233L176.155 278.112L175.43 277.624C173.995 276.674 172.665 275.571 171.463 274.335C172.71 277.237 173.298 280.384 173.183 283.545C173.068 286.707 172.254 289.802 170.799 292.603C168.52 296.951 166.315 300.064 164.245 301.855C157.615 307.59 149.069 310.548 140.353 310.125C131.637 309.702 123.41 305.929 117.355 299.578Z" fill="#E6E6E6"/>
<path d="M153.768 365C153.916 365 154.06 364.946 154.172 364.847C154.283 364.749 154.356 364.613 154.377 364.465C154.404 364.279 156.967 345.59 154.665 320.751C152.538 297.812 145.71 264.772 125.255 237.637C125.206 237.572 125.145 237.517 125.075 237.476C125.005 237.434 124.928 237.408 124.848 237.397C124.767 237.386 124.686 237.391 124.607 237.412C124.529 237.432 124.456 237.469 124.391 237.518C124.327 237.568 124.273 237.63 124.232 237.701C124.191 237.771 124.165 237.85 124.154 237.931C124.143 238.012 124.149 238.094 124.169 238.173C124.19 238.252 124.226 238.327 124.275 238.392C144.553 265.293 151.327 298.091 153.438 320.868C155.727 345.562 153.184 364.105 153.158 364.289C153.145 364.378 153.152 364.468 153.177 364.553C153.202 364.639 153.245 364.718 153.303 364.785C153.361 364.853 153.432 364.907 153.512 364.944C153.593 364.981 153.68 365 153.768 365Z" fill="#3F3D56"/>
<path d="M137.076 275.913C137.206 275.913 137.333 275.871 137.438 275.794C137.543 275.717 137.622 275.608 137.662 275.483C137.702 275.358 137.702 275.223 137.662 275.098C137.622 274.973 137.544 274.864 137.439 274.786C131.61 270.798 125.314 267.558 118.694 265.141C108.353 261.314 92.6268 257.844 76.4374 263.053C76.3601 263.077 76.2884 263.117 76.2264 263.17C76.1644 263.223 76.1133 263.287 76.076 263.36C76.0387 263.433 76.016 263.512 76.0091 263.594C76.0022 263.675 76.0113 263.757 76.0358 263.835C76.0604 263.913 76.1 263.986 76.1522 264.048C76.2045 264.111 76.2685 264.162 76.3405 264.2C76.4125 264.237 76.4911 264.26 76.5718 264.267C76.6526 264.274 76.7338 264.264 76.811 264.239C92.6688 259.138 108.11 262.55 118.271 266.311C124.784 268.687 130.979 271.872 136.714 275.794C136.819 275.871 136.946 275.913 137.076 275.913Z" fill="#3F3D56"/>
<path d="M165.271 204.929C165.28 204.798 165.249 204.667 165.18 204.555C165.111 204.443 165.009 204.356 164.889 204.307C164.768 204.257 164.635 204.247 164.509 204.279C164.383 204.31 164.269 204.381 164.186 204.482C159.831 210.071 156.181 216.186 153.319 222.685C148.798 232.836 144.242 248.441 148.215 265.138C148.234 265.218 148.268 265.293 148.315 265.359C148.363 265.426 148.423 265.482 148.492 265.524C148.561 265.567 148.638 265.596 148.718 265.609C148.798 265.621 148.879 265.618 148.958 265.599C149.037 265.58 149.111 265.545 149.176 265.497C149.242 265.449 149.297 265.388 149.34 265.318C149.382 265.249 149.41 265.171 149.423 265.09C149.435 265.009 149.432 264.927 149.413 264.847C145.521 248.492 150 233.17 154.442 223.197C157.256 216.801 160.845 210.785 165.127 205.285C165.211 205.185 165.262 205.06 165.271 204.929Z" fill="#3F3D56"/>
<path d="M284.095 364.341H235.055L234.844 363.954C234.217 362.805 233.611 361.587 233.046 360.335C227.994 349.403 225.859 336.901 223.975 325.87L222.557 317.555C222.385 316.548 222.514 315.512 222.928 314.58C223.342 313.648 224.022 312.862 224.881 312.322C225.739 311.783 226.738 311.515 227.748 311.552C228.758 311.59 229.734 311.931 230.551 312.533C238.004 318.015 245.46 323.491 252.919 328.962C255.743 331.04 258.968 333.444 262.057 336.042C262.355 334.578 262.667 333.111 262.979 331.664C263.194 330.665 263.699 329.753 264.429 329.046C265.159 328.339 266.082 327.868 267.079 327.693C268.076 327.519 269.101 327.65 270.024 328.068C270.947 328.486 271.726 329.174 272.26 330.042L277.998 339.36C282.183 346.165 285.876 352.871 285.124 360.103C285.127 360.191 285.121 360.279 285.104 360.366C284.954 361.554 284.674 362.721 284.272 363.848L284.095 364.341Z" fill="#F0F0F0"/>
<path d="M261.248 169.455L251.783 134.044C251.378 132.545 250.406 131.268 249.077 130.487C247.747 129.706 246.168 129.485 244.679 129.871C243.908 130.07 243.186 130.427 242.556 130.918C241.927 131.409 241.402 132.024 241.016 132.727C240.629 133.429 240.388 134.204 240.307 135.003C240.226 135.803 240.307 136.611 240.545 137.378L251.492 173.856L257.219 196.305C256.385 196.949 255.767 197.837 255.45 198.848C255.132 199.859 255.13 200.944 255.444 201.957C255.758 202.969 256.373 203.859 257.204 204.506C258.036 205.153 259.045 205.525 260.093 205.573C261.142 205.62 262.179 205.34 263.065 204.77C263.95 204.201 264.641 203.37 265.043 202.39C265.445 201.41 265.538 200.328 265.311 199.293C265.084 198.257 264.547 197.317 263.773 196.601L261.248 169.455Z" fill="#A0616A"/>
<path d="M181.606 161.828L210.363 139.458C211.578 138.506 212.375 137.11 212.581 135.57C212.787 134.03 212.386 132.47 211.464 131.226C210.987 130.583 210.385 130.044 209.696 129.644C209.006 129.243 208.243 128.988 207.453 128.896C206.663 128.803 205.863 128.873 205.101 129.103C204.339 129.333 203.631 129.718 203.021 130.234L173.854 154.397L155.519 168.324C154.612 167.791 153.564 167.553 152.518 167.643C151.473 167.733 150.479 168.145 149.674 168.825C148.868 169.506 148.29 170.42 148.016 171.444C147.742 172.468 147.787 173.553 148.145 174.55C148.502 175.548 149.154 176.41 150.013 177.019C150.872 177.629 151.896 177.956 152.946 177.957C153.995 177.958 155.02 177.633 155.88 177.025C156.74 176.417 157.394 175.556 157.753 174.559L181.606 161.828Z" fill="#A0616A"/>
<path d="M205.044 166.971L203.776 195.587L243.577 186.843C240.189 175.345 237.886 173.383 240.431 165.381L205.044 166.971Z" fill="#A0616A"/>
<path d="M229.516 114.509H216.255L210.559 124.36L207.846 124.209C206.518 124.135 205.19 124.335 203.942 124.798C202.694 125.26 201.552 125.975 200.587 126.898C199.621 127.822 198.852 128.935 198.327 130.169C197.801 131.403 197.53 132.733 197.53 134.077L200.874 139.315C200.874 139.315 194.894 149.849 203.508 155.032C203.508 155.032 201.971 164.796 203.508 164.691C205.044 164.586 208.583 162.599 205.044 164.586C201.505 166.573 201.769 166.84 202.227 167.303L202.685 167.766L239.895 174.081C239.895 174.081 240.983 166.79 241.1 165.489C241.218 164.189 240.431 167.368 241.218 164.189C242.004 161.009 243.184 162.201 242.004 161.009C240.824 159.817 249.647 145.045 246.022 139.315L251.834 133.585C251.834 128.089 243.101 123.633 237.663 123.633H236.967L229.516 114.509Z" fill="#E6E6E6"/>
<path d="M197.564 353.308H192.196L189.642 332.38L197.564 332.381L197.564 353.308Z" fill="#A0616A"/>
<path d="M181.363 361.314C181.365 361.922 181.605 362.504 182.03 362.934C182.455 363.365 183.03 363.608 183.631 363.612H193.736L194.049 362.956L195.478 359.975L196.032 362.956L196.154 363.612H199.965L199.911 362.952L198.895 350.633L197.565 350.55L191.821 350.206L190.41 350.119V353.797C189.339 354.948 180.936 359.301 181.363 361.314Z" fill="#2F2E41"/>
<path d="M277.336 339.097L272.822 342.032L259.473 325.828L266.136 321.496L277.336 339.097Z" fill="#A0616A"/>
<path d="M267.996 354.69C268.324 355.199 268.837 355.558 269.425 355.687C270.012 355.817 270.626 355.707 271.134 355.381L279.632 349.855L279.544 349.133L279.151 345.844L281.212 348.048L281.666 348.533L284.871 346.448L284.472 345.923L277.023 336.118L275.861 336.776L270.846 339.628L269.613 340.327L271.582 343.42C271.297 344.974 266.56 353.23 267.996 354.69Z" fill="#2F2E41"/>
<path d="M302.376 364.723L136.168 364.887C136.002 364.886 135.843 364.819 135.726 364.7C135.609 364.581 135.544 364.42 135.544 364.252C135.544 364.085 135.609 363.924 135.726 363.805C135.843 363.686 136.002 363.619 136.168 363.618L302.376 363.454C302.542 363.455 302.7 363.522 302.817 363.641C302.934 363.76 303 363.921 303 364.089C303 364.256 302.934 364.417 302.817 364.536C302.7 364.655 302.542 364.722 302.376 364.723Z" fill="#CACACA"/>
<path d="M242.953 183.611C242.953 183.611 217.512 197.214 204.056 187.933C204.056 187.933 201.112 202.344 199.933 203.536C198.753 204.729 196.874 205.248 198.207 206.578C199.539 207.908 200.281 209.705 197.748 211.986C195.214 214.267 192.688 213.544 195.131 215.893C197.573 218.242 187.744 275.872 187.744 275.872C187.744 275.872 189.316 329.465 187.744 331.086C186.171 332.707 184.069 333.07 186.103 335.074C188.137 337.079 188.137 335.524 188.137 338.289V341.053L189.068 343.801H201.834C201.834 343.801 204.915 340.183 201.834 337.041C198.753 333.899 202.772 333.04 203.711 330.091C204.651 327.143 206.224 330.322 204.651 327.143C203.078 323.963 202.323 324.568 202.307 322.477C202.292 320.386 225.49 238.512 225.49 238.512L228.3 283.828L262.097 333.457L272.045 325.915C272.045 325.915 264.802 315.609 266.495 314.192C268.189 312.775 261.504 310.998 263.612 309.4C265.72 307.802 260.645 306.191 262.558 304.073C264.47 301.954 259.923 296.614 257.287 296.614C254.652 296.614 250.954 287.713 250.954 287.713L256.475 217.394L242.953 183.611Z" fill="#2F2E41"/>
<path d="M215.988 85.584C215.808 85.823 214.373 85.6943 212.648 85.4397C209.238 84.9363 208.773 85.5345 206.223 87.8788C202.53 91.2747 204.63 111.987 202.815 116.475L202.229 116.912C203.392 116.687 204.534 116.364 205.643 115.946C206.27 113.947 206.898 111.942 207.531 109.945C208.128 111.499 208.503 113.131 208.646 114.792C209.524 114.442 210.397 113.586 214.065 112.439C215.912 111.172 229.276 109.898 230.995 109.341C235.355 94.3448 228.328 88.2803 215.988 85.584Z" fill="#2F2E41"/>
<path d="M220.5 108.709C227.553 108.709 233.271 102.929 233.271 95.7993C233.271 88.6698 227.553 82.8901 220.5 82.8901C213.447 82.8901 207.729 88.6698 207.729 95.7993C207.729 102.929 213.447 108.709 220.5 108.709Z" fill="#A0616A"/>
<path d="M228.541 84.4461C227.821 84.3388 227.128 84.0933 226.5 83.7228C226.188 83.5326 225.936 83.2577 225.771 82.9295C225.607 82.6012 225.537 82.2328 225.57 81.8665C225.728 80.9492 226.753 80.4016 227.673 80.4574C228.588 80.5907 229.458 80.9464 230.207 81.494C230.125 80.6076 229.75 79.7749 229.143 79.1296C228.536 78.4843 227.733 78.0639 226.861 77.9359C228.07 77.87 229.327 77.8119 230.445 78.282C231.563 78.752 232.495 79.9159 232.293 81.1228C234.173 80.8781 236.026 82.2019 236.802 83.9496C237.578 85.6973 237.425 87.7498 236.805 89.5601C236.743 89.8373 236.624 90.098 236.455 90.3245C236.285 90.551 236.069 90.738 235.822 90.8729C235.189 91.1156 234.509 90.7086 233.96 90.3075C231.097 88.212 228.491 85.7792 226.198 83.0604" fill="#2F2E41"/>
<path d="M234.109 109.524C233.567 109.781 233.849 110.74 233.429 111.169C233.246 111.351 233.026 111.489 232.784 111.575C232.72 110.775 232.536 109.989 232.237 109.246C232.182 109.11 232.092 108.959 231.95 108.971C231.785 108.991 231.742 109.21 231.738 109.373C231.704 110.181 231.527 110.977 231.215 111.722C231.211 111.73 231.207 111.742 231.203 111.75C231.081 111.746 230.955 111.742 230.837 111.738C229.925 111.702 227.904 109.333 227.456 110.136C229.037 107.302 230.963 103.041 231.258 99.8022C231.36 99.1241 231.311 98.4314 231.113 97.7752C231.009 97.4488 230.815 97.1592 230.554 96.9408C230.293 96.7224 229.975 96.5844 229.638 96.5432C229.472 96.5355 229.306 96.565 229.153 96.6297C229 96.6943 228.862 96.7924 228.751 96.9169C228.639 97.0415 228.556 97.1894 228.508 97.3502C228.459 97.5109 228.446 97.6805 228.47 97.8468L228.242 97.815C226.127 96.0742 227.951 93.0496 225.49 91.8533C224.656 91.4479 219.553 92.8032 218.652 92.5647C218.633 91.6059 218.44 90.6589 218.082 89.7707C218.027 89.6355 217.937 89.4845 217.795 89.4964C217.63 89.5163 217.587 89.7349 217.583 89.8978C217.55 90.7062 217.372 91.5019 217.06 92.2468C215.813 92.0679 214.543 92.1354 213.321 92.4455C212.243 92.7316 211.221 93.2245 210.14 93.4868C209.605 93.6524 209.043 93.706 208.487 93.6445C207.932 93.583 207.394 93.4076 206.908 93.1291C205.536 92.199 205.296 90.1403 205.98 88.622C206.475 87.6478 207.144 86.7746 207.954 86.0465C208.571 85.4424 209.212 84.8621 209.853 84.2819C210.427 83.7612 211.001 83.2405 211.575 82.7199C212.298 82.0324 213.068 81.3975 213.879 80.8201C215.175 79.9617 216.63 79.3799 218.156 79.1106C219.682 78.8414 221.247 78.8902 222.753 79.2541C224.562 79.6913 226.98 79.0753 228.636 79.9298C229.501 80.3789 231.415 82.0999 232.174 82.7119C234.117 84.2739 232.802 83.0012 234.927 83.9043C239.992 86.0577 237.752 107.79 234.109 109.524Z" fill="#2F2E41"/>
<path d="M92.7055 203.747C136.447 203.747 171.906 167.904 171.906 123.689C171.906 79.4742 136.447 43.6311 92.7055 43.6311C48.9643 43.6311 13.5051 79.4742 13.5051 123.689C13.5051 167.904 48.9643 203.747 92.7055 203.747Z" fill="white"/>
<path d="M92.7055 204.546C48.5984 204.546 12.7146 168.273 12.7146 123.689C12.7146 79.1041 48.5985 42.8318 92.7055 42.8318C136.813 42.8318 172.696 79.1041 172.696 123.689C172.696 168.273 136.813 204.546 92.7055 204.546ZM92.7055 44.43C49.4703 44.43 14.2957 79.9854 14.2957 123.689C14.2957 167.392 49.4703 202.947 92.7055 202.947C135.941 202.947 171.115 167.392 171.115 123.689C171.115 79.9854 135.941 44.43 92.7055 44.43Z" fill="#4B59AA"/>
<path d="M81.901 165.355C80.5333 165.355 79.1844 165.033 77.9612 164.415C76.738 163.796 75.6741 162.899 74.8537 161.792L53.2466 132.671C52.5525 131.735 52.0475 130.67 51.7604 129.538C51.4733 128.405 51.4098 127.226 51.5734 126.068C51.7371 124.91 52.1247 123.797 52.7142 122.79C53.3037 121.784 54.0834 120.905 55.009 120.203C55.9346 119.502 56.9878 118.991 58.1085 118.701C59.2292 118.411 60.3955 118.347 61.5408 118.512C62.6861 118.678 63.7879 119.069 64.7834 119.665C65.7789 120.261 66.6485 121.049 67.3426 121.985L81.4787 141.036L117.785 85.9867C119.082 84.0231 121.097 82.6604 123.388 82.1981C125.678 81.7358 128.056 82.2117 130 83.5213C131.943 84.831 133.293 86.867 133.751 89.182C134.21 91.4969 133.741 93.9013 132.446 95.8665L89.2321 161.389C88.4504 162.574 87.399 163.553 86.1661 164.242C84.9332 164.932 83.5547 165.312 82.1462 165.352C82.0644 165.354 81.9827 165.355 81.901 165.355Z" fill="#4B59AA"/>
<path d="M174.305 48.633C174.525 47.1024 172.939 45.6021 170.763 45.282C168.586 44.9619 166.643 45.9431 166.423 47.4737C166.202 49.0043 167.788 50.5046 169.965 50.8248C172.142 51.1449 174.085 50.1636 174.305 48.633Z" fill="#E6E6E6"/>
<path d="M200.22 46.0769C200.441 44.5463 198.855 43.046 196.678 42.7259C194.501 42.4057 192.558 43.387 192.338 44.9176C192.118 46.4482 193.703 47.9485 195.88 48.2686C198.057 48.5887 200 47.6075 200.22 46.0769Z" fill="#3F3D56"/>
<path d="M167.208 27.4252C167.429 25.8946 165.843 24.3943 163.666 24.0742C161.489 23.7541 159.546 24.7354 159.326 26.266C159.106 27.7965 160.692 29.2969 162.868 29.617C165.045 29.9371 166.988 28.9558 167.208 27.4252Z" fill="#FF6584"/>
<path d="M155.947 18.7381C155.958 17.333 155.183 16.1879 154.216 16.1805C153.249 16.1731 152.456 17.3062 152.446 18.7114C152.435 20.1165 153.21 21.2616 154.177 21.269C155.144 21.2764 155.937 20.1433 155.947 18.7381Z" fill="#E6E6E6"/>
<path d="M152.129 2.55772C152.139 1.15257 151.364 0.00747577 150.397 8.41828e-05C149.43 -0.00730741 148.637 1.1258 148.627 2.53095C148.616 3.93609 149.392 5.08119 150.359 5.08858C151.326 5.09597 152.118 3.96286 152.129 2.55772Z" fill="#3F3D56"/>
<path d="M181.825 31.0343C181.836 29.6291 181.06 28.484 180.093 28.4766C179.126 28.4693 178.334 29.6024 178.323 31.0075C178.313 32.4127 179.088 33.5577 180.055 33.5651C181.022 33.5725 181.815 32.4394 181.825 31.0343Z" fill="#E6E6E6"/>
<path d="M169.302 37.3549C169.312 35.9497 168.537 34.8046 167.57 34.7972C166.603 34.7898 165.81 35.923 165.8 37.3281C165.789 38.7332 166.565 39.8783 167.532 39.8857C168.499 39.8931 169.291 38.76 169.302 37.3549Z" fill="#FF6584"/>
<path d="M186.735 49.0368C186.745 47.6316 185.97 46.4865 185.003 46.4791C184.036 46.4717 183.243 47.6048 183.233 49.01C183.222 50.4151 183.998 51.5602 184.965 51.5676C185.932 51.575 186.724 50.4419 186.735 49.0368Z" fill="#3F3D56"/>
<path d="M25.6783 238.292C25.8986 236.762 24.3127 235.261 22.136 234.941C19.9593 234.621 18.0162 235.602 17.7959 237.133C17.5756 238.664 19.1615 240.164 21.3382 240.484C23.5148 240.804 25.458 239.823 25.6783 238.292Z" fill="#E6E6E6"/>
<path d="M51.5938 235.736C51.8141 234.205 50.2282 232.705 48.0515 232.385C45.8748 232.065 43.9317 233.046 43.7114 234.577C43.4911 236.107 45.077 237.608 47.2537 237.928C49.4304 238.248 51.3735 237.267 51.5938 235.736Z" fill="#3F3D56"/>
<path d="M18.5818 217.084C18.8022 215.554 17.2162 214.054 15.0396 213.733C12.8629 213.413 10.9198 214.395 10.6994 215.925C10.4791 217.456 12.0651 218.956 14.2417 219.276C16.4184 219.596 18.3615 218.615 18.5818 217.084Z" fill="#FF6584"/>
<path d="M7.32075 208.397C7.33127 206.992 6.55586 205.847 5.58884 205.84C4.62181 205.832 3.82935 206.965 3.81884 208.371C3.80833 209.776 4.58375 210.921 5.55077 210.928C6.51779 210.936 7.31024 209.802 7.32075 208.397Z" fill="#E6E6E6"/>
<path d="M3.50213 192.217C3.51265 190.812 2.73724 189.667 1.77022 189.659C0.803193 189.652 0.0107458 190.785 0.000234175 192.19C-0.0102774 193.595 0.765127 194.74 1.73215 194.748C2.69918 194.755 3.49162 193.622 3.50213 192.217Z" fill="#3F3D56"/>
<path d="M33.1984 220.693C33.2089 219.288 32.4335 218.143 31.4665 218.136C30.4995 218.128 29.707 219.262 29.6965 220.667C29.686 222.072 30.4614 223.217 31.4284 223.224C32.3954 223.232 33.1879 222.099 33.1984 220.693Z" fill="#E6E6E6"/>
<path d="M20.675 227.014C20.6855 225.609 19.9101 224.464 18.9431 224.456C17.9761 224.449 17.1836 225.582 17.1731 226.987C17.1626 228.392 17.938 229.537 18.905 229.545C19.872 229.552 20.6645 228.419 20.675 227.014Z" fill="#FF6584"/>
<path d="M38.1081 238.696C38.1186 237.291 37.3432 236.146 36.3762 236.138C35.4091 236.131 34.6167 237.264 34.6062 238.669C34.5957 240.074 35.3711 241.219 36.3381 241.227C37.3051 241.234 38.0976 240.101 38.1081 238.696Z" fill="#3F3D56"/>
</g>
<defs>
<clipPath id="clip0_311_747">
<rect width="303" height="365" fill="white"/>
</clipPath>
</defs>
</svg>
