<svg width="275" height="166" viewBox="0 0 275 166" fill="none" xmlns="http://www.w3.org/2000/svg">
<g clip-path="url(#clip0_314_786)">
<path d="M275 129.54C275.006 130.652 274.571 131.72 273.791 132.51C273.011 133.301 271.95 133.748 270.841 133.754H87.838C87.2889 133.751 86.7458 133.64 86.2396 133.426C85.7334 133.213 85.2741 132.902 84.8879 132.511C84.5016 132.119 84.196 131.656 83.9886 131.146C83.7811 130.636 83.6758 130.09 83.6786 129.54V4.21388C83.6728 3.10211 84.1078 2.03355 84.8878 1.2433C85.6678 0.453044 86.729 0.0058141 87.8379 0H270.841C271.39 0.0028635 271.933 0.114128 272.439 0.32744C272.945 0.540751 273.404 0.851932 273.791 1.24322C274.177 1.6345 274.483 2.09823 274.69 2.60792C274.897 3.1176 275.003 3.66327 275 4.21377V129.54Z" fill="#E6E6E6"/>
<path d="M272.841 127.488C272.841 128.568 272.413 129.605 271.651 130.369C270.889 131.133 269.855 131.562 268.777 131.562H90.0267C88.9489 131.562 87.9152 131.133 87.1531 130.369C86.3909 129.605 85.9627 128.568 85.9627 127.488V6.32353C85.9627 5.2429 86.3909 4.20654 87.1531 3.44242C87.9152 2.6783 88.9489 2.24902 90.0267 2.24902H268.785C269.862 2.25119 270.893 2.68143 271.654 3.44531C272.414 4.2092 272.841 5.24432 272.841 6.32353V127.488Z" fill="white"/>
<path d="M95.5163 7.50952H263.478C264.118 7.50952 264.732 7.76432 265.184 8.21788C265.637 8.67143 265.891 9.28657 265.891 9.92799V123.413C265.891 124.054 265.637 124.67 265.184 125.123C264.732 125.577 264.118 125.831 263.478 125.831H95.5163C94.8765 125.831 94.2629 125.577 93.8106 125.123C93.3582 124.67 93.104 124.054 93.104 123.413V9.92799C93.104 9.28657 93.3582 8.67143 93.8106 8.21788C94.2629 7.76432 94.8765 7.50952 95.5163 7.50952Z" fill="#E6E6E6"/>
<path d="M97.6423 10.2314H261.17C261.81 10.2314 262.423 10.4862 262.876 10.9398C263.328 11.3934 263.582 12.0085 263.582 12.6499V120.079C263.582 120.721 263.328 121.336 262.876 121.789C262.423 122.243 261.81 122.498 261.17 122.498H97.6423C97.0025 122.498 96.389 122.243 95.9366 121.789C95.4842 121.336 95.2301 120.721 95.2301 120.079V12.6499C95.2301 12.0085 95.4842 11.3934 95.9366 10.9398C96.389 10.4862 97.0025 10.2314 97.6423 10.2314Z" fill="white"/>
<path d="M213.104 84.8605C212.46 84.86 211.824 84.724 211.236 84.4614C211.099 84.4005 210.969 84.3262 210.847 84.2396L198.962 75.8524C198.359 75.427 197.867 74.8626 197.528 74.2067C197.188 73.5508 197.011 72.8227 197.011 72.0837V60.6453C197.011 59.9064 197.188 59.1782 197.528 58.5224C197.867 57.8665 198.359 57.3021 198.962 56.8767L210.847 48.4895C210.969 48.4029 211.099 48.3285 211.236 48.2677C211.936 47.9556 212.703 47.8239 213.466 47.8845C214.23 47.945 214.967 48.196 215.609 48.6145C216.252 49.033 216.78 49.6058 217.145 50.2809C217.51 50.956 217.702 51.7119 217.702 52.48V80.2491C217.702 81.4717 217.217 82.6443 216.355 83.5088C215.493 84.3733 214.323 84.859 213.104 84.859L213.104 84.8605Z" fill="#3F3D56"/>
<path d="M186.506 87.1093H153.36C146.597 87.1037 141.117 82.7211 141.11 77.3132V55.416C141.117 50.008 146.597 45.6254 153.36 45.6199H186.593C193.307 45.6262 198.748 49.9774 198.756 55.3468V77.3132C198.749 82.7211 193.269 87.1037 186.506 87.1093Z" fill="#3F3D56"/>
<path d="M245.551 115.589C250.996 115.589 255.409 111.164 255.409 105.706C255.409 100.247 250.996 95.8223 245.551 95.8223C240.107 95.8223 235.693 100.247 235.693 105.706C235.693 111.164 240.107 115.589 245.551 115.589Z" fill="#E6E6E6"/>
<path d="M250.672 105.529L242.814 100.98C242.783 100.962 242.748 100.953 242.712 100.953C242.676 100.953 242.641 100.962 242.61 100.98C242.579 100.998 242.553 101.024 242.535 101.055C242.517 101.086 242.508 101.122 242.508 101.157V110.254C242.508 110.29 242.517 110.326 242.535 110.357C242.553 110.388 242.579 110.414 242.61 110.432C242.641 110.45 242.676 110.459 242.712 110.459C242.748 110.459 242.783 110.45 242.814 110.432L250.672 105.883C250.703 105.865 250.728 105.839 250.746 105.808C250.764 105.777 250.774 105.742 250.774 105.706C250.774 105.67 250.764 105.635 250.746 105.604C250.728 105.573 250.703 105.547 250.672 105.529L242.814 100.98C242.783 100.962 242.748 100.953 242.712 100.953C242.676 100.953 242.641 100.962 242.61 100.98C242.579 100.998 242.553 101.024 242.535 101.055C242.517 101.086 242.508 101.122 242.508 101.157V110.254C242.508 110.29 242.517 110.326 242.535 110.357C242.553 110.388 242.579 110.414 242.61 110.432C242.641 110.45 242.676 110.459 242.712 110.459C242.748 110.459 242.783 110.45 242.814 110.432L250.672 105.883C250.703 105.865 250.728 105.839 250.746 105.808C250.764 105.777 250.774 105.742 250.774 105.706C250.774 105.67 250.764 105.635 250.746 105.604C250.728 105.573 250.703 105.547 250.672 105.529Z" fill="white"/>
<path d="M232.752 144.57C232.758 145.682 232.323 146.75 231.543 147.54C230.763 148.331 229.701 148.778 228.593 148.784H45.5899C45.0408 148.781 44.4977 148.67 43.9915 148.456C43.4853 148.243 43.026 147.932 42.6397 147.541C42.2535 147.149 41.9479 146.686 41.7404 146.176C41.5329 145.666 41.4276 145.12 41.4305 144.57V19.2439C41.4247 18.1321 41.8596 17.0636 42.6396 16.2733C43.4197 15.4831 44.4808 15.0358 45.5898 15.03H228.592C229.141 15.0329 229.685 15.1442 230.191 15.3575C230.697 15.5708 231.156 15.882 231.543 16.2732C231.929 16.6645 232.234 17.1283 232.442 17.6379C232.649 18.1476 232.755 18.6933 232.752 19.2438V144.57Z" fill="#E6E6E6"/>
<path d="M230.593 142.518C230.593 143.598 230.165 144.635 229.403 145.399C228.641 146.163 227.607 146.592 226.529 146.592H47.7786C46.7008 146.592 45.6671 146.163 44.9049 145.399C44.1428 144.635 43.7146 143.598 43.7146 142.518V21.3536C43.7146 20.2729 44.1428 19.2366 44.9049 18.4724C45.6671 17.7083 46.7008 17.2791 47.7786 17.2791H226.537C227.614 17.2812 228.645 17.7115 229.406 18.4753C230.166 19.2392 230.593 20.2743 230.593 21.3536V142.518Z" fill="white"/>
<path d="M53.2681 22.5396H221.23C221.87 22.5396 222.484 22.7944 222.936 23.2479C223.388 23.7015 223.643 24.3166 223.643 24.958V138.443C223.643 139.084 223.388 139.7 222.936 140.153C222.484 140.607 221.87 140.862 221.23 140.862H53.2681C52.6284 140.862 52.0148 140.607 51.5624 140.153C51.11 139.7 50.8559 139.084 50.8559 138.443V24.958C50.8559 24.3166 51.11 23.7015 51.5624 23.2479C52.0148 22.7944 52.6284 22.5396 53.2681 22.5396Z" fill="#E6E6E6"/>
<path d="M55.3942 25.2615H218.922C219.561 25.2615 220.175 25.5163 220.627 25.9698C221.08 26.4234 221.334 27.0385 221.334 27.6799V135.109C221.334 135.751 221.08 136.366 220.627 136.819C220.175 137.273 219.561 137.528 218.922 137.528H55.3942C54.7544 137.528 54.1409 137.273 53.6885 136.819C53.2361 136.366 52.9819 135.751 52.9819 135.109V27.6799C52.9819 27.0385 53.2361 26.4234 53.6885 25.9698C54.1409 25.5163 54.7544 25.2615 55.3942 25.2615Z" fill="white"/>
<path d="M170.856 99.8905C170.212 99.89 169.576 99.7541 168.988 99.4914C168.851 99.4306 168.721 99.3562 168.598 99.2696L156.714 90.8824C156.111 90.457 155.619 89.8926 155.28 89.2367C154.94 88.5809 154.763 87.8527 154.763 87.1138V75.6754C154.763 74.9364 154.94 74.2083 155.28 73.5524C155.619 72.8965 156.111 72.3321 156.714 71.9068L168.598 63.5196C168.721 63.4329 168.851 63.3586 168.988 63.2977C169.688 62.9857 170.455 62.8539 171.218 62.9145C171.982 62.9751 172.719 63.226 173.361 63.6445C174.003 64.063 174.531 64.6358 174.897 65.3109C175.262 65.986 175.454 66.7419 175.454 67.51V95.2791C175.454 96.5017 174.969 97.6743 174.107 98.5388C173.245 99.4034 172.075 99.889 170.856 99.889L170.856 99.8905Z" fill="#3F3D56"/>
<path d="M144.258 102.139H111.112C104.349 102.134 98.869 97.7511 98.862 92.3432V70.446C98.869 65.0381 104.349 60.6555 111.112 60.6499H144.345C151.059 60.6563 156.5 65.0074 156.508 70.3769V92.3432C156.501 97.7511 151.021 102.134 144.258 102.139Z" fill="#3F3D56"/>
<path d="M203.303 130.619C208.748 130.619 213.161 126.194 213.161 120.736C213.161 115.277 208.748 110.852 203.303 110.852C197.859 110.852 193.445 115.277 193.445 120.736C193.445 126.194 197.859 130.619 203.303 130.619Z" fill="#E6E6E6"/>
<path d="M208.424 120.559L200.566 116.01C200.535 115.992 200.499 115.983 200.464 115.983C200.428 115.983 200.393 115.992 200.362 116.01C200.331 116.028 200.305 116.054 200.287 116.085C200.269 116.116 200.26 116.152 200.26 116.187V125.285C200.26 125.32 200.269 125.356 200.287 125.387C200.305 125.418 200.331 125.444 200.362 125.462C200.393 125.48 200.428 125.489 200.464 125.489C200.499 125.489 200.535 125.48 200.566 125.462L208.424 120.913C208.455 120.895 208.48 120.869 208.498 120.838C208.516 120.807 208.526 120.772 208.526 120.736C208.526 120.7 208.516 120.665 208.498 120.634C208.48 120.603 208.455 120.577 208.424 120.559L200.566 116.01C200.535 115.992 200.499 115.983 200.464 115.983C200.428 115.983 200.393 115.992 200.362 116.01C200.331 116.028 200.305 116.054 200.287 116.085C200.269 116.116 200.26 116.152 200.26 116.187V125.285C200.26 125.32 200.269 125.356 200.287 125.387C200.305 125.418 200.331 125.444 200.362 125.462C200.393 125.48 200.428 125.489 200.464 125.489C200.499 125.489 200.535 125.48 200.566 125.462L208.424 120.913C208.455 120.895 208.48 120.869 208.498 120.838C208.516 120.807 208.526 120.772 208.526 120.736C208.526 120.7 208.516 120.665 208.498 120.634C208.48 120.603 208.455 120.577 208.424 120.559Z" fill="white"/>
<path d="M191.321 161.786C191.327 162.898 190.892 163.967 190.112 164.757C189.332 165.547 188.271 165.994 187.162 166H4.15946C3.61038 165.997 3.06725 165.886 2.56106 165.673C2.05487 165.459 1.59555 165.148 1.20931 164.757C0.823075 164.366 0.517492 163.902 0.310009 163.392C0.102526 162.882 -0.0027925 162.337 6.48674e-05 161.786V36.4602C-0.00573347 35.3484 0.429216 34.2799 1.20923 33.4896C1.98925 32.6994 3.05044 32.2522 4.15934 32.2463H187.162C187.711 32.2492 188.254 32.3605 188.76 32.5738C189.267 32.7871 189.726 33.0983 190.112 33.4896C190.498 33.8808 190.804 34.3446 191.011 34.8543C191.219 35.3639 191.324 35.9096 191.321 36.4601V161.786Z" fill="#E6E6E6"/>
<path d="M189.163 159.734C189.163 160.815 188.734 161.851 187.972 162.615C187.21 163.379 186.176 163.808 185.099 163.808H6.34819C5.27035 163.808 4.23666 163.379 3.47451 162.615C2.71236 161.851 2.28419 160.815 2.28419 159.734V38.5699C2.28419 37.4892 2.71236 36.4529 3.47451 35.6888C4.23666 34.9246 5.27035 34.4954 6.34819 34.4954H185.107C186.183 34.4975 187.215 34.9278 187.975 35.6917C188.736 36.4555 189.163 37.4907 189.163 38.5699V159.734Z" fill="white"/>
<path d="M11.8377 39.7559H179.8C180.44 39.7559 181.053 40.0107 181.506 40.4642C181.958 40.9178 182.212 41.5329 182.212 42.1743V155.659C182.212 156.301 181.958 156.916 181.506 157.369C181.053 157.823 180.44 158.078 179.8 158.078H11.8377C11.198 158.078 10.5844 157.823 10.132 157.369C9.67963 156.916 9.42548 156.301 9.42548 155.659V42.1743C9.42548 41.5329 9.67963 40.9178 10.132 40.4642C10.5844 40.0107 11.198 39.7559 11.8377 39.7559Z" fill="#E6E6E6"/>
<path d="M13.9637 42.4775H177.491C177.808 42.4775 178.122 42.5401 178.414 42.6616C178.707 42.7832 178.973 42.9613 179.197 43.1859C179.421 43.4105 179.599 43.6771 179.72 43.9705C179.841 44.2639 179.903 44.5784 179.903 44.896V152.325C179.903 152.643 179.841 152.957 179.72 153.251C179.599 153.544 179.421 153.811 179.197 154.035C178.973 154.26 178.707 154.438 178.414 154.56C178.122 154.681 177.808 154.744 177.491 154.744H13.9637C13.324 154.744 12.7104 154.489 12.258 154.035C11.8057 153.582 11.5515 152.967 11.5515 152.325V44.896C11.5515 44.2546 11.8057 43.6394 12.258 43.1859C12.7104 42.7323 13.324 42.4775 13.9637 42.4775Z" fill="white"/>
<path d="M129.425 117.107C128.782 117.106 128.145 116.97 127.557 116.707C127.421 116.647 127.29 116.572 127.168 116.486L115.284 108.098C114.681 107.673 114.189 107.109 113.849 106.453C113.51 105.797 113.332 105.069 113.332 104.33V92.8914C113.332 92.1525 113.51 91.4243 113.849 90.7685C114.189 90.1126 114.681 89.5482 115.284 89.1228L127.168 80.7356C127.29 80.649 127.421 80.5746 127.557 80.5138C128.257 80.2017 129.024 80.07 129.788 80.1306C130.552 80.1911 131.288 80.4421 131.931 80.8606C132.573 81.2791 133.101 81.8519 133.466 82.527C133.832 83.2021 134.023 83.958 134.023 84.7261V112.495C134.023 113.718 133.539 114.89 132.677 115.755C131.814 116.619 130.645 117.105 129.425 117.105L129.425 117.107Z" fill="#4B59AA"/>
<path d="M102.828 119.355H69.6814C62.9189 119.35 57.4386 114.967 57.4316 109.559V87.6621C57.4386 82.2541 62.9189 77.8715 69.6814 77.866H102.914C109.629 77.8723 115.07 82.2235 115.078 87.5929V109.559C115.071 114.967 109.59 119.35 102.828 119.355Z" fill="#4B59AA"/>
<path d="M161.873 147.836C167.317 147.836 171.731 143.411 171.731 137.952C171.731 132.494 167.317 128.069 161.873 128.069C156.428 128.069 152.015 132.494 152.015 137.952C152.015 143.411 156.428 147.836 161.873 147.836Z" fill="#3F3D56"/>
<path d="M166.993 137.775L159.135 133.227C159.104 133.209 159.069 133.199 159.033 133.199C158.997 133.199 158.962 133.209 158.931 133.227C158.9 133.245 158.874 133.27 158.856 133.302C158.839 133.333 158.829 133.368 158.829 133.404V142.501C158.829 142.537 158.839 142.572 158.856 142.603C158.874 142.634 158.9 142.66 158.931 142.678C158.962 142.696 158.997 142.705 159.033 142.705C159.069 142.705 159.104 142.696 159.135 142.678L166.993 138.129C167.024 138.112 167.05 138.086 167.068 138.055C167.086 138.024 167.095 137.988 167.095 137.952C167.095 137.916 167.086 137.881 167.068 137.85C167.05 137.819 167.024 137.793 166.993 137.775L159.135 133.227C159.104 133.209 159.069 133.199 159.033 133.199C158.997 133.199 158.962 133.209 158.931 133.227C158.9 133.245 158.874 133.27 158.856 133.302C158.839 133.333 158.829 133.368 158.829 133.404V142.501C158.829 142.537 158.839 142.572 158.856 142.603C158.874 142.634 158.9 142.66 158.931 142.678C158.962 142.696 158.997 142.705 159.033 142.705C159.069 142.705 159.104 142.696 159.135 142.678L166.993 138.129C167.024 138.112 167.05 138.086 167.068 138.055C167.086 138.024 167.095 137.988 167.095 137.952C167.095 137.916 167.086 137.881 167.068 137.85C167.05 137.819 167.024 137.793 166.993 137.775Z" fill="white"/>
</g>
<defs>
<clipPath id="clip0_314_786">
<rect width="275" height="166" fill="white"/>
</clipPath>
</defs>
</svg>
