<svg width="240" height="389" viewBox="0 0 240 389" fill="none" xmlns="http://www.w3.org/2000/svg">
<g clip-path="url(#clip0_311_717)">
<path d="M117.056 205.006C136.067 205.006 151.479 189.608 151.479 170.614C151.479 151.62 136.067 136.222 117.056 136.222C98.0453 136.222 82.6339 151.62 82.6339 170.614C82.6339 189.608 98.0453 205.006 117.056 205.006Z" fill="#4B59AA"/>
<path d="M33.3377 254.299C32.6084 253.949 31.9866 253.411 31.5375 252.739C31.0885 252.067 30.8287 251.286 30.7854 250.479L30.2847 241.008C30.2229 239.817 30.6366 238.651 31.435 237.764C32.2333 236.877 33.3511 236.343 34.5431 236.279L113.553 232.109C114.745 232.047 115.913 232.461 116.8 233.258C117.687 234.056 118.222 235.173 118.286 236.363L118.787 245.835C118.849 247.026 118.435 248.192 117.637 249.079C116.838 249.966 115.721 250.5 114.529 250.564L35.519 254.734C34.7668 254.775 34.0165 254.625 33.3377 254.299Z" fill="#4B59AA"/>
<path d="M87.8033 254.484C87.0346 254.113 86.387 253.531 85.9357 252.807C85.4844 252.083 85.2478 251.246 85.2534 250.393L85.1598 232.561C85.1641 231.97 85.285 231.385 85.5155 230.841C85.746 230.296 86.0817 229.803 86.5033 229.388C86.9249 228.974 87.4242 228.646 87.9726 228.424C88.521 228.202 89.1077 228.091 89.6993 228.096L125.744 231.271C126.698 231.276 127.902 232.753 128.87 233.939C129.174 234.311 129.436 234.632 129.628 234.827C129.712 234.912 129.792 235.001 129.868 235.091C130.557 235.911 130.93 236.949 130.92 238.019L130.841 247.503C130.83 248.695 130.346 249.835 129.495 250.671C128.643 251.507 127.495 251.972 126.302 251.964L89.7462 254.928C89.0737 254.925 88.4101 254.774 87.8033 254.484Z" fill="#2F2E41"/>
<path d="M110.346 389H100.853C99.6596 388.999 98.5152 388.524 97.6711 387.681C96.8271 386.838 96.3523 385.694 96.351 384.502V304.168C96.3523 302.975 96.8271 301.832 97.6712 300.988C98.5152 300.145 99.6596 299.671 100.853 299.669H110.346C111.54 299.671 112.684 300.145 113.528 300.988C114.372 301.832 114.847 302.975 114.848 304.168V384.502C114.847 385.694 114.372 386.838 113.528 387.681C112.684 388.524 111.54 388.999 110.346 389Z" fill="#4B59AA"/>
<path d="M135.386 389H125.893C124.699 388.999 123.555 388.524 122.711 387.681C121.867 386.838 121.392 385.694 121.391 384.502V304.168C121.392 302.975 121.867 301.832 122.711 300.988C123.555 300.145 124.699 299.671 125.893 299.669H135.386C136.579 299.671 137.724 300.145 138.568 300.988C139.412 301.832 139.887 302.975 139.888 304.168V384.502C139.887 385.694 139.412 386.838 138.568 387.681C137.724 388.524 136.579 388.999 135.386 389Z" fill="#4B59AA"/>
<path d="M121.639 183.361L121.674 182.075C119.281 182.009 117.171 181.859 115.586 180.702C115.137 180.355 114.767 179.916 114.503 179.414C114.239 178.911 114.086 178.358 114.055 177.792C114.027 177.446 114.079 177.098 114.208 176.775C114.336 176.453 114.538 176.164 114.796 175.932C115.848 175.044 117.542 175.331 118.776 175.897L119.84 176.384L117.799 161.482L116.525 161.657L118.261 174.333C117.55 174.069 116.785 173.988 116.035 174.096C115.284 174.204 114.573 174.497 113.966 174.95C113.557 175.307 113.236 175.753 113.029 176.254C112.821 176.754 112.732 177.296 112.769 177.837C112.807 178.598 113.01 179.342 113.366 180.016C113.721 180.69 114.22 181.278 114.827 181.74C116.864 183.227 119.511 183.301 121.639 183.361Z" fill="#2F2E41"/>
<path d="M110.222 162.75H103.294V164.035H110.222V162.75Z" fill="#2F2E41"/>
<path d="M132.09 162.75H125.162V164.035H132.09V162.75Z" fill="#2F2E41"/>
<path d="M156.273 285.148L124.501 221.847H124.949C126.058 221.846 127.12 221.406 127.904 220.623C128.688 219.839 129.129 218.778 129.13 217.67V216.385C129.129 215.278 128.688 214.216 127.904 213.433C127.12 212.65 126.058 212.21 124.949 212.208H110.8C109.691 212.21 108.628 212.65 107.845 213.433C107.061 214.216 106.62 215.278 106.619 216.385V217.67C106.622 218.692 107.001 219.677 107.683 220.438C108.365 221.199 109.303 221.683 110.319 221.799L78.4559 285.182C76.9406 288.197 76.2224 291.548 76.3696 294.918C76.5168 298.288 77.5245 301.565 79.2969 304.436C81.0693 307.307 83.5474 309.677 86.4956 311.321C89.4437 312.965 92.7638 313.828 96.14 313.828H138.555C141.936 313.828 145.26 312.964 148.213 311.318C151.165 309.673 153.647 307.3 155.422 304.426C157.198 301.552 158.208 298.272 158.357 294.897C158.506 291.523 157.788 288.167 156.273 285.148Z" fill="#2F2E41"/>
<path d="M118.543 236.174L190.21 202.682C191.292 202.177 192.53 202.123 193.652 202.529C194.774 202.936 195.689 203.77 196.196 204.85L200.218 213.441C200.722 214.522 200.777 215.759 200.37 216.88C199.964 218.001 199.128 218.915 198.047 219.421L126.38 252.913C125.298 253.418 124.061 253.472 122.938 253.066C121.816 252.659 120.901 251.825 120.394 250.745L116.373 242.154C116.121 241.619 115.978 241.04 115.951 240.45C115.925 239.86 116.017 239.27 116.22 238.715C116.379 238.275 116.605 237.863 116.891 237.492C117.328 236.927 117.895 236.475 118.543 236.174Z" fill="#4B59AA"/>
<path d="M116.086 235.967L147.638 217.177C148.714 216.661 149.95 216.593 151.076 216.986C152.202 217.38 153.126 218.204 153.645 219.277L161.602 235.249C161.859 235.783 162.008 236.363 162.04 236.955C162.073 237.547 161.987 238.139 161.789 238.698C161.591 239.257 161.285 239.771 160.887 240.211C160.49 240.651 160.009 241.008 159.472 241.262L125.767 254.271C124.884 254.695 123.151 253.901 121.759 253.263C121.323 253.063 120.945 252.89 120.688 252.8C120.574 252.76 120.463 252.716 120.355 252.668C119.376 252.236 118.583 251.469 118.119 250.504L114.005 241.957C113.643 241.204 113.497 240.364 113.585 239.533C113.672 238.702 113.989 237.911 114.5 237.249C114.921 236.704 115.464 236.265 116.086 235.967Z" fill="#2F2E41"/>
<path d="M89.8688 152.726C89.4083 152.725 88.9671 152.541 88.6416 152.216C88.3161 151.89 88.1327 151.45 88.1315 150.989C88.1294 150.853 88.1448 150.716 88.1772 150.584L97.1743 110.989C97.2424 110.691 97.3877 110.416 97.5957 110.191C97.8036 109.967 98.067 109.801 98.3593 109.71C98.6516 109.619 98.9626 109.607 99.2613 109.674C99.56 109.741 99.8359 109.885 100.061 110.092L129.889 137.688C130.114 137.896 130.279 138.159 130.37 138.451C130.461 138.743 130.473 139.054 130.406 139.352C130.339 139.651 130.195 139.926 129.988 140.151C129.78 140.376 129.518 140.543 129.226 140.635L90.3918 152.648C90.2223 152.7 90.046 152.726 89.8688 152.726Z" fill="#3F3D56"/>
<path d="M114.266 123.781L95.5296 120.056L95.8244 118.756L112.389 122.046L114.266 123.781Z" fill="white"/>
<path d="M129.019 137.436L93.196 130.314L93.4909 129.008L127.141 135.694L129.019 137.436Z" fill="white"/>
<path d="M116.203 144.243L113.515 145.074L90.869 140.571L91.1638 139.265L116.203 144.243Z" fill="white"/>
<path d="M203.548 153.332C206.671 153.332 209.202 150.803 209.202 147.683C209.202 144.563 206.671 142.034 203.548 142.034C200.426 142.034 197.894 144.563 197.894 147.683C197.894 150.803 200.426 153.332 203.548 153.332Z" fill="#4B59AA"/>
<path d="M130.852 8.07009C133.083 8.07009 134.891 6.26354 134.891 4.03504C134.891 1.80655 133.083 0 130.852 0C128.622 0 126.814 1.80655 126.814 4.03504C126.814 6.26354 128.622 8.07009 130.852 8.07009Z" fill="#FF6584"/>
<path d="M42.8098 133.157C45.0403 133.157 46.8484 131.35 46.8484 129.121C46.8484 126.893 45.0403 125.086 42.8098 125.086C40.5793 125.086 38.7711 126.893 38.7711 129.121C38.7711 131.35 40.5793 133.157 42.8098 133.157Z" fill="#FF6584"/>
<path d="M184.163 119.437C186.393 119.437 188.201 117.631 188.201 115.402C188.201 113.174 186.393 111.367 184.163 111.367C181.932 111.367 180.124 113.174 180.124 115.402C180.124 117.631 181.932 119.437 184.163 119.437Z" fill="#4B59AA"/>
<path d="M61.3876 174.314C63.6181 174.314 65.4263 172.507 65.4263 170.279C65.4263 168.05 63.6181 166.244 61.3876 166.244C59.1571 166.244 57.3489 168.05 57.3489 170.279C57.3489 172.507 59.1571 174.314 61.3876 174.314Z" fill="#4B59AA"/>
<path d="M189.009 185.612C191.24 185.612 193.048 183.806 193.048 181.577C193.048 179.349 191.24 177.542 189.009 177.542C186.779 177.542 184.971 179.349 184.971 181.577C184.971 183.806 186.779 185.612 189.009 185.612Z" fill="#E6E6E6"/>
<path d="M153.469 41.9645C155.699 41.9645 157.508 40.1579 157.508 37.9295C157.508 35.701 155.699 33.8944 153.469 33.8944C151.238 33.8944 149.43 35.701 149.43 37.9295C149.43 40.1579 151.238 41.9645 153.469 41.9645Z" fill="#CCCCCC"/>
<path d="M0.821244 86.3311C5.05013 86.5973 9.15569 87.861 12.8014 90.0185C16.4471 92.1761 19.5291 95.1662 21.7948 98.7436C22.4298 99.7577 23.2587 100.872 22.8191 102.121C22.666 102.599 22.3549 103.012 21.9366 103.291C21.5184 103.57 21.0177 103.699 20.5166 103.657C19.8917 103.523 19.3284 103.187 18.9136 102.701C18.4989 102.215 18.2556 101.606 18.2214 100.968C18.1872 100.331 18.364 99.6993 18.7244 99.1719C19.0849 98.6445 19.6089 98.2502 20.2159 98.0499C23.1489 96.7999 26.108 98.7317 28.4971 100.273C33.9409 103.786 39.9285 106.963 46.5249 107.364C52.628 107.734 59.1727 105.343 62.5673 100.055C63.1612 99.1301 61.6867 98.2753 61.0957 99.1958C57.729 104.44 50.923 106.324 45.0053 105.513C41.4788 104.957 38.0736 103.802 34.9372 102.098C33.3107 101.254 31.7331 100.32 30.1875 99.3368C28.7167 98.3115 27.1578 97.4186 25.529 96.6686C22.8126 95.5538 19.2165 95.6409 17.319 98.2077C15.5488 100.602 16.9169 104.589 19.8776 105.262C20.5271 105.39 21.1982 105.355 21.8308 105.16C22.4634 104.965 23.0376 104.616 23.5021 104.145C23.9666 103.674 24.3067 103.095 24.4921 102.46C24.6775 101.825 24.7022 101.154 24.5642 100.507C24.2687 99.0969 23.2059 97.7169 22.3833 96.5643C19.9115 93.0902 16.6912 90.2144 12.9595 88.1487C9.22785 86.083 5.07987 84.88 0.821145 84.6283C-0.275165 84.5742 -0.272207 86.2771 0.821244 86.3311Z" fill="#CCCCCC"/>
<path d="M239.677 137.875C236.843 136.053 234.482 133.585 232.787 130.675C231.093 127.765 230.112 124.494 229.927 121.132C229.879 120.182 229.736 119.087 230.525 118.391C230.817 118.117 231.194 117.951 231.592 117.92C231.991 117.888 232.389 117.992 232.72 118.215C233.102 118.551 233.363 119.002 233.463 119.5C233.562 119.998 233.495 120.515 233.271 120.971C233.048 121.427 232.68 121.797 232.225 122.024C231.77 122.251 231.253 122.322 230.754 122.226C228.232 121.958 226.926 119.47 225.865 117.474C223.448 112.926 220.522 108.401 216.096 105.568C212.001 102.948 206.528 102.073 202.119 104.431C201.348 104.844 202.04 106.008 202.808 105.598C207.18 103.26 212.638 104.587 216.433 107.442C218.667 109.194 220.583 111.315 222.1 113.713C222.903 114.929 223.636 116.189 224.328 117.47C224.952 118.752 225.688 119.976 226.528 121.127C227.982 122.954 230.513 124.286 232.827 123.238C233.342 122.971 233.788 122.588 234.129 122.119C234.47 121.649 234.696 121.106 234.789 120.534C234.882 119.962 234.84 119.375 234.666 118.822C234.492 118.269 234.191 117.764 233.787 117.348C233.386 117.007 232.906 116.772 232.391 116.662C231.876 116.553 231.342 116.572 230.836 116.72C230.331 116.867 229.87 117.138 229.495 117.507C229.12 117.876 228.842 118.332 228.687 118.835C228.449 120.017 228.444 121.234 228.672 122.418C229.041 125.788 230.162 129.032 231.952 131.912C233.742 134.792 236.156 137.234 239.016 139.058C239.757 139.52 240.415 138.336 239.677 137.875Z" fill="#CCCCCC"/>
<path d="M100.313 26.1517C96.9498 25.94 93.6845 24.9349 90.7849 23.2189C87.8853 21.5029 85.434 19.1247 83.632 16.2794C83.127 15.4728 82.4677 14.5864 82.8173 13.5936C82.9391 13.2129 83.1866 12.8848 83.5192 12.6628C83.8519 12.4408 84.25 12.3382 84.6486 12.3716C85.1456 12.4785 85.5936 12.7458 85.9235 13.1322C86.2534 13.5187 86.4468 14.0029 86.474 14.5101C86.5012 15.0173 86.3606 15.5193 86.074 15.9388C85.7873 16.3583 85.3705 16.6718 84.8878 16.8312C82.555 17.8253 80.2015 16.2889 78.3013 15.0627C73.9716 12.2687 69.2093 9.74193 63.9629 9.42352C59.1088 9.12896 53.9035 11.0305 51.2036 15.2362C50.7312 15.972 51.904 16.6519 52.3741 15.9197C55.0517 11.7487 60.4648 10.2507 65.1715 10.8954C67.9763 11.3376 70.6847 12.2563 73.1792 13.6116C74.4728 14.2824 75.7275 15.0259 76.9568 15.8076C78.1266 16.6231 79.3665 17.3333 80.662 17.9297C82.8225 18.8164 85.6826 18.7472 87.1917 16.7056C87.5118 16.2219 87.7142 15.67 87.7827 15.0941C87.8511 14.5182 87.7838 13.9343 87.5861 13.3891C87.3883 12.8438 87.0656 12.3524 86.6438 11.954C86.222 11.5556 85.7127 11.2614 85.1567 11.0948C84.6402 10.993 84.1064 11.021 83.6033 11.176C83.1001 11.3311 82.6434 11.6085 82.274 11.9833C81.9046 12.3582 81.634 12.8187 81.4866 13.3237C81.3392 13.8287 81.3195 14.3624 81.4293 14.8769C81.798 16.0249 82.3872 17.09 83.1639 18.0127C85.1298 20.7758 87.6911 23.0631 90.6591 24.706C93.6271 26.349 96.9261 27.3058 100.313 27.506C101.185 27.5491 101.183 26.1946 100.313 26.1517Z" fill="#CCCCCC"/>
<path d="M103.39 69.0569H99.351V82.3149H103.39V69.0569Z" fill="#CCCCCC"/>
<path d="M38.0901 59.8047L40.8968 57.0005L31.6746 47.7865L28.8679 50.5908L38.0901 59.8047Z" fill="#B3B3B3"/>
<path d="M151.643 87.6668L154.45 90.4711L163.672 81.2571L160.865 78.4529L151.643 87.6668Z" fill="#B3B3B3"/>
<path d="M36.9451 202.262L39.7519 205.066L48.9741 195.852L46.1674 193.048L36.9451 202.262Z" fill="#FF6584"/>
</g>
<defs>
<clipPath id="clip0_311_717">
<rect width="240" height="389" fill="white"/>
</clipPath>
</defs>
</svg>
