<svg width="24" height="21" viewBox="0 0 24 21" fill="none" xmlns="http://www.w3.org/2000/svg">
<path d="M12 14.5415C13.7259 14.5415 15.125 13.1424 15.125 11.4165C15.125 9.69061 13.7259 8.2915 12 8.2915C10.2741 8.2915 8.875 9.69061 8.875 11.4165C8.875 13.1424 10.2741 14.5415 12 14.5415Z" stroke="white" stroke-width="1.5"/>
<path d="M1.58334 11.7959C1.58334 8.60317 1.58334 7.00734 2.36355 5.86151C2.70226 5.36323 3.13631 4.93697 3.64064 4.60734C4.39064 4.11463 5.33022 3.93859 6.76876 3.87609C7.45522 3.87609 8.04584 3.36567 8.18022 2.70422C8.28291 2.2197 8.54973 1.7855 8.93558 1.475C9.32144 1.16449 9.80266 0.996724 10.2979 1.00005H13.7021C14.7313 1.00005 15.6177 1.71359 15.8198 2.70422C15.9542 3.36567 16.5448 3.87609 17.2313 3.87609C18.6688 3.93859 19.6083 4.11567 20.3594 4.60734C20.8646 4.93859 21.299 5.36463 21.6365 5.86151C22.4167 7.00734 22.4167 8.60317 22.4167 11.7959C22.4167 14.9875 22.4167 16.5834 21.6365 17.7303C21.2972 18.228 20.8632 18.6542 20.3594 18.9844C19.1917 19.75 17.5656 19.75 14.3146 19.75H9.68543C6.43439 19.75 4.80834 19.75 3.64064 18.9844C3.13703 18.6538 2.70344 18.2273 2.36459 17.7292C2.13882 17.3918 1.9722 17.0184 1.87189 16.625M19.2917 8.29172H18.25" stroke="white" stroke-width="1.5" stroke-linecap="round"/>
</svg>
