<svg width="26" height="26" viewBox="0 0 26 26" fill="none" xmlns="http://www.w3.org/2000/svg">
<path d="M20.2917 0.0258789H10.9167C8.04479 0.0258789 5.70833 2.36234 5.70833 5.23421V6.27588H5.1875C2.60312 6.27588 0.5 8.379 0.5 10.9634V21.38C0.5 23.3894 2.13438 25.0248 4.14479 25.0259H20.2917C23.1635 25.0259 25.5 22.6894 25.5 19.8175V5.23421C25.5 2.36234 23.1635 0.0258789 20.2917 0.0258789ZM5.70833 21.38C5.70833 22.2415 5.00729 22.9425 4.14583 22.9425C3.28437 22.9425 2.58333 22.2415 2.58333 21.38V10.9634C2.58333 9.52796 3.75208 8.35921 5.1875 8.35921H5.70833V21.38ZM23.4167 19.8175C23.4167 21.5405 22.0146 22.9425 20.2917 22.9425H7.43958C7.66458 22.4686 7.79167 21.9394 7.79167 21.38V5.23421C7.79167 3.5113 9.19375 2.10921 10.9167 2.10921H20.2917C22.0146 2.10921 23.4167 3.5113 23.4167 5.23421V19.8175ZM21.3333 7.31755C21.3333 7.89255 20.8667 8.35921 20.2917 8.35921H17.1667C16.5917 8.35921 16.125 7.89255 16.125 7.31755C16.125 6.74255 16.5917 6.27588 17.1667 6.27588H20.2917C20.8667 6.27588 21.3333 6.74255 21.3333 7.31755ZM21.3333 11.4842C21.3333 12.0592 20.8667 12.5259 20.2917 12.5259H10.9167C10.3417 12.5259 9.875 12.0592 9.875 11.4842C9.875 10.9092 10.3417 10.4425 10.9167 10.4425H20.2917C20.8667 10.4425 21.3333 10.9092 21.3333 11.4842ZM21.3333 15.6509C21.3333 16.2259 20.8667 16.6925 20.2917 16.6925H10.9167C10.3417 16.6925 9.875 16.2259 9.875 15.6509C9.875 15.0759 10.3417 14.6092 10.9167 14.6092H20.2917C20.8667 14.6092 21.3333 15.0759 21.3333 15.6509ZM21.3333 19.8175C21.3333 20.3925 20.8667 20.8592 20.2917 20.8592H10.9167C10.3417 20.8592 9.875 20.3925 9.875 19.8175C9.875 19.2425 10.3417 18.7759 10.9167 18.7759H20.2917C20.8667 18.7759 21.3333 19.2425 21.3333 19.8175ZM9.875 7.31755V5.23421C9.875 4.65921 10.3417 4.19255 10.9167 4.19255H13C13.575 4.19255 14.0417 4.65921 14.0417 5.23421V7.31755C14.0417 7.89255 13.575 8.35921 13 8.35921H10.9167C10.3417 8.35921 9.875 7.89255 9.875 7.31755Z" fill="white"/>
</svg>
