<svg width="25" height="26" viewBox="0 0 25 26" fill="none" xmlns="http://www.w3.org/2000/svg">
<path d="M22.9167 5.99063V2.11146C22.9167 1.53646 22.451 1.06979 21.875 1.06979C21.299 1.06979 20.8333 1.53646 20.8333 2.11146V4.57604L15.4135 0.91875C13.6437 -0.275 11.3562 -0.275 9.58646 0.91875L2.29479 5.83958C0.858333 6.80938 0 8.42292 0 10.1573V19.8198C0 22.6917 2.33646 25.0281 5.20833 25.0281H8.33333C8.90937 25.0281 9.375 24.5615 9.375 23.9865V15.6531C9.375 15.0792 9.84167 14.6115 10.4167 14.6115H14.5833C15.1583 14.6115 15.625 15.0792 15.625 15.6531V23.9865C15.625 24.5615 16.0906 25.0281 16.6667 25.0281H19.7917C22.6635 25.0281 25 22.6917 25 19.8198V10.1573C25 8.51042 24.225 6.97188 22.9167 5.99063ZM22.9167 19.8198C22.9167 21.5427 21.5146 22.9448 19.7917 22.9448H17.7083V15.6531C17.7083 13.9302 16.3062 12.5281 14.5833 12.5281H10.4167C8.69375 12.5281 7.29167 13.9302 7.29167 15.6531V22.9448H5.20833C3.48542 22.9448 2.08333 21.5427 2.08333 19.8198V10.1573C2.08333 9.11667 2.59792 8.14792 3.46042 7.56667L10.7521 2.64583C11.8146 1.92917 13.1854 1.92917 14.2469 2.64583L21.5385 7.56667C22.401 8.14792 22.9156 9.11667 22.9156 10.1573L22.9167 19.8198Z" fill="black"/>
</svg>
