<svg width="25" height="26" viewBox="0 0 25 26" fill="none" xmlns="http://www.w3.org/2000/svg">
<path d="M4.16667 18.7756C4.16667 17.6705 4.60566 16.6107 5.38706 15.8293C6.16846 15.0479 7.22827 14.6089 8.33334 14.6089H16.6667C17.7717 14.6089 18.8315 15.0479 19.6129 15.8293C20.3944 16.6107 20.8333 17.6705 20.8333 18.7756C20.8333 19.3281 20.6138 19.858 20.2231 20.2487C19.8324 20.6394 19.3025 20.8589 18.75 20.8589H6.25001C5.69747 20.8589 5.16757 20.6394 4.77687 20.2487C4.38617 19.858 4.16667 19.3281 4.16667 18.7756Z" stroke="white" stroke-width="2" stroke-linejoin="round"/>
<path d="M12.5 10.4424C14.2259 10.4424 15.625 9.04327 15.625 7.31738C15.625 5.59149 14.2259 4.19238 12.5 4.19238C10.7741 4.19238 9.375 5.59149 9.375 7.31738C9.375 9.04327 10.7741 10.4424 12.5 10.4424Z" stroke="white" stroke-width="2"/>
</svg>
