<svg width="26" height="26" viewBox="0 0 26 26" fill="none" xmlns="http://www.w3.org/2000/svg">
<path d="M12.9741 0.0258692C14.6928 0.0223021 16.102 1.42563 16.1055 3.14438L16.1445 21.8943C16.148 23.6131 14.7447 25.0222 13.0259 25.0258C11.3072 25.0294 9.89803 23.6261 9.89446 21.9073L9.85555 3.15735C9.85198 1.4386 11.2553 0.0294362 12.9741 0.0258692ZM6.76947 21.9138L6.74353 9.41382C6.73996 7.69508 5.3308 6.29175 3.61205 6.29531C1.8933 6.29888 0.489976 7.70805 0.493543 9.42679L0.519485 21.9268C0.523052 23.6455 1.93222 25.0488 3.65096 25.0453C5.36971 25.0417 6.77304 23.6325 6.76947 21.9138ZM19.2565 15.6379L19.2694 21.8879C19.273 23.6066 20.6822 25.0099 22.4009 25.0064C24.1197 25.0028 25.523 23.5936 25.5194 21.8749L25.5065 15.6249C25.5029 13.9061 24.0937 12.5028 22.375 12.5064C20.6562 12.51 19.2529 13.9191 19.2565 15.6379Z" fill="white"/>
</svg>
