<svg width="328" height="164" viewBox="0 0 328 164" fill="none" xmlns="http://www.w3.org/2000/svg">
<path d="M204.598 68.2992C204.721 70.033 205.786 70.7496 206.733 71.5513C207.781 72.4388 208.878 73.2549 209.559 74.6185C210.799 77.102 210.05 79.2297 207.53 80.0463C208.025 77.5533 206.562 76.5333 205.207 75.4427C203.857 74.3572 202.734 73.0321 202.123 71.2188C199.279 71.804 198.354 71.2981 197.012 68.1136C196.096 65.9408 195.388 63.6414 194.525 61.4342C193.239 58.1447 192.588 57.7015 189.79 57.9761C190.248 56.5076 191.844 55.5706 193.361 55.9126C194.872 56.2531 195.964 57.3101 196.733 58.8862C197.627 60.7195 198.326 62.6612 198.97 64.6393C199.378 65.8909 199.816 67.148 200.385 68.2983C201.17 69.8843 201.657 69.8642 202.556 68.4279C203.152 67.4766 203.849 66.766 204.9 66.8904C205.169 67.5127 204.704 67.7734 204.598 68.2992Z" fill="black"/>
<path d="M189.103 73.4958C189.15 75.773 188.823 77.9143 189.91 79.9293C188.353 80.4613 186.955 80.1198 185.378 80.2099C186.657 76.8099 186.144 73.4537 186.075 70.1891C186.008 67.0067 187.093 63.6383 185.228 60.5624C186.356 59.6746 187.579 59.4684 189.103 59.1757C189.103 63.9873 189.103 68.6461 189.103 73.4958Z" fill="black"/>
<path d="M111.44 78.7324C111.902 73.4747 111.646 68.3419 111.629 63.214C111.627 62.5753 111.228 61.9385 110.946 61.1012C112.501 60.9277 113.94 60.9467 115.194 61.1002C114.636 67.4868 114.406 73.7011 115.317 80.1522C114.366 80.4598 113.001 80.2142 111.662 80.1711C110.673 80.1393 111.097 79.4275 111.44 78.7324Z" fill="black"/>
<path d="M120.142 79.7672C119.335 80.0173 118.655 80.4199 117.487 79.8604C121.492 78.3745 122.058 74.8324 121.985 70.9057C121.916 67.1782 121.634 63.5365 118.192 61.4623C121.31 60.7249 124.488 63.5968 125.38 67.5433C126.645 73.1445 124.704 77.7637 120.142 79.7672Z" fill="black"/>
<path d="M179.63 71.6259C179.67 69.8944 179.761 68.3312 178.475 67.0796C180.344 66.3683 181.414 64.8287 182.284 62.6128C182.884 64.0442 182.528 65.1143 182.763 66.0574C183.078 67.3263 184.227 66.4032 184.795 67.0835C181.874 69.9915 181.687 77.6543 184.596 79.3966C183.589 80.5091 182.459 80.5342 181.352 80.0583C180.238 79.5791 179.732 78.3816 179.668 77.0233C179.587 75.2904 179.636 73.5486 179.63 71.6259Z" fill="black"/>
<path d="M197.713 72.909C197.496 73.0661 197.349 73.1615 197.195 73.1811C196.192 73.3088 194.995 73.2198 194.635 74.6362C194.26 76.1054 194.916 77.4184 195.728 78.4745C196.562 79.56 197.663 79.4054 198.709 78.9846C199.286 78.7522 199.818 78.3522 200.524 77.9373C199.381 80.29 196.836 81.0128 194.387 79.8678C191.821 78.6682 190.586 75.5573 191.231 71.9185C191.765 68.9102 193.591 66.9533 195.896 67.0419C195.414 68.1385 194.79 69.0979 194.587 70.2967C194.374 71.5506 194.591 72.2426 195.819 72.2727C196.464 72.2884 197.307 71.7325 197.713 72.909Z" fill="black"/>
<path d="M211.884 67.929C212.549 67.2791 213.091 66.6004 214.074 67.0359C212.933 68.8949 213.96 69.9677 215.043 70.9854C216.01 71.8928 217.097 72.6406 217.966 73.6627C218.907 74.769 219.481 76.1901 219.017 77.8692C218.64 79.2362 217.762 79.843 216.373 80.1263C217.174 77.9846 216.022 77.045 214.953 76.0952C213.881 75.1416 212.716 74.323 211.927 72.9776C210.987 71.3723 210.622 69.7291 211.884 67.929Z" fill="black"/>
<path d="M138.234 79.5865C138.607 77.7258 137.664 76.8334 136.692 75.9959C135.48 74.9511 134.175 74.0322 133.377 72.4397C132.096 69.8833 133.151 67.1755 135.603 67.01C134.755 69.1884 135.855 70.3454 137.145 71.3978C138.465 72.4749 139.892 73.4223 140.528 75.3493C141.33 77.7806 140.198 79.9423 138.234 79.5865Z" fill="black"/>
<path d="M153.44 80.2187C152.047 80.2274 150.781 80.2274 149.494 80.2274C150.379 76.0208 150.62 72.1187 149.335 68.04C150.072 67.3253 151.243 67.3484 152.278 66.9751C153.149 66.6611 153.164 67.634 153.17 68.3295C153.194 70.7764 153.176 73.2237 153.187 75.6709C153.192 77.0059 153.027 78.369 153.97 79.4673C154.282 79.8304 153.934 80.1356 153.44 80.2187Z" fill="black"/>
<path d="M127.636 70.3942C127.499 69.4389 126.955 68.9484 126.579 68.2018C127.569 67.3261 128.77 67.2992 129.852 66.9691C130.726 66.7026 130.654 67.7601 130.663 68.4159C130.702 71.0452 130.696 73.6755 130.708 76.3053C130.714 77.5152 130.647 78.7449 131.631 79.9196C129.922 80.4307 128.496 80.2171 126.889 80.111C128.2 76.919 127.57 73.7014 127.636 70.3942Z" fill="black"/>
<path d="M168.526 75.1617C168.134 70.3536 170.218 66.7556 173.217 67.125C172.041 69.0662 171.661 71.198 171.73 73.5123C171.878 78.428 172.922 79.5823 176.823 78.9701C176.014 80.3587 175.07 80.6761 172.791 80.2052C170.487 79.7294 169.146 77.9904 168.526 75.1617Z" fill="black"/>
<path d="M166.595 76.4683C166.503 77.729 166.86 78.6267 167.482 79.3755C165.451 81.1233 163.629 80.2537 163.456 77.4781C163.36 75.9506 163.528 74.4005 163.554 72.86C163.57 71.8321 163.606 70.7955 163.52 69.7768C163.441 68.8409 163.21 67.9238 163.046 67.0014C165.066 66.3431 166.384 67.3632 166.553 69.9314C166.692 72.0396 166.589 74.171 166.595 76.4683Z" fill="black"/>
<path d="M140.865 67.7147C142.323 69.1712 142.963 71.0914 143.656 72.9693C144.024 73.9667 144.362 74.9802 144.729 75.9783C145.393 77.7882 146.352 79.151 148.239 79.2646C147.186 80.5694 145.96 80.4508 144.724 79.9243C143.668 79.4743 142.972 78.4598 142.473 77.3013C141.811 75.7634 141.225 74.1777 140.615 72.6072C139.757 70.3978 138.855 68.2299 136.606 66.7605C138.449 66.2725 139.622 66.8641 140.865 67.7147Z" fill="black"/>
<path d="M146.877 66.2358C147.43 67.1633 148.277 66.5012 149.118 67.2715C146.188 68.1213 146.82 70.8258 146.784 73.1903C146.76 74.7205 146.779 76.2515 146.591 77.8427C144.125 74.859 144.03 70.6807 142.808 66.8725C144.423 66.3322 145.408 64.7666 146.262 62.8559C147.13 63.9565 146.576 65.1257 146.877 66.2358Z" fill="black"/>
<path d="M160.585 75.9529C160.453 77.7017 160.914 78.8732 162.585 79.4108C161.022 80.56 159.696 80.6483 158.489 79.6172C157.343 78.6388 156.968 77.171 157.506 75.5058C158.12 73.6028 159.981 72.4076 162.095 72.6799C161.55 73.7532 160.63 74.5085 160.585 75.9529Z" fill="black"/>
<path d="M129.074 60.308C130.794 61.2273 131.273 62.7973 130.309 64.0164C129.802 64.6565 129.161 65.0054 128.433 64.6536C127.621 64.2618 127.108 63.471 127.178 62.4201C127.259 61.1956 127.933 60.495 129.074 60.308Z" fill="black"/>
<path d="M155.338 69.6907C154.862 69.1578 154.316 69.6081 153.869 69.2667C153.925 68.0912 154.538 67.3804 155.334 66.9846C156.088 66.6097 156.941 66.62 157.606 67.2882C158.292 67.9773 157.659 68.7083 157.468 69.3719C157.234 70.1846 157.167 71.1365 156.463 71.6825C155.839 71.2385 155.944 70.2557 155.338 69.6907Z" fill="black"/>
<path d="M133.628 76.208C134.188 77.6686 135.032 78.7119 136.031 79.9363C134.807 80.2258 133.558 80.5326 132.944 79.5694C132.221 78.4363 132.522 76.8248 132.811 75.4494C133.365 75.3263 133.386 75.8317 133.628 76.208Z" fill="black"/>
<path d="M202.027 76.2246C202.207 75.0678 202.6 75.4675 202.801 75.9871C203.397 77.5229 204.319 78.7274 205.424 79.8362C202.646 80.8454 202.024 80.1818 202.027 76.2246Z" fill="black"/>
<path d="M209.802 70.7518C209.647 71.7484 209.261 71.6834 209.01 71.0536C208.439 69.6229 207.678 68.363 206.73 67.1817C209.541 66.2832 209.781 66.5663 209.802 70.7518Z" fill="black"/>
<path d="M212.184 76.862C212.706 78.1717 213.615 78.8993 214.504 79.949C213.299 80.354 212.036 80.4834 211.383 79.685C210.513 78.6223 211.027 76.9645 211.105 75.4981C211.777 75.6574 211.85 76.3168 212.184 76.862Z" fill="black"/>
<path d="M176.443 69.3425C175.88 68.5249 175.375 67.8272 174.817 67.057C177.994 66.7569 178.831 68.1089 177.769 71.7474C176.922 71.3017 176.946 70.1768 176.443 69.3425Z" fill="black"/>
<path d="M217.431 69.7219C216.859 68.8094 216.341 68.0186 215.751 67.1179C216.66 66.5814 217.893 66.5278 218.37 67.1754C219.221 68.3308 218.795 70.0392 218.771 71.6425C217.787 71.4875 217.852 70.4422 217.431 69.7219Z" fill="black"/>
<path d="M159.108 71.2072C158.725 71.694 158.445 71.6442 158.448 71.0788C158.456 69.8168 158.542 68.5555 158.599 67.2267C159.546 67.141 160.355 67.1671 161.312 67.4501C160.615 68.8151 159.644 69.7663 159.108 71.2072Z" fill="black"/>
</svg>
